ISO-10303-21;
HEADER;
FILE_DESCRIPTION(('Open CASCADE Model'),'2;1');
FILE_NAME('Open CASCADE Shape Model','2024-10-01T20:19:22',('Author'),(
    'Open CASCADE'),'Open CASCADE STEP processor 7.8','Open CASCADE 7.8'
  ,'Unknown');
FILE_SCHEMA(('CONFIG_CONTROL_DESIGN'));
ENDSEC;
DATA;
#1 = APPLICATION_PROTOCOL_DEFINITION('international standard',
  'config_control_design',1994,#2);
#2 = APPLICATION_CONTEXT(
'configuration controlled 3D designs of mechanical parts and assemblies'
  );
#3 = SHAPE_DEFINITION_REPRESENTATION(#4,#10);
#4 = PRODUCT_DEFINITION_SHAPE('','',#5);
#5 = PRODUCT_DEFINITION('design','',#6,#9);
#6 = PRODUCT_DEFINITION_FORMATION_WITH_SPECIFIED_SOURCE('','',#7,
  .NOT_KNOWN.);
#7 = PRODUCT('Open CASCADE STEP translator 7.8 374',
  'Open CASCADE STEP translator 7.8 374','',(#8));
#8 = MECHANICAL_CONTEXT('',#2,'mechanical');
#9 = DESIGN_CONTEXT('',#2,'design');
#10 = ADVANCED_BREP_SHAPE_REPRESENTATION('',(#11,#15),#537);
#11 = AXIS2_PLACEMENT_3D('',#12,#13,#14);
#12 = CARTESIAN_POINT('',(0.,0.,0.));
#13 = DIRECTION('',(0.,0.,1.));
#14 = DIRECTION('',(1.,0.,-0.));
#15 = MANIFOLD_SOLID_BREP('',#16);
#16 = CLOSED_SHELL('',(#17,#87,#170,#199,#223,#301,#308,#386,#390,#397,
    #448,#526,#530));
#17 = ADVANCED_FACE('',(#18,#57),#31,.F.);
#18 = FACE_BOUND('',#19,.T.);
#19 = EDGE_LOOP('',(#20));
#20 = ORIENTED_EDGE('',*,*,#21,.F.);
#21 = EDGE_CURVE('',#22,#22,#24,.T.);
#22 = VERTEX_POINT('',#23);
#23 = CARTESIAN_POINT('',(-9.432576752498E-02,0.567556741329,
    -0.108144192067));
#24 = SURFACE_CURVE('',#25,(#30,#46),.PCURVE_S1.);
#25 = CIRCLE('',#26,9.432576752498E-02);
#26 = AXIS2_PLACEMENT_3D('',#27,#28,#29);
#27 = CARTESIAN_POINT('',(0.,0.567556741329,-0.108144192067));
#28 = DIRECTION('',(0.,1.,0.));
#29 = DIRECTION('',(-1.,0.,0.));
#30 = PCURVE('',#31,#36);
#31 = PLANE('',#32);
#32 = AXIS2_PLACEMENT_3D('',#33,#34,#35);
#33 = CARTESIAN_POINT('',(0.,0.567556741329,0.));
#34 = DIRECTION('',(0.,-1.,0.));
#35 = DIRECTION('',(1.,0.,0.));
#36 = DEFINITIONAL_REPRESENTATION('',(#37),#45);
#37 = ( BOUNDED_CURVE() B_SPLINE_CURVE(2,(#38,#39,#40,#41,#42,#43,#44),
.UNSPECIFIED.,.T.,.F.) B_SPLINE_CURVE_WITH_KNOTS((1,2,2,2,2,1),(
    -2.094395102393,0.,2.094395102393,4.188790204786,6.28318530718,
8.377580409573),.UNSPECIFIED.) CURVE() GEOMETRIC_REPRESENTATION_ITEM() 
RATIONAL_B_SPLINE_CURVE((1.,0.5,1.,0.5,1.,0.5,1.)) REPRESENTATION_ITEM(
  '') );
#38 = CARTESIAN_POINT('',(-9.432576752498E-02,-0.108144192067));
#39 = CARTESIAN_POINT('',(-9.432576752498E-02,5.523282974934E-02));
#40 = CARTESIAN_POINT('',(4.716288376249E-02,-2.645568115876E-02));
#41 = CARTESIAN_POINT('',(0.18865153505,-0.108144192067));
#42 = CARTESIAN_POINT('',(4.716288376249E-02,-0.189832702975));
#43 = CARTESIAN_POINT('',(-9.432576752498E-02,-0.271521213883));
#44 = CARTESIAN_POINT('',(-9.432576752498E-02,-0.108144192067));
#45 = ( GEOMETRIC_REPRESENTATION_CONTEXT(2) 
PARAMETRIC_REPRESENTATION_CONTEXT() REPRESENTATION_CONTEXT('2D SPACE',''
  ) );
#46 = PCURVE('',#47,#52);
#47 = CYLINDRICAL_SURFACE('',#48,9.432576752498E-02);
#48 = AXIS2_PLACEMENT_3D('',#49,#50,#51);
#49 = CARTESIAN_POINT('',(0.,0.663684912055,-0.108144192067));
#50 = DIRECTION('',(-0.,1.,-0.));
#51 = DIRECTION('',(0.,0.,-1.));
#52 = DEFINITIONAL_REPRESENTATION('',(#53),#56);
#53 = B_SPLINE_CURVE_WITH_KNOTS('',1,(#54,#55),.UNSPECIFIED.,.F.,.F.,(2,
    2),(0.,6.28318530718),.PIECEWISE_BEZIER_KNOTS.);
#54 = CARTESIAN_POINT('',(1.570796326795,-9.61281707261E-02));
#55 = CARTESIAN_POINT('',(7.853981633974,-9.61281707261E-02));
#56 = ( GEOMETRIC_REPRESENTATION_CONTEXT(2) 
PARAMETRIC_REPRESENTATION_CONTEXT() REPRESENTATION_CONTEXT('2D SPACE',''
  ) );
#57 = FACE_BOUND('',#58,.T.);
#58 = EDGE_LOOP('',(#59));
#59 = ORIENTED_EDGE('',*,*,#60,.F.);
#60 = EDGE_CURVE('',#61,#61,#63,.T.);
#61 = VERTEX_POINT('',#62);
#62 = CARTESIAN_POINT('',(0.290387182402,0.567556741329,0.));
#63 = SURFACE_CURVE('',#64,(#69,#76),.PCURVE_S1.);
#64 = CIRCLE('',#65,0.290387182402);
#65 = AXIS2_PLACEMENT_3D('',#66,#67,#68);
#66 = CARTESIAN_POINT('',(0.,0.567556741329,0.));
#67 = DIRECTION('',(0.,-1.,0.));
#68 = DIRECTION('',(1.,0.,0.));
#69 = PCURVE('',#31,#70);
#70 = DEFINITIONAL_REPRESENTATION('',(#71),#75);
#71 = CIRCLE('',#72,0.290387182402);
#72 = AXIS2_PLACEMENT_2D('',#73,#74);
#73 = CARTESIAN_POINT('',(0.,0.));
#74 = DIRECTION('',(1.,0.));
#75 = ( GEOMETRIC_REPRESENTATION_CONTEXT(2) 
PARAMETRIC_REPRESENTATION_CONTEXT() REPRESENTATION_CONTEXT('2D SPACE',''
  ) );
#76 = PCURVE('',#77,#82);
#77 = CYLINDRICAL_SURFACE('',#78,0.290387182402);
#78 = AXIS2_PLACEMENT_3D('',#79,#80,#81);
#79 = CARTESIAN_POINT('',(0.,-0.686114818558,0.));
#80 = DIRECTION('',(-0.,-1.,-0.));
#81 = DIRECTION('',(0.,0.,1.));
#82 = DEFINITIONAL_REPRESENTATION('',(#83),#86);
#83 = B_SPLINE_CURVE_WITH_KNOTS('',1,(#84,#85),.UNSPECIFIED.,.F.,.F.,(2,
    2),(0.,6.28318530718),.PIECEWISE_BEZIER_KNOTS.);
#84 = CARTESIAN_POINT('',(4.712388980385,-1.253671559886));
#85 = CARTESIAN_POINT('',(10.995574287564,-1.253671559886));
#86 = ( GEOMETRIC_REPRESENTATION_CONTEXT(2) 
PARAMETRIC_REPRESENTATION_CONTEXT() REPRESENTATION_CONTEXT('2D SPACE',''
  ) );
#87 = ADVANCED_FACE('',(#88),#101,.T.);
#88 = FACE_BOUND('',#89,.T.);
#89 = EDGE_LOOP('',(#90,#123,#143,#169));
#90 = ORIENTED_EDGE('',*,*,#91,.F.);
#91 = EDGE_CURVE('',#92,#92,#94,.T.);
#92 = VERTEX_POINT('',#93);
#93 = CARTESIAN_POINT('',(0.266555406743,-0.758611480647,0.));
#94 = SURFACE_CURVE('',#95,(#100,#111),.PCURVE_S1.);
#95 = CIRCLE('',#96,0.266555406743);
#96 = AXIS2_PLACEMENT_3D('',#97,#98,#99);
#97 = CARTESIAN_POINT('',(0.,-0.758611480647,0.));
#98 = DIRECTION('',(0.,-1.,0.));
#99 = DIRECTION('',(1.,0.,0.));
#100 = PCURVE('',#101,#106);
#101 = CYLINDRICAL_SURFACE('',#102,0.266555406743);
#102 = AXIS2_PLACEMENT_3D('',#103,#104,#105);
#103 = CARTESIAN_POINT('',(0.,-0.758611480647,0.));
#104 = DIRECTION('',(-0.,-1.,-0.));
#105 = DIRECTION('',(0.,0.,1.));
#106 = DEFINITIONAL_REPRESENTATION('',(#107),#110);
#107 = B_SPLINE_CURVE_WITH_KNOTS('',1,(#108,#109),.UNSPECIFIED.,.F.,.F.,
  (2,2),(0.,6.28318530718),.PIECEWISE_BEZIER_KNOTS.);
#108 = CARTESIAN_POINT('',(4.712388980385,0.));
#109 = CARTESIAN_POINT('',(10.995574287564,0.));
#110 = ( GEOMETRIC_REPRESENTATION_CONTEXT(2) 
PARAMETRIC_REPRESENTATION_CONTEXT() REPRESENTATION_CONTEXT('2D SPACE',''
  ) );
#111 = PCURVE('',#112,#117);
#112 = PLANE('',#113);
#113 = AXIS2_PLACEMENT_3D('',#114,#115,#116);
#114 = CARTESIAN_POINT('',(0.,-0.758611480647,0.));
#115 = DIRECTION('',(0.,-1.,0.));
#116 = DIRECTION('',(1.,0.,0.));
#117 = DEFINITIONAL_REPRESENTATION('',(#118),#122);
#118 = CIRCLE('',#119,0.266555406743);
#119 = AXIS2_PLACEMENT_2D('',#120,#121);
#120 = CARTESIAN_POINT('',(0.,0.));
#121 = DIRECTION('',(1.,0.));
#122 = ( GEOMETRIC_REPRESENTATION_CONTEXT(2) 
PARAMETRIC_REPRESENTATION_CONTEXT() REPRESENTATION_CONTEXT('2D SPACE',''
  ) );
#123 = ORIENTED_EDGE('',*,*,#124,.F.);
#124 = EDGE_CURVE('',#125,#92,#127,.T.);
#125 = VERTEX_POINT('',#126);
#126 = CARTESIAN_POINT('',(0.266555406743,-0.686114818558,0.));
#127 = SEAM_CURVE('',#128,(#131,#137),.PCURVE_S1.);
#128 = B_SPLINE_CURVE_WITH_KNOTS('',1,(#129,#130),.UNSPECIFIED.,.F.,.F.,
  (2,2),(-4.5974,0.),.PIECEWISE_BEZIER_KNOTS.);
#129 = CARTESIAN_POINT('',(0.266555406743,-0.686114818558,
    -4.896543384941E-17));
#130 = CARTESIAN_POINT('',(0.266555406743,-0.758611480647,
    -4.896543384941E-17));
#131 = PCURVE('',#101,#132);
#132 = DEFINITIONAL_REPRESENTATION('',(#133),#136);
#133 = B_SPLINE_CURVE_WITH_KNOTS('',1,(#134,#135),.UNSPECIFIED.,.F.,.F.,
  (2,2),(-4.5974,0.),.PIECEWISE_BEZIER_KNOTS.);
#134 = CARTESIAN_POINT('',(4.712388980385,-7.249666208927E-02));
#135 = CARTESIAN_POINT('',(4.712388980385,0.));
#136 = ( GEOMETRIC_REPRESENTATION_CONTEXT(2) 
PARAMETRIC_REPRESENTATION_CONTEXT() REPRESENTATION_CONTEXT('2D SPACE',''
  ) );
#137 = PCURVE('',#101,#138);
#138 = DEFINITIONAL_REPRESENTATION('',(#139),#142);
#139 = B_SPLINE_CURVE_WITH_KNOTS('',1,(#140,#141),.UNSPECIFIED.,.F.,.F.,
  (2,2),(-4.5974,0.),.PIECEWISE_BEZIER_KNOTS.);
#140 = CARTESIAN_POINT('',(10.995574287564,-7.249666208927E-02));
#141 = CARTESIAN_POINT('',(10.995574287564,0.));
#142 = ( GEOMETRIC_REPRESENTATION_CONTEXT(2) 
PARAMETRIC_REPRESENTATION_CONTEXT() REPRESENTATION_CONTEXT('2D SPACE',''
  ) );
#143 = ORIENTED_EDGE('',*,*,#144,.T.);
#144 = EDGE_CURVE('',#125,#125,#145,.T.);
#145 = SURFACE_CURVE('',#146,(#151,#157),.PCURVE_S1.);
#146 = CIRCLE('',#147,0.266555406743);
#147 = AXIS2_PLACEMENT_3D('',#148,#149,#150);
#148 = CARTESIAN_POINT('',(0.,-0.686114818558,0.));
#149 = DIRECTION('',(0.,-1.,0.));
#150 = DIRECTION('',(1.,0.,0.));
#151 = PCURVE('',#101,#152);
#152 = DEFINITIONAL_REPRESENTATION('',(#153),#156);
#153 = B_SPLINE_CURVE_WITH_KNOTS('',1,(#154,#155),.UNSPECIFIED.,.F.,.F.,
  (2,2),(0.,6.28318530718),.PIECEWISE_BEZIER_KNOTS.);
#154 = CARTESIAN_POINT('',(4.712388980385,-7.249666208927E-02));
#155 = CARTESIAN_POINT('',(10.995574287564,-7.249666208927E-02));
#156 = ( GEOMETRIC_REPRESENTATION_CONTEXT(2) 
PARAMETRIC_REPRESENTATION_CONTEXT() REPRESENTATION_CONTEXT('2D SPACE',''
  ) );
#157 = PCURVE('',#158,#163);
#158 = PLANE('',#159);
#159 = AXIS2_PLACEMENT_3D('',#160,#161,#162);
#160 = CARTESIAN_POINT('',(0.,-0.686114818558,0.));
#161 = DIRECTION('',(0.,-1.,0.));
#162 = DIRECTION('',(1.,0.,0.));
#163 = DEFINITIONAL_REPRESENTATION('',(#164),#168);
#164 = CIRCLE('',#165,0.266555406743);
#165 = AXIS2_PLACEMENT_2D('',#166,#167);
#166 = CARTESIAN_POINT('',(0.,0.));
#167 = DIRECTION('',(1.,0.));
#168 = ( GEOMETRIC_REPRESENTATION_CONTEXT(2) 
PARAMETRIC_REPRESENTATION_CONTEXT() REPRESENTATION_CONTEXT('2D SPACE',''
  ) );
#169 = ORIENTED_EDGE('',*,*,#124,.T.);
#170 = ADVANCED_FACE('',(#171,#174),#158,.T.);
#171 = FACE_BOUND('',#172,.T.);
#172 = EDGE_LOOP('',(#173));
#173 = ORIENTED_EDGE('',*,*,#144,.F.);
#174 = FACE_BOUND('',#175,.T.);
#175 = EDGE_LOOP('',(#176));
#176 = ORIENTED_EDGE('',*,*,#177,.T.);
#177 = EDGE_CURVE('',#178,#178,#180,.T.);
#178 = VERTEX_POINT('',#179);
#179 = CARTESIAN_POINT('',(0.290387182402,-0.686114818558,0.));
#180 = SURFACE_CURVE('',#181,(#186,#193),.PCURVE_S1.);
#181 = CIRCLE('',#182,0.290387182402);
#182 = AXIS2_PLACEMENT_3D('',#183,#184,#185);
#183 = CARTESIAN_POINT('',(0.,-0.686114818558,0.));
#184 = DIRECTION('',(0.,-1.,0.));
#185 = DIRECTION('',(1.,0.,0.));
#186 = PCURVE('',#158,#187);
#187 = DEFINITIONAL_REPRESENTATION('',(#188),#192);
#188 = CIRCLE('',#189,0.290387182402);
#189 = AXIS2_PLACEMENT_2D('',#190,#191);
#190 = CARTESIAN_POINT('',(0.,0.));
#191 = DIRECTION('',(1.,0.));
#192 = ( GEOMETRIC_REPRESENTATION_CONTEXT(2) 
PARAMETRIC_REPRESENTATION_CONTEXT() REPRESENTATION_CONTEXT('2D SPACE',''
  ) );
#193 = PCURVE('',#77,#194);
#194 = DEFINITIONAL_REPRESENTATION('',(#195),#198);
#195 = B_SPLINE_CURVE_WITH_KNOTS('',1,(#196,#197),.UNSPECIFIED.,.F.,.F.,
  (2,2),(0.,6.28318530718),.PIECEWISE_BEZIER_KNOTS.);
#196 = CARTESIAN_POINT('',(4.712388980385,0.));
#197 = CARTESIAN_POINT('',(10.995574287564,0.));
#198 = ( GEOMETRIC_REPRESENTATION_CONTEXT(2) 
PARAMETRIC_REPRESENTATION_CONTEXT() REPRESENTATION_CONTEXT('2D SPACE',''
  ) );
#199 = ADVANCED_FACE('',(#200),#77,.T.);
#200 = FACE_BOUND('',#201,.T.);
#201 = EDGE_LOOP('',(#202,#203,#221,#222));
#202 = ORIENTED_EDGE('',*,*,#177,.F.);
#203 = ORIENTED_EDGE('',*,*,#204,.F.);
#204 = EDGE_CURVE('',#61,#178,#205,.T.);
#205 = SEAM_CURVE('',#206,(#209,#215),.PCURVE_S1.);
#206 = B_SPLINE_CURVE_WITH_KNOTS('',1,(#207,#208),.UNSPECIFIED.,.F.,.F.,
  (2,2),(-79.502,0.),.PIECEWISE_BEZIER_KNOTS.);
#207 = CARTESIAN_POINT('',(0.290387182402,0.567556741329,
    -5.334326001626E-17));
#208 = CARTESIAN_POINT('',(0.290387182402,-0.686114818558,
    -5.334326001626E-17));
#209 = PCURVE('',#77,#210);
#210 = DEFINITIONAL_REPRESENTATION('',(#211),#214);
#211 = B_SPLINE_CURVE_WITH_KNOTS('',1,(#212,#213),.UNSPECIFIED.,.F.,.F.,
  (2,2),(-79.502,0.),.PIECEWISE_BEZIER_KNOTS.);
#212 = CARTESIAN_POINT('',(4.712388980385,-1.253671559886));
#213 = CARTESIAN_POINT('',(4.712388980385,0.));
#214 = ( GEOMETRIC_REPRESENTATION_CONTEXT(2) 
PARAMETRIC_REPRESENTATION_CONTEXT() REPRESENTATION_CONTEXT('2D SPACE',''
  ) );
#215 = PCURVE('',#77,#216);
#216 = DEFINITIONAL_REPRESENTATION('',(#217),#220);
#217 = B_SPLINE_CURVE_WITH_KNOTS('',1,(#218,#219),.UNSPECIFIED.,.F.,.F.,
  (2,2),(-79.502,0.),.PIECEWISE_BEZIER_KNOTS.);
#218 = CARTESIAN_POINT('',(10.995574287564,-1.253671559886));
#219 = CARTESIAN_POINT('',(10.995574287564,0.));
#220 = ( GEOMETRIC_REPRESENTATION_CONTEXT(2) 
PARAMETRIC_REPRESENTATION_CONTEXT() REPRESENTATION_CONTEXT('2D SPACE',''
  ) );
#221 = ORIENTED_EDGE('',*,*,#60,.T.);
#222 = ORIENTED_EDGE('',*,*,#204,.T.);
#223 = ADVANCED_FACE('',(#224),#237,.T.);
#224 = FACE_BOUND('',#225,.T.);
#225 = EDGE_LOOP('',(#226,#259,#279,#300));
#226 = ORIENTED_EDGE('',*,*,#227,.F.);
#227 = EDGE_CURVE('',#228,#228,#230,.T.);
#228 = VERTEX_POINT('',#229);
#229 = CARTESIAN_POINT('',(2.242990650276E-02,-0.816688917127,0.));
#230 = SURFACE_CURVE('',#231,(#236,#247),.PCURVE_S1.);
#231 = CIRCLE('',#232,2.242990650276E-02);
#232 = AXIS2_PLACEMENT_3D('',#233,#234,#235);
#233 = CARTESIAN_POINT('',(0.,-0.816688917127,0.));
#234 = DIRECTION('',(0.,-1.,0.));
#235 = DIRECTION('',(1.,0.,0.));
#236 = PCURVE('',#237,#242);
#237 = CYLINDRICAL_SURFACE('',#238,2.242990650276E-02);
#238 = AXIS2_PLACEMENT_3D('',#239,#240,#241);
#239 = CARTESIAN_POINT('',(0.,-0.816688917127,0.));
#240 = DIRECTION('',(-0.,-1.,-0.));
#241 = DIRECTION('',(0.,0.,1.));
#242 = DEFINITIONAL_REPRESENTATION('',(#243),#246);
#243 = B_SPLINE_CURVE_WITH_KNOTS('',1,(#244,#245),.UNSPECIFIED.,.F.,.F.,
  (2,2),(0.,6.28318530718),.PIECEWISE_BEZIER_KNOTS.);
#244 = CARTESIAN_POINT('',(4.712388980385,0.));
#245 = CARTESIAN_POINT('',(10.995574287564,0.));
#246 = ( GEOMETRIC_REPRESENTATION_CONTEXT(2) 
PARAMETRIC_REPRESENTATION_CONTEXT() REPRESENTATION_CONTEXT('2D SPACE',''
  ) );
#247 = PCURVE('',#248,#253);
#248 = PLANE('',#249);
#249 = AXIS2_PLACEMENT_3D('',#250,#251,#252);
#250 = CARTESIAN_POINT('',(0.,-0.816688917127,0.));
#251 = DIRECTION('',(0.,-1.,0.));
#252 = DIRECTION('',(1.,0.,0.));
#253 = DEFINITIONAL_REPRESENTATION('',(#254),#258);
#254 = CIRCLE('',#255,2.242990650276E-02);
#255 = AXIS2_PLACEMENT_2D('',#256,#257);
#256 = CARTESIAN_POINT('',(0.,0.));
#257 = DIRECTION('',(1.,0.));
#258 = ( GEOMETRIC_REPRESENTATION_CONTEXT(2) 
PARAMETRIC_REPRESENTATION_CONTEXT() REPRESENTATION_CONTEXT('2D SPACE',''
  ) );
#259 = ORIENTED_EDGE('',*,*,#260,.F.);
#260 = EDGE_CURVE('',#261,#228,#263,.T.);
#261 = VERTEX_POINT('',#262);
#262 = CARTESIAN_POINT('',(2.242990650276E-02,-0.758611480647,0.));
#263 = SEAM_CURVE('',#264,(#267,#273),.PCURVE_S1.);
#264 = B_SPLINE_CURVE_WITH_KNOTS('',1,(#265,#266),.UNSPECIFIED.,.F.,.F.,
  (2,2),(-3.683,0.),.PIECEWISE_BEZIER_KNOTS.);
#265 = CARTESIAN_POINT('',(2.242990650276E-02,-0.758611480647,
    -4.120306980566E-18));
#266 = CARTESIAN_POINT('',(2.242990650276E-02,-0.816688917127,
    -4.120306980566E-18));
#267 = PCURVE('',#237,#268);
#268 = DEFINITIONAL_REPRESENTATION('',(#269),#272);
#269 = B_SPLINE_CURVE_WITH_KNOTS('',1,(#270,#271),.UNSPECIFIED.,.F.,.F.,
  (2,2),(-3.683,0.),.PIECEWISE_BEZIER_KNOTS.);
#270 = CARTESIAN_POINT('',(4.712388980385,-5.807743648035E-02));
#271 = CARTESIAN_POINT('',(4.712388980385,0.));
#272 = ( GEOMETRIC_REPRESENTATION_CONTEXT(2) 
PARAMETRIC_REPRESENTATION_CONTEXT() REPRESENTATION_CONTEXT('2D SPACE',''
  ) );
#273 = PCURVE('',#237,#274);
#274 = DEFINITIONAL_REPRESENTATION('',(#275),#278);
#275 = B_SPLINE_CURVE_WITH_KNOTS('',1,(#276,#277),.UNSPECIFIED.,.F.,.F.,
  (2,2),(-3.683,0.),.PIECEWISE_BEZIER_KNOTS.);
#276 = CARTESIAN_POINT('',(10.995574287564,-5.807743648035E-02));
#277 = CARTESIAN_POINT('',(10.995574287564,0.));
#278 = ( GEOMETRIC_REPRESENTATION_CONTEXT(2) 
PARAMETRIC_REPRESENTATION_CONTEXT() REPRESENTATION_CONTEXT('2D SPACE',''
  ) );
#279 = ORIENTED_EDGE('',*,*,#280,.T.);
#280 = EDGE_CURVE('',#261,#261,#281,.T.);
#281 = SURFACE_CURVE('',#282,(#287,#293),.PCURVE_S1.);
#282 = CIRCLE('',#283,2.242990650276E-02);
#283 = AXIS2_PLACEMENT_3D('',#284,#285,#286);
#284 = CARTESIAN_POINT('',(0.,-0.758611480647,0.));
#285 = DIRECTION('',(0.,-1.,0.));
#286 = DIRECTION('',(1.,0.,0.));
#287 = PCURVE('',#237,#288);
#288 = DEFINITIONAL_REPRESENTATION('',(#289),#292);
#289 = B_SPLINE_CURVE_WITH_KNOTS('',1,(#290,#291),.UNSPECIFIED.,.F.,.F.,
  (2,2),(0.,6.28318530718),.PIECEWISE_BEZIER_KNOTS.);
#290 = CARTESIAN_POINT('',(4.712388980385,-5.807743648035E-02));
#291 = CARTESIAN_POINT('',(10.995574287564,-5.807743648035E-02));
#292 = ( GEOMETRIC_REPRESENTATION_CONTEXT(2) 
PARAMETRIC_REPRESENTATION_CONTEXT() REPRESENTATION_CONTEXT('2D SPACE',''
  ) );
#293 = PCURVE('',#112,#294);
#294 = DEFINITIONAL_REPRESENTATION('',(#295),#299);
#295 = CIRCLE('',#296,2.242990650276E-02);
#296 = AXIS2_PLACEMENT_2D('',#297,#298);
#297 = CARTESIAN_POINT('',(0.,0.));
#298 = DIRECTION('',(1.,0.));
#299 = ( GEOMETRIC_REPRESENTATION_CONTEXT(2) 
PARAMETRIC_REPRESENTATION_CONTEXT() REPRESENTATION_CONTEXT('2D SPACE',''
  ) );
#300 = ORIENTED_EDGE('',*,*,#260,.T.);
#301 = ADVANCED_FACE('',(#302,#305),#112,.T.);
#302 = FACE_BOUND('',#303,.T.);
#303 = EDGE_LOOP('',(#304));
#304 = ORIENTED_EDGE('',*,*,#280,.F.);
#305 = FACE_BOUND('',#306,.T.);
#306 = EDGE_LOOP('',(#307));
#307 = ORIENTED_EDGE('',*,*,#91,.T.);
#308 = ADVANCED_FACE('',(#309),#322,.T.);
#309 = FACE_BOUND('',#310,.T.);
#310 = EDGE_LOOP('',(#311,#344,#364,#385));
#311 = ORIENTED_EDGE('',*,*,#312,.F.);
#312 = EDGE_CURVE('',#313,#313,#315,.T.);
#313 = VERTEX_POINT('',#314);
#314 = CARTESIAN_POINT('',(0.109746328246,-0.899999998423,0.));
#315 = SURFACE_CURVE('',#316,(#321,#332),.PCURVE_S1.);
#316 = CIRCLE('',#317,0.109746328246);
#317 = AXIS2_PLACEMENT_3D('',#318,#319,#320);
#318 = CARTESIAN_POINT('',(0.,-0.899999998423,0.));
#319 = DIRECTION('',(0.,-1.,0.));
#320 = DIRECTION('',(1.,0.,0.));
#321 = PCURVE('',#322,#327);
#322 = CYLINDRICAL_SURFACE('',#323,0.109746328246);
#323 = AXIS2_PLACEMENT_3D('',#324,#325,#326);
#324 = CARTESIAN_POINT('',(0.,-0.899999998423,0.));
#325 = DIRECTION('',(-0.,-1.,-0.));
#326 = DIRECTION('',(0.,0.,1.));
#327 = DEFINITIONAL_REPRESENTATION('',(#328),#331);
#328 = B_SPLINE_CURVE_WITH_KNOTS('',1,(#329,#330),.UNSPECIFIED.,.F.,.F.,
  (2,2),(0.,6.28318530718),.PIECEWISE_BEZIER_KNOTS.);
#329 = CARTESIAN_POINT('',(4.712388980385,0.));
#330 = CARTESIAN_POINT('',(10.995574287564,0.));
#331 = ( GEOMETRIC_REPRESENTATION_CONTEXT(2) 
PARAMETRIC_REPRESENTATION_CONTEXT() REPRESENTATION_CONTEXT('2D SPACE',''
  ) );
#332 = PCURVE('',#333,#338);
#333 = PLANE('',#334);
#334 = AXIS2_PLACEMENT_3D('',#335,#336,#337);
#335 = CARTESIAN_POINT('',(0.,-0.899999998423,0.));
#336 = DIRECTION('',(0.,-1.,0.));
#337 = DIRECTION('',(1.,0.,0.));
#338 = DEFINITIONAL_REPRESENTATION('',(#339),#343);
#339 = CIRCLE('',#340,0.109746328246);
#340 = AXIS2_PLACEMENT_2D('',#341,#342);
#341 = CARTESIAN_POINT('',(0.,0.));
#342 = DIRECTION('',(1.,0.));
#343 = ( GEOMETRIC_REPRESENTATION_CONTEXT(2) 
PARAMETRIC_REPRESENTATION_CONTEXT() REPRESENTATION_CONTEXT('2D SPACE',''
  ) );
#344 = ORIENTED_EDGE('',*,*,#345,.F.);
#345 = EDGE_CURVE('',#346,#313,#348,.T.);
#346 = VERTEX_POINT('',#347);
#347 = CARTESIAN_POINT('',(0.109746328246,-0.816688917127,0.));
#348 = SEAM_CURVE('',#349,(#352,#358),.PCURVE_S1.);
#349 = B_SPLINE_CURVE_WITH_KNOTS('',1,(#350,#351),.UNSPECIFIED.,.F.,.F.,
  (2,2),(-5.2832,0.),.PIECEWISE_BEZIER_KNOTS.);
#350 = CARTESIAN_POINT('',(0.109746328246,-0.816688917127,
    -2.016007344063E-17));
#351 = CARTESIAN_POINT('',(0.109746328246,-0.899999998423,
    -2.016007344063E-17));
#352 = PCURVE('',#322,#353);
#353 = DEFINITIONAL_REPRESENTATION('',(#354),#357);
#354 = B_SPLINE_CURVE_WITH_KNOTS('',1,(#355,#356),.UNSPECIFIED.,.F.,.F.,
  (2,2),(-5.2832,0.),.PIECEWISE_BEZIER_KNOTS.);
#355 = CARTESIAN_POINT('',(4.712388980385,-8.331108129595E-02));
#356 = CARTESIAN_POINT('',(4.712388980385,0.));
#357 = ( GEOMETRIC_REPRESENTATION_CONTEXT(2) 
PARAMETRIC_REPRESENTATION_CONTEXT() REPRESENTATION_CONTEXT('2D SPACE',''
  ) );
#358 = PCURVE('',#322,#359);
#359 = DEFINITIONAL_REPRESENTATION('',(#360),#363);
#360 = B_SPLINE_CURVE_WITH_KNOTS('',1,(#361,#362),.UNSPECIFIED.,.F.,.F.,
  (2,2),(-5.2832,0.),.PIECEWISE_BEZIER_KNOTS.);
#361 = CARTESIAN_POINT('',(10.995574287564,-8.331108129595E-02));
#362 = CARTESIAN_POINT('',(10.995574287564,0.));
#363 = ( GEOMETRIC_REPRESENTATION_CONTEXT(2) 
PARAMETRIC_REPRESENTATION_CONTEXT() REPRESENTATION_CONTEXT('2D SPACE',''
  ) );
#364 = ORIENTED_EDGE('',*,*,#365,.T.);
#365 = EDGE_CURVE('',#346,#346,#366,.T.);
#366 = SURFACE_CURVE('',#367,(#372,#378),.PCURVE_S1.);
#367 = CIRCLE('',#368,0.109746328246);
#368 = AXIS2_PLACEMENT_3D('',#369,#370,#371);
#369 = CARTESIAN_POINT('',(0.,-0.816688917127,0.));
#370 = DIRECTION('',(0.,-1.,0.));
#371 = DIRECTION('',(1.,0.,0.));
#372 = PCURVE('',#322,#373);
#373 = DEFINITIONAL_REPRESENTATION('',(#374),#377);
#374 = B_SPLINE_CURVE_WITH_KNOTS('',1,(#375,#376),.UNSPECIFIED.,.F.,.F.,
  (2,2),(0.,6.28318530718),.PIECEWISE_BEZIER_KNOTS.);
#375 = CARTESIAN_POINT('',(4.712388980385,-8.331108129595E-02));
#376 = CARTESIAN_POINT('',(10.995574287564,-8.331108129595E-02));
#377 = ( GEOMETRIC_REPRESENTATION_CONTEXT(2) 
PARAMETRIC_REPRESENTATION_CONTEXT() REPRESENTATION_CONTEXT('2D SPACE',''
  ) );
#378 = PCURVE('',#248,#379);
#379 = DEFINITIONAL_REPRESENTATION('',(#380),#384);
#380 = CIRCLE('',#381,0.109746328246);
#381 = AXIS2_PLACEMENT_2D('',#382,#383);
#382 = CARTESIAN_POINT('',(0.,0.));
#383 = DIRECTION('',(1.,0.));
#384 = ( GEOMETRIC_REPRESENTATION_CONTEXT(2) 
PARAMETRIC_REPRESENTATION_CONTEXT() REPRESENTATION_CONTEXT('2D SPACE',''
  ) );
#385 = ORIENTED_EDGE('',*,*,#345,.T.);
#386 = ADVANCED_FACE('',(#387),#333,.T.);
#387 = FACE_BOUND('',#388,.T.);
#388 = EDGE_LOOP('',(#389));
#389 = ORIENTED_EDGE('',*,*,#312,.T.);
#390 = ADVANCED_FACE('',(#391,#394),#248,.F.);
#391 = FACE_BOUND('',#392,.T.);
#392 = EDGE_LOOP('',(#393));
#393 = ORIENTED_EDGE('',*,*,#227,.T.);
#394 = FACE_BOUND('',#395,.T.);
#395 = EDGE_LOOP('',(#396));
#396 = ORIENTED_EDGE('',*,*,#365,.F.);
#397 = ADVANCED_FACE('',(#398),#47,.T.);
#398 = FACE_BOUND('',#399,.T.);
#399 = EDGE_LOOP('',(#400,#428,#446,#447));
#400 = ORIENTED_EDGE('',*,*,#401,.F.);
#401 = EDGE_CURVE('',#402,#402,#404,.T.);
#402 = VERTEX_POINT('',#403);
#403 = CARTESIAN_POINT('',(-9.432576752498E-02,0.663684912055,
    -0.108144192067));
#404 = SURFACE_CURVE('',#405,(#410,#416),.PCURVE_S1.);
#405 = CIRCLE('',#406,9.432576752498E-02);
#406 = AXIS2_PLACEMENT_3D('',#407,#408,#409);
#407 = CARTESIAN_POINT('',(0.,0.663684912055,-0.108144192067));
#408 = DIRECTION('',(0.,1.,0.));
#409 = DIRECTION('',(-1.,0.,0.));
#410 = PCURVE('',#47,#411);
#411 = DEFINITIONAL_REPRESENTATION('',(#412),#415);
#412 = B_SPLINE_CURVE_WITH_KNOTS('',1,(#413,#414),.UNSPECIFIED.,.F.,.F.,
  (2,2),(0.,6.28318530718),.PIECEWISE_BEZIER_KNOTS.);
#413 = CARTESIAN_POINT('',(1.570796326795,0.));
#414 = CARTESIAN_POINT('',(7.853981633974,0.));
#415 = ( GEOMETRIC_REPRESENTATION_CONTEXT(2) 
PARAMETRIC_REPRESENTATION_CONTEXT() REPRESENTATION_CONTEXT('2D SPACE',''
  ) );
#416 = PCURVE('',#417,#422);
#417 = PLANE('',#418);
#418 = AXIS2_PLACEMENT_3D('',#419,#420,#421);
#419 = CARTESIAN_POINT('',(0.,0.663684912055,0.));
#420 = DIRECTION('',(0.,1.,0.));
#421 = DIRECTION('',(-1.,0.,0.));
#422 = DEFINITIONAL_REPRESENTATION('',(#423),#427);
#423 = CIRCLE('',#424,9.432576752498E-02);
#424 = AXIS2_PLACEMENT_2D('',#425,#426);
#425 = CARTESIAN_POINT('',(0.,-0.108144192067));
#426 = DIRECTION('',(1.,0.));
#427 = ( GEOMETRIC_REPRESENTATION_CONTEXT(2) 
PARAMETRIC_REPRESENTATION_CONTEXT() REPRESENTATION_CONTEXT('2D SPACE',''
  ) );
#428 = ORIENTED_EDGE('',*,*,#429,.F.);
#429 = EDGE_CURVE('',#22,#402,#430,.T.);
#430 = SEAM_CURVE('',#431,(#434,#440),.PCURVE_S1.);
#431 = B_SPLINE_CURVE_WITH_KNOTS('',1,(#432,#433),.UNSPECIFIED.,.F.,.F.,
  (2,2),(-6.096,0.),.PIECEWISE_BEZIER_KNOTS.);
#432 = CARTESIAN_POINT('',(-9.432576752498E-02,0.567556741329,
    -0.108144192067));
#433 = CARTESIAN_POINT('',(-9.432576752498E-02,0.663684912055,
    -0.108144192067));
#434 = PCURVE('',#47,#435);
#435 = DEFINITIONAL_REPRESENTATION('',(#436),#439);
#436 = B_SPLINE_CURVE_WITH_KNOTS('',1,(#437,#438),.UNSPECIFIED.,.F.,.F.,
  (2,2),(-6.096,0.),.PIECEWISE_BEZIER_KNOTS.);
#437 = CARTESIAN_POINT('',(1.570796326795,-9.61281707261E-02));
#438 = CARTESIAN_POINT('',(1.570796326795,0.));
#439 = ( GEOMETRIC_REPRESENTATION_CONTEXT(2) 
PARAMETRIC_REPRESENTATION_CONTEXT() REPRESENTATION_CONTEXT('2D SPACE',''
  ) );
#440 = PCURVE('',#47,#441);
#441 = DEFINITIONAL_REPRESENTATION('',(#442),#445);
#442 = B_SPLINE_CURVE_WITH_KNOTS('',1,(#443,#444),.UNSPECIFIED.,.F.,.F.,
  (2,2),(-6.096,0.),.PIECEWISE_BEZIER_KNOTS.);
#443 = CARTESIAN_POINT('',(7.853981633974,-9.61281707261E-02));
#444 = CARTESIAN_POINT('',(7.853981633974,0.));
#445 = ( GEOMETRIC_REPRESENTATION_CONTEXT(2) 
PARAMETRIC_REPRESENTATION_CONTEXT() REPRESENTATION_CONTEXT('2D SPACE',''
  ) );
#446 = ORIENTED_EDGE('',*,*,#21,.T.);
#447 = ORIENTED_EDGE('',*,*,#429,.T.);
#448 = ADVANCED_FACE('',(#449),#462,.T.);
#449 = FACE_BOUND('',#450,.T.);
#450 = EDGE_LOOP('',(#451,#484,#504,#525));
#451 = ORIENTED_EDGE('',*,*,#452,.F.);
#452 = EDGE_CURVE('',#453,#453,#455,.T.);
#453 = VERTEX_POINT('',#454);
#454 = CARTESIAN_POINT('',(-4.806408536305E-02,0.899999998423,
    -0.108144192067));
#455 = SURFACE_CURVE('',#456,(#461,#472),.PCURVE_S1.);
#456 = CIRCLE('',#457,4.806408536305E-02);
#457 = AXIS2_PLACEMENT_3D('',#458,#459,#460);
#458 = CARTESIAN_POINT('',(0.,0.899999998423,-0.108144192067));
#459 = DIRECTION('',(0.,1.,0.));
#460 = DIRECTION('',(-1.,0.,0.));
#461 = PCURVE('',#462,#467);
#462 = CYLINDRICAL_SURFACE('',#463,4.806408536305E-02);
#463 = AXIS2_PLACEMENT_3D('',#464,#465,#466);
#464 = CARTESIAN_POINT('',(0.,0.899999998423,-0.108144192067));
#465 = DIRECTION('',(-0.,1.,-0.));
#466 = DIRECTION('',(0.,0.,-1.));
#467 = DEFINITIONAL_REPRESENTATION('',(#468),#471);
#468 = B_SPLINE_CURVE_WITH_KNOTS('',1,(#469,#470),.UNSPECIFIED.,.F.,.F.,
  (2,2),(0.,6.28318530718),.PIECEWISE_BEZIER_KNOTS.);
#469 = CARTESIAN_POINT('',(1.570796326795,0.));
#470 = CARTESIAN_POINT('',(7.853981633974,0.));
#471 = ( GEOMETRIC_REPRESENTATION_CONTEXT(2) 
PARAMETRIC_REPRESENTATION_CONTEXT() REPRESENTATION_CONTEXT('2D SPACE',''
  ) );
#472 = PCURVE('',#473,#478);
#473 = PLANE('',#474);
#474 = AXIS2_PLACEMENT_3D('',#475,#476,#477);
#475 = CARTESIAN_POINT('',(0.,0.899999998423,-0.108144192067));
#476 = DIRECTION('',(0.,1.,0.));
#477 = DIRECTION('',(-1.,0.,0.));
#478 = DEFINITIONAL_REPRESENTATION('',(#479),#483);
#479 = CIRCLE('',#480,4.806408536305E-02);
#480 = AXIS2_PLACEMENT_2D('',#481,#482);
#481 = CARTESIAN_POINT('',(0.,0.));
#482 = DIRECTION('',(1.,0.));
#483 = ( GEOMETRIC_REPRESENTATION_CONTEXT(2) 
PARAMETRIC_REPRESENTATION_CONTEXT() REPRESENTATION_CONTEXT('2D SPACE',''
  ) );
#484 = ORIENTED_EDGE('',*,*,#485,.F.);
#485 = EDGE_CURVE('',#486,#453,#488,.T.);
#486 = VERTEX_POINT('',#487);
#487 = CARTESIAN_POINT('',(-4.806408536305E-02,0.663684912055,
    -0.108144192067));
#488 = SEAM_CURVE('',#489,(#492,#498),.PCURVE_S1.);
#489 = B_SPLINE_CURVE_WITH_KNOTS('',1,(#490,#491),.UNSPECIFIED.,.F.,.F.,
  (2,2),(-14.986,0.),.PIECEWISE_BEZIER_KNOTS.);
#490 = CARTESIAN_POINT('',(-4.806408536305E-02,0.663684912055,
    -0.108144192067));
#491 = CARTESIAN_POINT('',(-4.806408536305E-02,0.899999998423,
    -0.108144192067));
#492 = PCURVE('',#462,#493);
#493 = DEFINITIONAL_REPRESENTATION('',(#494),#497);
#494 = B_SPLINE_CURVE_WITH_KNOTS('',1,(#495,#496),.UNSPECIFIED.,.F.,.F.,
  (2,2),(-14.986,0.),.PIECEWISE_BEZIER_KNOTS.);
#495 = CARTESIAN_POINT('',(1.570796326795,-0.236315086368));
#496 = CARTESIAN_POINT('',(1.570796326795,0.));
#497 = ( GEOMETRIC_REPRESENTATION_CONTEXT(2) 
PARAMETRIC_REPRESENTATION_CONTEXT() REPRESENTATION_CONTEXT('2D SPACE',''
  ) );
#498 = PCURVE('',#462,#499);
#499 = DEFINITIONAL_REPRESENTATION('',(#500),#503);
#500 = B_SPLINE_CURVE_WITH_KNOTS('',1,(#501,#502),.UNSPECIFIED.,.F.,.F.,
  (2,2),(-14.986,0.),.PIECEWISE_BEZIER_KNOTS.);
#501 = CARTESIAN_POINT('',(7.853981633974,-0.236315086368));
#502 = CARTESIAN_POINT('',(7.853981633974,0.));
#503 = ( GEOMETRIC_REPRESENTATION_CONTEXT(2) 
PARAMETRIC_REPRESENTATION_CONTEXT() REPRESENTATION_CONTEXT('2D SPACE',''
  ) );
#504 = ORIENTED_EDGE('',*,*,#505,.T.);
#505 = EDGE_CURVE('',#486,#486,#506,.T.);
#506 = SURFACE_CURVE('',#507,(#512,#518),.PCURVE_S1.);
#507 = CIRCLE('',#508,4.806408536305E-02);
#508 = AXIS2_PLACEMENT_3D('',#509,#510,#511);
#509 = CARTESIAN_POINT('',(0.,0.663684912055,-0.108144192067));
#510 = DIRECTION('',(0.,1.,0.));
#511 = DIRECTION('',(-1.,0.,0.));
#512 = PCURVE('',#462,#513);
#513 = DEFINITIONAL_REPRESENTATION('',(#514),#517);
#514 = B_SPLINE_CURVE_WITH_KNOTS('',1,(#515,#516),.UNSPECIFIED.,.F.,.F.,
  (2,2),(0.,6.28318530718),.PIECEWISE_BEZIER_KNOTS.);
#515 = CARTESIAN_POINT('',(1.570796326795,-0.236315086368));
#516 = CARTESIAN_POINT('',(7.853981633974,-0.236315086368));
#517 = ( GEOMETRIC_REPRESENTATION_CONTEXT(2) 
PARAMETRIC_REPRESENTATION_CONTEXT() REPRESENTATION_CONTEXT('2D SPACE',''
  ) );
#518 = PCURVE('',#417,#519);
#519 = DEFINITIONAL_REPRESENTATION('',(#520),#524);
#520 = CIRCLE('',#521,4.806408536305E-02);
#521 = AXIS2_PLACEMENT_2D('',#522,#523);
#522 = CARTESIAN_POINT('',(0.,-0.108144192067));
#523 = DIRECTION('',(1.,0.));
#524 = ( GEOMETRIC_REPRESENTATION_CONTEXT(2) 
PARAMETRIC_REPRESENTATION_CONTEXT() REPRESENTATION_CONTEXT('2D SPACE',''
  ) );
#525 = ORIENTED_EDGE('',*,*,#485,.T.);
#526 = ADVANCED_FACE('',(#527),#473,.T.);
#527 = FACE_BOUND('',#528,.T.);
#528 = EDGE_LOOP('',(#529));
#529 = ORIENTED_EDGE('',*,*,#452,.T.);
#530 = ADVANCED_FACE('',(#531,#534),#417,.T.);
#531 = FACE_BOUND('',#532,.T.);
#532 = EDGE_LOOP('',(#533));
#533 = ORIENTED_EDGE('',*,*,#505,.F.);
#534 = FACE_BOUND('',#535,.T.);
#535 = EDGE_LOOP('',(#536));
#536 = ORIENTED_EDGE('',*,*,#401,.T.);
#537 = ( GEOMETRIC_REPRESENTATION_CONTEXT(3) 
GLOBAL_UNCERTAINTY_ASSIGNED_CONTEXT((#541)) GLOBAL_UNIT_ASSIGNED_CONTEXT
((#538,#539,#540)) REPRESENTATION_CONTEXT('Context #1',
  '3D Context with UNIT and UNCERTAINTY') );
#538 = ( LENGTH_UNIT() NAMED_UNIT(*) SI_UNIT(.MILLI.,.METRE.) );
#539 = ( NAMED_UNIT(*) PLANE_ANGLE_UNIT() SI_UNIT($,.RADIAN.) );
#540 = ( NAMED_UNIT(*) SI_UNIT($,.STERADIAN.) SOLID_ANGLE_UNIT() );
#541 = UNCERTAINTY_MEASURE_WITH_UNIT(LENGTH_MEASURE(2.E-07),#538,
  'distance_accuracy_value','confusion accuracy');
#542 = PRODUCT_RELATED_PRODUCT_CATEGORY('detail',$,(#7));
#543 = PRODUCT_CATEGORY_RELATIONSHIP('','',#544,#542);
#544 = PRODUCT_CATEGORY('part',$);
#545 = CC_DESIGN_PERSON_AND_ORGANIZATION_ASSIGNMENT(#546,#549,(#6,#5));
#546 = PERSON_AND_ORGANIZATION(#547,#548);
#547 = PERSON('IP172.17.0,root','','root',$,$,$);
#548 = ORGANIZATION('IP172.17.0','Unspecified','');
#549 = PERSON_AND_ORGANIZATION_ROLE('creator');
#550 = CC_DESIGN_PERSON_AND_ORGANIZATION_ASSIGNMENT(#546,#551,(#7));
#551 = PERSON_AND_ORGANIZATION_ROLE('design_owner');
#552 = CC_DESIGN_PERSON_AND_ORGANIZATION_ASSIGNMENT(#546,#553,(#6));
#553 = PERSON_AND_ORGANIZATION_ROLE('design_supplier');
#554 = CC_DESIGN_PERSON_AND_ORGANIZATION_ASSIGNMENT(#546,#555,(#556));
#555 = PERSON_AND_ORGANIZATION_ROLE('classification_officer');
#556 = SECURITY_CLASSIFICATION('','',#557);
#557 = SECURITY_CLASSIFICATION_LEVEL('unclassified');
#558 = CC_DESIGN_SECURITY_CLASSIFICATION(#556,(#6));
#559 = CC_DESIGN_DATE_AND_TIME_ASSIGNMENT(#560,#564,(#5));
#560 = DATE_AND_TIME(#561,#562);
#561 = CALENDAR_DATE(2024,1,10);
#562 = LOCAL_TIME(20,10,$,#563);
#563 = COORDINATED_UNIVERSAL_TIME_OFFSET(8,$,.AHEAD.);
#564 = DATE_TIME_ROLE('creation_date');
#565 = CC_DESIGN_DATE_AND_TIME_ASSIGNMENT(#560,#566,(#556));
#566 = DATE_TIME_ROLE('classification_date');
#567 = CC_DESIGN_APPROVAL(#568,(#6,#5,#556));
#568 = APPROVAL(#569,'');
#569 = APPROVAL_STATUS('not_yet_approved');
#570 = APPROVAL_PERSON_ORGANIZATION(#546,#568,#571);
#571 = APPROVAL_ROLE('approver');
#572 = APPROVAL_DATE_TIME(#560,#568);
ENDSEC;
END-ISO-10303-21;
