ISO-10303-21;
HEADER;
FILE_DESCRIPTION(('Open CASCADE Model'),'2;1');
FILE_NAME('Open CASCADE Shape Model','2024-10-01T20:14:17',('Author'),(
    'Open CASCADE'),'Open CASCADE STEP processor 7.8','Open CASCADE 7.8'
  ,'Unknown');
FILE_SCHEMA(('CONFIG_CONTROL_DESIGN'));
ENDSEC;
DATA;
#1 = APPLICATION_PROTOCOL_DEFINITION('international standard',
  'config_control_design',1994,#2);
#2 = APPLICATION_CONTEXT(
'configuration controlled 3D designs of mechanical parts and assemblies'
  );
#3 = SHAPE_DEFINITION_REPRESENTATION(#4,#10);
#4 = PRODUCT_DEFINITION_SHAPE('','',#5);
#5 = PRODUCT_DEFINITION('design','',#6,#9);
#6 = PRODUCT_DEFINITION_FORMATION_WITH_SPECIFIED_SOURCE('','',#7,
  .NOT_KNOWN.);
#7 = PRODUCT('Open CASCADE STEP translator 7.8 161',
  'Open CASCADE STEP translator 7.8 161','',(#8));
#8 = MECHANICAL_CONTEXT('',#2,'mechanical');
#9 = DESIGN_CONTEXT('',#2,'design');
#10 = ADVANCED_BREP_SHAPE_REPRESENTATION('',(#11,#15),#945);
#11 = AXIS2_PLACEMENT_3D('',#12,#13,#14);
#12 = CARTESIAN_POINT('',(0.,0.,0.));
#13 = DIRECTION('',(0.,0.,1.));
#14 = DIRECTION('',(1.,0.,-0.));
#15 = MANIFOLD_SOLID_BREP('',#16);
#16 = CLOSED_SHELL('',(#17,#181,#471,#520,#569,#617,#688,#737,#785,#856,
    #905,#932));
#17 = ADVANCED_FACE('',(#18),#33,.T.);
#18 = FACE_BOUND('',#19,.T.);
#19 = EDGE_LOOP('',(#20,#78,#105,#156));
#20 = ORIENTED_EDGE('',*,*,#21,.T.);
#21 = EDGE_CURVE('',#22,#24,#26,.T.);
#22 = VERTEX_POINT('',#23);
#23 = CARTESIAN_POINT('',(-0.863999999827,0.688499999862,
    -1.619999999676E-02));
#24 = VERTEX_POINT('',#25);
#25 = CARTESIAN_POINT('',(-0.89999999982,0.652499999869,
    -1.619999999676E-02));
#26 = SURFACE_CURVE('',#27,(#32,#66),.PCURVE_S1.);
#27 = CIRCLE('',#28,3.59999999928E-02);
#28 = AXIS2_PLACEMENT_3D('',#29,#30,#31);
#29 = CARTESIAN_POINT('',(-0.863999999827,0.652499999869,
    -1.619999999676E-02));
#30 = DIRECTION('',(0.,-0.,1.));
#31 = DIRECTION('',(0.,1.,0.));
#32 = PCURVE('',#33,#38);
#33 = CYLINDRICAL_SURFACE('',#34,3.59999999928E-02);
#34 = AXIS2_PLACEMENT_3D('',#35,#36,#37);
#35 = CARTESIAN_POINT('',(-0.863999999827,0.652499999869,
    1.619999999676E-02));
#36 = DIRECTION('',(-0.,-0.,1.));
#37 = DIRECTION('',(-1.,0.,0.));
#38 = DEFINITIONAL_REPRESENTATION('',(#39),#65);
#39 = B_SPLINE_CURVE_WITH_KNOTS('',3,(#40,#41,#42,#43,#44,#45,#46,#47,
    #48,#49,#50,#51,#52,#53,#54,#55,#56,#57,#58,#59,#60,#61,#62,#63,#64)
  ,.UNSPECIFIED.,.F.,.F.,(4,1,1,1,1,1,1,1,1,1,1,1,1,1,1,1,1,1,1,1,1,1,4)
  ,(0.,7.139983303613E-02,0.142799666072,0.214199499108,0.285599332145,
    0.356999165181,0.428398998217,0.499798831253,0.571198664289,
    0.642598497325,0.713998330361,0.785398163397,0.856797996434,
    0.92819782947,0.999597662506,1.070997495542,1.142397328578,
    1.213797161614,1.28519699465,1.356596827687,1.427996660723,
    1.499396493759,1.570796326795),.QUASI_UNIFORM_KNOTS.);
#40 = CARTESIAN_POINT('',(4.712388980385,-3.239999999352E-02));
#41 = CARTESIAN_POINT('',(4.73618892473,-3.239999999352E-02));
#42 = CARTESIAN_POINT('',(4.783788813421,-3.239999999352E-02));
#43 = CARTESIAN_POINT('',(4.855188646457,-3.239999999352E-02));
#44 = CARTESIAN_POINT('',(4.926588479493,-3.239999999352E-02));
#45 = CARTESIAN_POINT('',(4.997988312529,-3.239999999352E-02));
#46 = CARTESIAN_POINT('',(5.069388145565,-3.239999999352E-02));
#47 = CARTESIAN_POINT('',(5.140787978601,-3.239999999352E-02));
#48 = CARTESIAN_POINT('',(5.212187811638,-3.239999999352E-02));
#49 = CARTESIAN_POINT('',(5.283587644674,-3.239999999352E-02));
#50 = CARTESIAN_POINT('',(5.35498747771,-3.239999999352E-02));
#51 = CARTESIAN_POINT('',(5.426387310746,-3.239999999352E-02));
#52 = CARTESIAN_POINT('',(5.497787143782,-3.239999999352E-02));
#53 = CARTESIAN_POINT('',(5.569186976818,-3.239999999352E-02));
#54 = CARTESIAN_POINT('',(5.640586809854,-3.239999999352E-02));
#55 = CARTESIAN_POINT('',(5.711986642891,-3.239999999352E-02));
#56 = CARTESIAN_POINT('',(5.783386475927,-3.239999999352E-02));
#57 = CARTESIAN_POINT('',(5.854786308963,-3.239999999352E-02));
#58 = CARTESIAN_POINT('',(5.926186141999,-3.239999999352E-02));
#59 = CARTESIAN_POINT('',(5.997585975035,-3.239999999352E-02));
#60 = CARTESIAN_POINT('',(6.068985808071,-3.239999999352E-02));
#61 = CARTESIAN_POINT('',(6.140385641107,-3.239999999352E-02));
#62 = CARTESIAN_POINT('',(6.211785474143,-3.239999999352E-02));
#63 = CARTESIAN_POINT('',(6.259385362834,-3.239999999352E-02));
#64 = CARTESIAN_POINT('',(6.28318530718,-3.239999999352E-02));
#65 = ( GEOMETRIC_REPRESENTATION_CONTEXT(2) 
PARAMETRIC_REPRESENTATION_CONTEXT() REPRESENTATION_CONTEXT('2D SPACE',''
  ) );
#66 = PCURVE('',#67,#72);
#67 = PLANE('',#68);
#68 = AXIS2_PLACEMENT_3D('',#69,#70,#71);
#69 = CARTESIAN_POINT('',(1.110223024625E-16,9.436895709314E-16,
    -1.619999999676E-02));
#70 = DIRECTION('',(0.,0.,1.));
#71 = DIRECTION('',(1.,0.,-0.));
#72 = DEFINITIONAL_REPRESENTATION('',(#73),#77);
#73 = CIRCLE('',#74,3.59999999928E-02);
#74 = AXIS2_PLACEMENT_2D('',#75,#76);
#75 = CARTESIAN_POINT('',(-0.863999999827,0.652499999869));
#76 = DIRECTION('',(0.,1.));
#77 = ( GEOMETRIC_REPRESENTATION_CONTEXT(2) 
PARAMETRIC_REPRESENTATION_CONTEXT() REPRESENTATION_CONTEXT('2D SPACE',''
  ) );
#78 = ORIENTED_EDGE('',*,*,#79,.F.);
#79 = EDGE_CURVE('',#80,#24,#82,.T.);
#80 = VERTEX_POINT('',#81);
#81 = CARTESIAN_POINT('',(-0.89999999982,0.652499999869,
    1.619999999676E-02));
#82 = SURFACE_CURVE('',#83,(#87,#93),.PCURVE_S1.);
#83 = LINE('',#84,#85);
#84 = CARTESIAN_POINT('',(-0.89999999982,0.652499999869,
    1.619999999676E-02));
#85 = VECTOR('',#86,1.);
#86 = DIRECTION('',(0.,0.,-1.));
#87 = PCURVE('',#33,#88);
#88 = DEFINITIONAL_REPRESENTATION('',(#89),#92);
#89 = B_SPLINE_CURVE_WITH_KNOTS('',1,(#90,#91),.UNSPECIFIED.,.F.,.F.,(2,
    2),(0.,3.239999999352E-02),.PIECEWISE_BEZIER_KNOTS.);
#90 = CARTESIAN_POINT('',(6.28318530718,0.));
#91 = CARTESIAN_POINT('',(6.28318530718,-3.239999999352E-02));
#92 = ( GEOMETRIC_REPRESENTATION_CONTEXT(2) 
PARAMETRIC_REPRESENTATION_CONTEXT() REPRESENTATION_CONTEXT('2D SPACE',''
  ) );
#93 = PCURVE('',#94,#99);
#94 = PLANE('',#95);
#95 = AXIS2_PLACEMENT_3D('',#96,#97,#98);
#96 = CARTESIAN_POINT('',(-0.89999999982,0.133313924301,
    1.619999999676E-02));
#97 = DIRECTION('',(1.,1.224646799147E-16,0.));
#98 = DIRECTION('',(-1.224646799147E-16,1.,0.));
#99 = DEFINITIONAL_REPRESENTATION('',(#100),#104);
#100 = LINE('',#101,#102);
#101 = CARTESIAN_POINT('',(0.519186075568,0.));
#102 = VECTOR('',#103,1.);
#103 = DIRECTION('',(0.,-1.));
#104 = ( GEOMETRIC_REPRESENTATION_CONTEXT(2) 
PARAMETRIC_REPRESENTATION_CONTEXT() REPRESENTATION_CONTEXT('2D SPACE',''
  ) );
#105 = ORIENTED_EDGE('',*,*,#106,.F.);
#106 = EDGE_CURVE('',#107,#80,#109,.T.);
#107 = VERTEX_POINT('',#108);
#108 = CARTESIAN_POINT('',(-0.863999999827,0.688499999862,
    1.619999999676E-02));
#109 = SURFACE_CURVE('',#110,(#115,#144),.PCURVE_S1.);
#110 = CIRCLE('',#111,3.59999999928E-02);
#111 = AXIS2_PLACEMENT_3D('',#112,#113,#114);
#112 = CARTESIAN_POINT('',(-0.863999999827,0.652499999869,
    1.619999999676E-02));
#113 = DIRECTION('',(0.,-0.,1.));
#114 = DIRECTION('',(0.,1.,0.));
#115 = PCURVE('',#33,#116);
#116 = DEFINITIONAL_REPRESENTATION('',(#117),#143);
#117 = B_SPLINE_CURVE_WITH_KNOTS('',3,(#118,#119,#120,#121,#122,#123,
    #124,#125,#126,#127,#128,#129,#130,#131,#132,#133,#134,#135,#136,
    #137,#138,#139,#140,#141,#142),.UNSPECIFIED.,.F.,.F.,(4,1,1,1,1,1,1,
    1,1,1,1,1,1,1,1,1,1,1,1,1,1,1,4),(0.,7.139983303613E-02,
    0.142799666072,0.214199499108,0.285599332145,0.356999165181,
    0.428398998217,0.499798831253,0.571198664289,0.642598497325,
    0.713998330361,0.785398163397,0.856797996434,0.92819782947,
    0.999597662506,1.070997495542,1.142397328578,1.213797161614,
    1.28519699465,1.356596827687,1.427996660723,1.499396493759,
    1.570796326795),.QUASI_UNIFORM_KNOTS.);
#118 = CARTESIAN_POINT('',(4.712388980385,0.));
#119 = CARTESIAN_POINT('',(4.73618892473,0.));
#120 = CARTESIAN_POINT('',(4.783788813421,0.));
#121 = CARTESIAN_POINT('',(4.855188646457,0.));
#122 = CARTESIAN_POINT('',(4.926588479493,0.));
#123 = CARTESIAN_POINT('',(4.997988312529,0.));
#124 = CARTESIAN_POINT('',(5.069388145565,0.));
#125 = CARTESIAN_POINT('',(5.140787978601,0.));
#126 = CARTESIAN_POINT('',(5.212187811638,0.));
#127 = CARTESIAN_POINT('',(5.283587644674,0.));
#128 = CARTESIAN_POINT('',(5.35498747771,0.));
#129 = CARTESIAN_POINT('',(5.426387310746,0.));
#130 = CARTESIAN_POINT('',(5.497787143782,0.));
#131 = CARTESIAN_POINT('',(5.569186976818,0.));
#132 = CARTESIAN_POINT('',(5.640586809854,0.));
#133 = CARTESIAN_POINT('',(5.711986642891,0.));
#134 = CARTESIAN_POINT('',(5.783386475927,0.));
#135 = CARTESIAN_POINT('',(5.854786308963,0.));
#136 = CARTESIAN_POINT('',(5.926186141999,0.));
#137 = CARTESIAN_POINT('',(5.997585975035,0.));
#138 = CARTESIAN_POINT('',(6.068985808071,0.));
#139 = CARTESIAN_POINT('',(6.140385641107,0.));
#140 = CARTESIAN_POINT('',(6.211785474143,0.));
#141 = CARTESIAN_POINT('',(6.259385362834,0.));
#142 = CARTESIAN_POINT('',(6.28318530718,0.));
#143 = ( GEOMETRIC_REPRESENTATION_CONTEXT(2) 
PARAMETRIC_REPRESENTATION_CONTEXT() REPRESENTATION_CONTEXT('2D SPACE',''
  ) );
#144 = PCURVE('',#145,#150);
#145 = PLANE('',#146);
#146 = AXIS2_PLACEMENT_3D('',#147,#148,#149);
#147 = CARTESIAN_POINT('',(1.110223024625E-16,9.436895709314E-16,
    1.619999999676E-02));
#148 = DIRECTION('',(0.,0.,1.));
#149 = DIRECTION('',(1.,0.,-0.));
#150 = DEFINITIONAL_REPRESENTATION('',(#151),#155);
#151 = CIRCLE('',#152,3.59999999928E-02);
#152 = AXIS2_PLACEMENT_2D('',#153,#154);
#153 = CARTESIAN_POINT('',(-0.863999999827,0.652499999869));
#154 = DIRECTION('',(0.,1.));
#155 = ( GEOMETRIC_REPRESENTATION_CONTEXT(2) 
PARAMETRIC_REPRESENTATION_CONTEXT() REPRESENTATION_CONTEXT('2D SPACE',''
  ) );
#156 = ORIENTED_EDGE('',*,*,#157,.T.);
#157 = EDGE_CURVE('',#107,#22,#158,.T.);
#158 = SURFACE_CURVE('',#159,(#163,#169),.PCURVE_S1.);
#159 = LINE('',#160,#161);
#160 = CARTESIAN_POINT('',(-0.863999999827,0.688499999862,
    1.619999999676E-02));
#161 = VECTOR('',#162,1.);
#162 = DIRECTION('',(0.,0.,-1.));
#163 = PCURVE('',#33,#164);
#164 = DEFINITIONAL_REPRESENTATION('',(#165),#168);
#165 = B_SPLINE_CURVE_WITH_KNOTS('',1,(#166,#167),.UNSPECIFIED.,.F.,.F.,
  (2,2),(0.,3.239999999352E-02),.PIECEWISE_BEZIER_KNOTS.);
#166 = CARTESIAN_POINT('',(4.712388980385,0.));
#167 = CARTESIAN_POINT('',(4.712388980385,-3.239999999352E-02));
#168 = ( GEOMETRIC_REPRESENTATION_CONTEXT(2) 
PARAMETRIC_REPRESENTATION_CONTEXT() REPRESENTATION_CONTEXT('2D SPACE',''
  ) );
#169 = PCURVE('',#170,#175);
#170 = PLANE('',#171);
#171 = AXIS2_PLACEMENT_3D('',#172,#173,#174);
#172 = CARTESIAN_POINT('',(-0.287999999942,0.688499999862,
    1.619999999676E-02));
#173 = DIRECTION('',(0.,1.,0.));
#174 = DIRECTION('',(0.,-0.,1.));
#175 = DEFINITIONAL_REPRESENTATION('',(#176),#180);
#176 = LINE('',#177,#178);
#177 = CARTESIAN_POINT('',(0.,-0.575999999885));
#178 = VECTOR('',#179,1.);
#179 = DIRECTION('',(-1.,0.));
#180 = ( GEOMETRIC_REPRESENTATION_CONTEXT(2) 
PARAMETRIC_REPRESENTATION_CONTEXT() REPRESENTATION_CONTEXT('2D SPACE',''
  ) );
#181 = ADVANCED_FACE('',(#182),#145,.T.);
#182 = FACE_BOUND('',#183,.T.);
#183 = EDGE_LOOP('',(#184,#207,#235,#286,#314,#342,#370,#421,#449,#470)
  );
#184 = ORIENTED_EDGE('',*,*,#185,.T.);
#185 = EDGE_CURVE('',#80,#186,#188,.T.);
#186 = VERTEX_POINT('',#187);
#187 = CARTESIAN_POINT('',(-0.89999999982,-0.688499999862,
    1.619999999676E-02));
#188 = SURFACE_CURVE('',#189,(#193,#200),.PCURVE_S1.);
#189 = LINE('',#190,#191);
#190 = CARTESIAN_POINT('',(-0.89999999982,0.133313924301,
    1.619999999676E-02));
#191 = VECTOR('',#192,1.);
#192 = DIRECTION('',(1.224646799147E-16,-1.,0.));
#193 = PCURVE('',#145,#194);
#194 = DEFINITIONAL_REPRESENTATION('',(#195),#199);
#195 = LINE('',#196,#197);
#196 = CARTESIAN_POINT('',(-0.89999999982,0.133313924301));
#197 = VECTOR('',#198,1.);
#198 = DIRECTION('',(1.224646799147E-16,-1.));
#199 = ( GEOMETRIC_REPRESENTATION_CONTEXT(2) 
PARAMETRIC_REPRESENTATION_CONTEXT() REPRESENTATION_CONTEXT('2D SPACE',''
  ) );
#200 = PCURVE('',#94,#201);
#201 = DEFINITIONAL_REPRESENTATION('',(#202),#206);
#202 = LINE('',#203,#204);
#203 = CARTESIAN_POINT('',(0.,0.));
#204 = VECTOR('',#205,1.);
#205 = DIRECTION('',(-1.,0.));
#206 = ( GEOMETRIC_REPRESENTATION_CONTEXT(2) 
PARAMETRIC_REPRESENTATION_CONTEXT() REPRESENTATION_CONTEXT('2D SPACE',''
  ) );
#207 = ORIENTED_EDGE('',*,*,#208,.T.);
#208 = EDGE_CURVE('',#186,#209,#211,.T.);
#209 = VERTEX_POINT('',#210);
#210 = CARTESIAN_POINT('',(-0.650212658616,-0.688499999862,
    1.619999999676E-02));
#211 = SURFACE_CURVE('',#212,(#216,#223),.PCURVE_S1.);
#212 = LINE('',#213,#214);
#213 = CARTESIAN_POINT('',(-0.722212658602,-0.688499999862,
    1.619999999676E-02));
#214 = VECTOR('',#215,1.);
#215 = DIRECTION('',(1.,0.,0.));
#216 = PCURVE('',#145,#217);
#217 = DEFINITIONAL_REPRESENTATION('',(#218),#222);
#218 = LINE('',#219,#220);
#219 = CARTESIAN_POINT('',(-0.722212658602,-0.688499999862));
#220 = VECTOR('',#221,1.);
#221 = DIRECTION('',(1.,0.));
#222 = ( GEOMETRIC_REPRESENTATION_CONTEXT(2) 
PARAMETRIC_REPRESENTATION_CONTEXT() REPRESENTATION_CONTEXT('2D SPACE',''
  ) );
#223 = PCURVE('',#224,#229);
#224 = PLANE('',#225);
#225 = AXIS2_PLACEMENT_3D('',#226,#227,#228);
#226 = CARTESIAN_POINT('',(-0.722212658602,-0.688499999862,
    1.619999999676E-02));
#227 = DIRECTION('',(0.,1.,0.));
#228 = DIRECTION('',(0.,-0.,1.));
#229 = DEFINITIONAL_REPRESENTATION('',(#230),#234);
#230 = LINE('',#231,#232);
#231 = CARTESIAN_POINT('',(0.,0.));
#232 = VECTOR('',#233,1.);
#233 = DIRECTION('',(0.,1.));
#234 = ( GEOMETRIC_REPRESENTATION_CONTEXT(2) 
PARAMETRIC_REPRESENTATION_CONTEXT() REPRESENTATION_CONTEXT('2D SPACE',''
  ) );
#235 = ORIENTED_EDGE('',*,*,#236,.T.);
#236 = EDGE_CURVE('',#209,#237,#239,.T.);
#237 = VERTEX_POINT('',#238);
#238 = CARTESIAN_POINT('',(-0.390883117468,-0.429170458714,
    1.619999999676E-02));
#239 = SURFACE_CURVE('',#240,(#245,#252),.PCURVE_S1.);
#240 = CIRCLE('',#241,0.259329541088);
#241 = AXIS2_PLACEMENT_3D('',#242,#243,#244);
#242 = CARTESIAN_POINT('',(-0.650212658616,-0.429170458714,
    1.619999999676E-02));
#243 = DIRECTION('',(0.,0.,1.));
#244 = DIRECTION('',(4.816269280085E-17,-1.,0.));
#245 = PCURVE('',#145,#246);
#246 = DEFINITIONAL_REPRESENTATION('',(#247),#251);
#247 = CIRCLE('',#248,0.259329541088);
#248 = AXIS2_PLACEMENT_2D('',#249,#250);
#249 = CARTESIAN_POINT('',(-0.650212658616,-0.429170458714));
#250 = DIRECTION('',(4.816269280085E-17,-1.));
#251 = ( GEOMETRIC_REPRESENTATION_CONTEXT(2) 
PARAMETRIC_REPRESENTATION_CONTEXT() REPRESENTATION_CONTEXT('2D SPACE',''
  ) );
#252 = PCURVE('',#253,#258);
#253 = CYLINDRICAL_SURFACE('',#254,0.259329541088);
#254 = AXIS2_PLACEMENT_3D('',#255,#256,#257);
#255 = CARTESIAN_POINT('',(-0.650212658616,-0.429170458714,
    1.619999999676E-02));
#256 = DIRECTION('',(-0.,-0.,1.));
#257 = DIRECTION('',(-1.,0.,0.));
#258 = DEFINITIONAL_REPRESENTATION('',(#259),#285);
#259 = B_SPLINE_CURVE_WITH_KNOTS('',3,(#260,#261,#262,#263,#264,#265,
    #266,#267,#268,#269,#270,#271,#272,#273,#274,#275,#276,#277,#278,
    #279,#280,#281,#282,#283,#284),.UNSPECIFIED.,.F.,.F.,(4,1,1,1,1,1,1,
    1,1,1,1,1,1,1,1,1,1,1,1,1,1,1,4),(0.,7.139983303613E-02,
    0.142799666072,0.214199499108,0.285599332145,0.356999165181,
    0.428398998217,0.499798831253,0.571198664289,0.642598497325,
    0.713998330361,0.785398163397,0.856797996434,0.92819782947,
    0.999597662506,1.070997495542,1.142397328578,1.213797161614,
    1.28519699465,1.356596827687,1.427996660723,1.499396493759,
    1.570796326795),.QUASI_UNIFORM_KNOTS.);
#260 = CARTESIAN_POINT('',(1.570796326795,0.));
#261 = CARTESIAN_POINT('',(1.59459627114,0.));
#262 = CARTESIAN_POINT('',(1.642196159831,0.));
#263 = CARTESIAN_POINT('',(1.713595992867,0.));
#264 = CARTESIAN_POINT('',(1.784995825903,0.));
#265 = CARTESIAN_POINT('',(1.856395658939,0.));
#266 = CARTESIAN_POINT('',(1.927795491976,0.));
#267 = CARTESIAN_POINT('',(1.999195325012,0.));
#268 = CARTESIAN_POINT('',(2.070595158048,0.));
#269 = CARTESIAN_POINT('',(2.141994991084,0.));
#270 = CARTESIAN_POINT('',(2.21339482412,0.));
#271 = CARTESIAN_POINT('',(2.284794657156,0.));
#272 = CARTESIAN_POINT('',(2.356194490192,0.));
#273 = CARTESIAN_POINT('',(2.427594323228,0.));
#274 = CARTESIAN_POINT('',(2.498994156265,0.));
#275 = CARTESIAN_POINT('',(2.570393989301,0.));
#276 = CARTESIAN_POINT('',(2.641793822337,0.));
#277 = CARTESIAN_POINT('',(2.713193655373,0.));
#278 = CARTESIAN_POINT('',(2.784593488409,0.));
#279 = CARTESIAN_POINT('',(2.855993321445,0.));
#280 = CARTESIAN_POINT('',(2.927393154481,0.));
#281 = CARTESIAN_POINT('',(2.998792987518,0.));
#282 = CARTESIAN_POINT('',(3.070192820554,0.));
#283 = CARTESIAN_POINT('',(3.117792709244,0.));
#284 = CARTESIAN_POINT('',(3.14159265359,0.));
#285 = ( GEOMETRIC_REPRESENTATION_CONTEXT(2) 
PARAMETRIC_REPRESENTATION_CONTEXT() REPRESENTATION_CONTEXT('2D SPACE',''
  ) );
#286 = ORIENTED_EDGE('',*,*,#287,.F.);
#287 = EDGE_CURVE('',#288,#237,#290,.T.);
#288 = VERTEX_POINT('',#289);
#289 = CARTESIAN_POINT('',(-0.390883117468,-0.329733764843,
    1.619999999676E-02));
#290 = SURFACE_CURVE('',#291,(#295,#302),.PCURVE_S1.);
#291 = LINE('',#292,#293);
#292 = CARTESIAN_POINT('',(-0.390883117468,-0.509116882352,
    1.619999999676E-02));
#293 = VECTOR('',#294,1.);
#294 = DIRECTION('',(1.224646799147E-16,-1.,0.));
#295 = PCURVE('',#145,#296);
#296 = DEFINITIONAL_REPRESENTATION('',(#297),#301);
#297 = LINE('',#298,#299);
#298 = CARTESIAN_POINT('',(-0.390883117468,-0.509116882352));
#299 = VECTOR('',#300,1.);
#300 = DIRECTION('',(1.224646799147E-16,-1.));
#301 = ( GEOMETRIC_REPRESENTATION_CONTEXT(2) 
PARAMETRIC_REPRESENTATION_CONTEXT() REPRESENTATION_CONTEXT('2D SPACE',''
  ) );
#302 = PCURVE('',#303,#308);
#303 = PLANE('',#304);
#304 = AXIS2_PLACEMENT_3D('',#305,#306,#307);
#305 = CARTESIAN_POINT('',(-0.390883117468,-0.509116882352,
    1.619999999676E-02));
#306 = DIRECTION('',(1.,1.224646799147E-16,0.));
#307 = DIRECTION('',(-1.224646799147E-16,1.,0.));
#308 = DEFINITIONAL_REPRESENTATION('',(#309),#313);
#309 = LINE('',#310,#311);
#310 = CARTESIAN_POINT('',(0.,0.));
#311 = VECTOR('',#312,1.);
#312 = DIRECTION('',(-1.,0.));
#313 = ( GEOMETRIC_REPRESENTATION_CONTEXT(2) 
PARAMETRIC_REPRESENTATION_CONTEXT() REPRESENTATION_CONTEXT('2D SPACE',''
  ) );
#314 = ORIENTED_EDGE('',*,*,#315,.T.);
#315 = EDGE_CURVE('',#288,#316,#318,.T.);
#316 = VERTEX_POINT('',#317);
#317 = CARTESIAN_POINT('',(0.118233764885,0.17938311751,
    1.619999999676E-02));
#318 = SURFACE_CURVE('',#319,(#323,#330),.PCURVE_S1.);
#319 = LINE('',#320,#321);
#320 = CARTESIAN_POINT('',(-0.21679100237,-0.155641649745,
    1.619999999676E-02));
#321 = VECTOR('',#322,1.);
#322 = DIRECTION('',(0.707106781187,0.707106781187,0.));
#323 = PCURVE('',#145,#324);
#324 = DEFINITIONAL_REPRESENTATION('',(#325),#329);
#325 = LINE('',#326,#327);
#326 = CARTESIAN_POINT('',(-0.21679100237,-0.155641649745));
#327 = VECTOR('',#328,1.);
#328 = DIRECTION('',(0.707106781187,0.707106781187));
#329 = ( GEOMETRIC_REPRESENTATION_CONTEXT(2) 
PARAMETRIC_REPRESENTATION_CONTEXT() REPRESENTATION_CONTEXT('2D SPACE',''
  ) );
#330 = PCURVE('',#331,#336);
#331 = PLANE('',#332);
#332 = AXIS2_PLACEMENT_3D('',#333,#334,#335);
#333 = CARTESIAN_POINT('',(-0.21679100237,-0.155641649745,
    1.619999999676E-02));
#334 = DIRECTION('',(-0.707106781187,0.707106781187,0.));
#335 = DIRECTION('',(-0.707106781187,-0.707106781187,0.));
#336 = DEFINITIONAL_REPRESENTATION('',(#337),#341);
#337 = LINE('',#338,#339);
#338 = CARTESIAN_POINT('',(0.,0.));
#339 = VECTOR('',#340,1.);
#340 = DIRECTION('',(-1.,0.));
#341 = ( GEOMETRIC_REPRESENTATION_CONTEXT(2) 
PARAMETRIC_REPRESENTATION_CONTEXT() REPRESENTATION_CONTEXT('2D SPACE',''
  ) );
#342 = ORIENTED_EDGE('',*,*,#343,.T.);
#343 = EDGE_CURVE('',#316,#344,#346,.T.);
#344 = VERTEX_POINT('',#345);
#345 = CARTESIAN_POINT('',(0.759800441157,0.17938311751,
    1.619999999676E-02));
#346 = SURFACE_CURVE('',#347,(#351,#358),.PCURVE_S1.);
#347 = LINE('',#348,#349);
#348 = CARTESIAN_POINT('',(0.401587240934,0.17938311751,
    1.619999999676E-02));
#349 = VECTOR('',#350,1.);
#350 = DIRECTION('',(1.,0.,0.));
#351 = PCURVE('',#145,#352);
#352 = DEFINITIONAL_REPRESENTATION('',(#353),#357);
#353 = LINE('',#354,#355);
#354 = CARTESIAN_POINT('',(0.401587240934,0.17938311751));
#355 = VECTOR('',#356,1.);
#356 = DIRECTION('',(1.,0.));
#357 = ( GEOMETRIC_REPRESENTATION_CONTEXT(2) 
PARAMETRIC_REPRESENTATION_CONTEXT() REPRESENTATION_CONTEXT('2D SPACE',''
  ) );
#358 = PCURVE('',#359,#364);
#359 = PLANE('',#360);
#360 = AXIS2_PLACEMENT_3D('',#361,#362,#363);
#361 = CARTESIAN_POINT('',(0.401587240934,0.17938311751,
    1.619999999676E-02));
#362 = DIRECTION('',(0.,1.,0.));
#363 = DIRECTION('',(0.,-0.,1.));
#364 = DEFINITIONAL_REPRESENTATION('',(#365),#369);
#365 = LINE('',#366,#367);
#366 = CARTESIAN_POINT('',(0.,0.));
#367 = VECTOR('',#368,1.);
#368 = DIRECTION('',(0.,1.));
#369 = ( GEOMETRIC_REPRESENTATION_CONTEXT(2) 
PARAMETRIC_REPRESENTATION_CONTEXT() REPRESENTATION_CONTEXT('2D SPACE',''
  ) );
#370 = ORIENTED_EDGE('',*,*,#371,.T.);
#371 = EDGE_CURVE('',#344,#372,#374,.T.);
#372 = VERTEX_POINT('',#373);
#373 = CARTESIAN_POINT('',(0.89999999982,0.319582676173,
    1.619999999676E-02));
#374 = SURFACE_CURVE('',#375,(#380,#387),.PCURVE_S1.);
#375 = CIRCLE('',#376,0.140199558632);
#376 = AXIS2_PLACEMENT_3D('',#377,#378,#379);
#377 = CARTESIAN_POINT('',(0.759800441157,0.319582676173,
    1.619999999676E-02));
#378 = DIRECTION('',(0.,0.,1.));
#379 = DIRECTION('',(0.,-1.,0.));
#380 = PCURVE('',#145,#381);
#381 = DEFINITIONAL_REPRESENTATION('',(#382),#386);
#382 = CIRCLE('',#383,0.140199558632);
#383 = AXIS2_PLACEMENT_2D('',#384,#385);
#384 = CARTESIAN_POINT('',(0.759800441157,0.319582676173));
#385 = DIRECTION('',(0.,-1.));
#386 = ( GEOMETRIC_REPRESENTATION_CONTEXT(2) 
PARAMETRIC_REPRESENTATION_CONTEXT() REPRESENTATION_CONTEXT('2D SPACE',''
  ) );
#387 = PCURVE('',#388,#393);
#388 = CYLINDRICAL_SURFACE('',#389,0.140199558632);
#389 = AXIS2_PLACEMENT_3D('',#390,#391,#392);
#390 = CARTESIAN_POINT('',(0.759800441157,0.319582676173,
    1.619999999676E-02));
#391 = DIRECTION('',(-0.,-0.,1.));
#392 = DIRECTION('',(-1.,0.,0.));
#393 = DEFINITIONAL_REPRESENTATION('',(#394),#420);
#394 = B_SPLINE_CURVE_WITH_KNOTS('',3,(#395,#396,#397,#398,#399,#400,
    #401,#402,#403,#404,#405,#406,#407,#408,#409,#410,#411,#412,#413,
    #414,#415,#416,#417,#418,#419),.UNSPECIFIED.,.F.,.F.,(4,1,1,1,1,1,1,
    1,1,1,1,1,1,1,1,1,1,1,1,1,1,1,4),(0.,7.139983303613E-02,
    0.142799666072,0.214199499108,0.285599332145,0.356999165181,
    0.428398998217,0.499798831253,0.571198664289,0.642598497325,
    0.713998330361,0.785398163397,0.856797996434,0.92819782947,
    0.999597662506,1.070997495542,1.142397328578,1.213797161614,
    1.28519699465,1.356596827687,1.427996660723,1.499396493759,
    1.570796326795),.QUASI_UNIFORM_KNOTS.);
#395 = CARTESIAN_POINT('',(1.570796326795,0.));
#396 = CARTESIAN_POINT('',(1.59459627114,0.));
#397 = CARTESIAN_POINT('',(1.642196159831,0.));
#398 = CARTESIAN_POINT('',(1.713595992867,0.));
#399 = CARTESIAN_POINT('',(1.784995825903,0.));
#400 = CARTESIAN_POINT('',(1.856395658939,0.));
#401 = CARTESIAN_POINT('',(1.927795491976,0.));
#402 = CARTESIAN_POINT('',(1.999195325012,0.));
#403 = CARTESIAN_POINT('',(2.070595158048,0.));
#404 = CARTESIAN_POINT('',(2.141994991084,0.));
#405 = CARTESIAN_POINT('',(2.21339482412,0.));
#406 = CARTESIAN_POINT('',(2.284794657156,0.));
#407 = CARTESIAN_POINT('',(2.356194490192,0.));
#408 = CARTESIAN_POINT('',(2.427594323228,0.));
#409 = CARTESIAN_POINT('',(2.498994156265,0.));
#410 = CARTESIAN_POINT('',(2.570393989301,0.));
#411 = CARTESIAN_POINT('',(2.641793822337,0.));
#412 = CARTESIAN_POINT('',(2.713193655373,0.));
#413 = CARTESIAN_POINT('',(2.784593488409,0.));
#414 = CARTESIAN_POINT('',(2.855993321445,0.));
#415 = CARTESIAN_POINT('',(2.927393154481,0.));
#416 = CARTESIAN_POINT('',(2.998792987518,0.));
#417 = CARTESIAN_POINT('',(3.070192820554,0.));
#418 = CARTESIAN_POINT('',(3.117792709244,0.));
#419 = CARTESIAN_POINT('',(3.14159265359,0.));
#420 = ( GEOMETRIC_REPRESENTATION_CONTEXT(2) 
PARAMETRIC_REPRESENTATION_CONTEXT() REPRESENTATION_CONTEXT('2D SPACE',''
  ) );
#421 = ORIENTED_EDGE('',*,*,#422,.F.);
#422 = EDGE_CURVE('',#423,#372,#425,.T.);
#423 = VERTEX_POINT('',#424);
#424 = CARTESIAN_POINT('',(0.89999999982,0.688499999862,
    1.619999999676E-02));
#425 = SURFACE_CURVE('',#426,(#430,#437),.PCURVE_S1.);
#426 = LINE('',#427,#428);
#427 = CARTESIAN_POINT('',(0.89999999982,0.340878722589,
    1.619999999676E-02));
#428 = VECTOR('',#429,1.);
#429 = DIRECTION('',(1.224646799147E-16,-1.,0.));
#430 = PCURVE('',#145,#431);
#431 = DEFINITIONAL_REPRESENTATION('',(#432),#436);
#432 = LINE('',#433,#434);
#433 = CARTESIAN_POINT('',(0.89999999982,0.340878722589));
#434 = VECTOR('',#435,1.);
#435 = DIRECTION('',(1.224646799147E-16,-1.));
#436 = ( GEOMETRIC_REPRESENTATION_CONTEXT(2) 
PARAMETRIC_REPRESENTATION_CONTEXT() REPRESENTATION_CONTEXT('2D SPACE',''
  ) );
#437 = PCURVE('',#438,#443);
#438 = PLANE('',#439);
#439 = AXIS2_PLACEMENT_3D('',#440,#441,#442);
#440 = CARTESIAN_POINT('',(0.89999999982,0.340878722589,
    1.619999999676E-02));
#441 = DIRECTION('',(1.,1.224646799147E-16,0.));
#442 = DIRECTION('',(-1.224646799147E-16,1.,0.));
#443 = DEFINITIONAL_REPRESENTATION('',(#444),#448);
#444 = LINE('',#445,#446);
#445 = CARTESIAN_POINT('',(0.,0.));
#446 = VECTOR('',#447,1.);
#447 = DIRECTION('',(-1.,0.));
#448 = ( GEOMETRIC_REPRESENTATION_CONTEXT(2) 
PARAMETRIC_REPRESENTATION_CONTEXT() REPRESENTATION_CONTEXT('2D SPACE',''
  ) );
#449 = ORIENTED_EDGE('',*,*,#450,.F.);
#450 = EDGE_CURVE('',#107,#423,#451,.T.);
#451 = SURFACE_CURVE('',#452,(#456,#463),.PCURVE_S1.);
#452 = LINE('',#453,#454);
#453 = CARTESIAN_POINT('',(-0.287999999942,0.688499999862,
    1.619999999676E-02));
#454 = VECTOR('',#455,1.);
#455 = DIRECTION('',(1.,0.,0.));
#456 = PCURVE('',#145,#457);
#457 = DEFINITIONAL_REPRESENTATION('',(#458),#462);
#458 = LINE('',#459,#460);
#459 = CARTESIAN_POINT('',(-0.287999999942,0.688499999862));
#460 = VECTOR('',#461,1.);
#461 = DIRECTION('',(1.,0.));
#462 = ( GEOMETRIC_REPRESENTATION_CONTEXT(2) 
PARAMETRIC_REPRESENTATION_CONTEXT() REPRESENTATION_CONTEXT('2D SPACE',''
  ) );
#463 = PCURVE('',#170,#464);
#464 = DEFINITIONAL_REPRESENTATION('',(#465),#469);
#465 = LINE('',#466,#467);
#466 = CARTESIAN_POINT('',(0.,0.));
#467 = VECTOR('',#468,1.);
#468 = DIRECTION('',(0.,1.));
#469 = ( GEOMETRIC_REPRESENTATION_CONTEXT(2) 
PARAMETRIC_REPRESENTATION_CONTEXT() REPRESENTATION_CONTEXT('2D SPACE',''
  ) );
#470 = ORIENTED_EDGE('',*,*,#106,.T.);
#471 = ADVANCED_FACE('',(#472),#170,.T.);
#472 = FACE_BOUND('',#473,.T.);
#473 = EDGE_LOOP('',(#474,#497,#498,#499));
#474 = ORIENTED_EDGE('',*,*,#475,.F.);
#475 = EDGE_CURVE('',#22,#476,#478,.T.);
#476 = VERTEX_POINT('',#477);
#477 = CARTESIAN_POINT('',(0.89999999982,0.688499999862,
    -1.619999999676E-02));
#478 = SURFACE_CURVE('',#479,(#483,#490),.PCURVE_S1.);
#479 = LINE('',#480,#481);
#480 = CARTESIAN_POINT('',(-0.287999999942,0.688499999862,
    -1.619999999676E-02));
#481 = VECTOR('',#482,1.);
#482 = DIRECTION('',(1.,0.,0.));
#483 = PCURVE('',#170,#484);
#484 = DEFINITIONAL_REPRESENTATION('',(#485),#489);
#485 = LINE('',#486,#487);
#486 = CARTESIAN_POINT('',(-3.239999999352E-02,0.));
#487 = VECTOR('',#488,1.);
#488 = DIRECTION('',(0.,1.));
#489 = ( GEOMETRIC_REPRESENTATION_CONTEXT(2) 
PARAMETRIC_REPRESENTATION_CONTEXT() REPRESENTATION_CONTEXT('2D SPACE',''
  ) );
#490 = PCURVE('',#67,#491);
#491 = DEFINITIONAL_REPRESENTATION('',(#492),#496);
#492 = LINE('',#493,#494);
#493 = CARTESIAN_POINT('',(-0.287999999942,0.688499999862));
#494 = VECTOR('',#495,1.);
#495 = DIRECTION('',(1.,0.));
#496 = ( GEOMETRIC_REPRESENTATION_CONTEXT(2) 
PARAMETRIC_REPRESENTATION_CONTEXT() REPRESENTATION_CONTEXT('2D SPACE',''
  ) );
#497 = ORIENTED_EDGE('',*,*,#157,.F.);
#498 = ORIENTED_EDGE('',*,*,#450,.T.);
#499 = ORIENTED_EDGE('',*,*,#500,.T.);
#500 = EDGE_CURVE('',#423,#476,#501,.T.);
#501 = SURFACE_CURVE('',#502,(#506,#513),.PCURVE_S1.);
#502 = LINE('',#503,#504);
#503 = CARTESIAN_POINT('',(0.89999999982,0.688499999862,
    1.619999999676E-02));
#504 = VECTOR('',#505,1.);
#505 = DIRECTION('',(0.,0.,-1.));
#506 = PCURVE('',#170,#507);
#507 = DEFINITIONAL_REPRESENTATION('',(#508),#512);
#508 = LINE('',#509,#510);
#509 = CARTESIAN_POINT('',(0.,1.187999999762));
#510 = VECTOR('',#511,1.);
#511 = DIRECTION('',(-1.,0.));
#512 = ( GEOMETRIC_REPRESENTATION_CONTEXT(2) 
PARAMETRIC_REPRESENTATION_CONTEXT() REPRESENTATION_CONTEXT('2D SPACE',''
  ) );
#513 = PCURVE('',#438,#514);
#514 = DEFINITIONAL_REPRESENTATION('',(#515),#519);
#515 = LINE('',#516,#517);
#516 = CARTESIAN_POINT('',(0.347621277273,0.));
#517 = VECTOR('',#518,1.);
#518 = DIRECTION('',(0.,-1.));
#519 = ( GEOMETRIC_REPRESENTATION_CONTEXT(2) 
PARAMETRIC_REPRESENTATION_CONTEXT() REPRESENTATION_CONTEXT('2D SPACE',''
  ) );
#520 = ADVANCED_FACE('',(#521),#94,.F.);
#521 = FACE_BOUND('',#522,.T.);
#522 = EDGE_LOOP('',(#523,#546,#567,#568));
#523 = ORIENTED_EDGE('',*,*,#524,.T.);
#524 = EDGE_CURVE('',#24,#525,#527,.T.);
#525 = VERTEX_POINT('',#526);
#526 = CARTESIAN_POINT('',(-0.89999999982,-0.688499999862,
    -1.619999999676E-02));
#527 = SURFACE_CURVE('',#528,(#532,#539),.PCURVE_S1.);
#528 = LINE('',#529,#530);
#529 = CARTESIAN_POINT('',(-0.89999999982,0.133313924301,
    -1.619999999676E-02));
#530 = VECTOR('',#531,1.);
#531 = DIRECTION('',(1.224646799147E-16,-1.,0.));
#532 = PCURVE('',#94,#533);
#533 = DEFINITIONAL_REPRESENTATION('',(#534),#538);
#534 = LINE('',#535,#536);
#535 = CARTESIAN_POINT('',(0.,-3.239999999352E-02));
#536 = VECTOR('',#537,1.);
#537 = DIRECTION('',(-1.,0.));
#538 = ( GEOMETRIC_REPRESENTATION_CONTEXT(2) 
PARAMETRIC_REPRESENTATION_CONTEXT() REPRESENTATION_CONTEXT('2D SPACE',''
  ) );
#539 = PCURVE('',#67,#540);
#540 = DEFINITIONAL_REPRESENTATION('',(#541),#545);
#541 = LINE('',#542,#543);
#542 = CARTESIAN_POINT('',(-0.89999999982,0.133313924301));
#543 = VECTOR('',#544,1.);
#544 = DIRECTION('',(1.224646799147E-16,-1.));
#545 = ( GEOMETRIC_REPRESENTATION_CONTEXT(2) 
PARAMETRIC_REPRESENTATION_CONTEXT() REPRESENTATION_CONTEXT('2D SPACE',''
  ) );
#546 = ORIENTED_EDGE('',*,*,#547,.F.);
#547 = EDGE_CURVE('',#186,#525,#548,.T.);
#548 = SURFACE_CURVE('',#549,(#553,#560),.PCURVE_S1.);
#549 = LINE('',#550,#551);
#550 = CARTESIAN_POINT('',(-0.89999999982,-0.688499999862,
    1.619999999676E-02));
#551 = VECTOR('',#552,1.);
#552 = DIRECTION('',(0.,0.,-1.));
#553 = PCURVE('',#94,#554);
#554 = DEFINITIONAL_REPRESENTATION('',(#555),#559);
#555 = LINE('',#556,#557);
#556 = CARTESIAN_POINT('',(-0.821813924164,0.));
#557 = VECTOR('',#558,1.);
#558 = DIRECTION('',(0.,-1.));
#559 = ( GEOMETRIC_REPRESENTATION_CONTEXT(2) 
PARAMETRIC_REPRESENTATION_CONTEXT() REPRESENTATION_CONTEXT('2D SPACE',''
  ) );
#560 = PCURVE('',#224,#561);
#561 = DEFINITIONAL_REPRESENTATION('',(#562),#566);
#562 = LINE('',#563,#564);
#563 = CARTESIAN_POINT('',(0.,-0.177787341218));
#564 = VECTOR('',#565,1.);
#565 = DIRECTION('',(-1.,0.));
#566 = ( GEOMETRIC_REPRESENTATION_CONTEXT(2) 
PARAMETRIC_REPRESENTATION_CONTEXT() REPRESENTATION_CONTEXT('2D SPACE',''
  ) );
#567 = ORIENTED_EDGE('',*,*,#185,.F.);
#568 = ORIENTED_EDGE('',*,*,#79,.T.);
#569 = ADVANCED_FACE('',(#570),#224,.F.);
#570 = FACE_BOUND('',#571,.T.);
#571 = EDGE_LOOP('',(#572,#595,#615,#616));
#572 = ORIENTED_EDGE('',*,*,#573,.T.);
#573 = EDGE_CURVE('',#525,#574,#576,.T.);
#574 = VERTEX_POINT('',#575);
#575 = CARTESIAN_POINT('',(-0.650212658616,-0.688499999862,
    -1.619999999676E-02));
#576 = SURFACE_CURVE('',#577,(#581,#588),.PCURVE_S1.);
#577 = LINE('',#578,#579);
#578 = CARTESIAN_POINT('',(-0.722212658602,-0.688499999862,
    -1.619999999676E-02));
#579 = VECTOR('',#580,1.);
#580 = DIRECTION('',(1.,0.,0.));
#581 = PCURVE('',#224,#582);
#582 = DEFINITIONAL_REPRESENTATION('',(#583),#587);
#583 = LINE('',#584,#585);
#584 = CARTESIAN_POINT('',(-3.239999999352E-02,0.));
#585 = VECTOR('',#586,1.);
#586 = DIRECTION('',(0.,1.));
#587 = ( GEOMETRIC_REPRESENTATION_CONTEXT(2) 
PARAMETRIC_REPRESENTATION_CONTEXT() REPRESENTATION_CONTEXT('2D SPACE',''
  ) );
#588 = PCURVE('',#67,#589);
#589 = DEFINITIONAL_REPRESENTATION('',(#590),#594);
#590 = LINE('',#591,#592);
#591 = CARTESIAN_POINT('',(-0.722212658602,-0.688499999862));
#592 = VECTOR('',#593,1.);
#593 = DIRECTION('',(1.,0.));
#594 = ( GEOMETRIC_REPRESENTATION_CONTEXT(2) 
PARAMETRIC_REPRESENTATION_CONTEXT() REPRESENTATION_CONTEXT('2D SPACE',''
  ) );
#595 = ORIENTED_EDGE('',*,*,#596,.F.);
#596 = EDGE_CURVE('',#209,#574,#597,.T.);
#597 = SURFACE_CURVE('',#598,(#602,#609),.PCURVE_S1.);
#598 = LINE('',#599,#600);
#599 = CARTESIAN_POINT('',(-0.650212658616,-0.688499999862,
    1.619999999676E-02));
#600 = VECTOR('',#601,1.);
#601 = DIRECTION('',(0.,0.,-1.));
#602 = PCURVE('',#224,#603);
#603 = DEFINITIONAL_REPRESENTATION('',(#604),#608);
#604 = LINE('',#605,#606);
#605 = CARTESIAN_POINT('',(0.,7.19999999856E-02));
#606 = VECTOR('',#607,1.);
#607 = DIRECTION('',(-1.,0.));
#608 = ( GEOMETRIC_REPRESENTATION_CONTEXT(2) 
PARAMETRIC_REPRESENTATION_CONTEXT() REPRESENTATION_CONTEXT('2D SPACE',''
  ) );
#609 = PCURVE('',#253,#610);
#610 = DEFINITIONAL_REPRESENTATION('',(#611),#614);
#611 = B_SPLINE_CURVE_WITH_KNOTS('',1,(#612,#613),.UNSPECIFIED.,.F.,.F.,
  (2,2),(0.,3.239999999352E-02),.PIECEWISE_BEZIER_KNOTS.);
#612 = CARTESIAN_POINT('',(1.570796326795,0.));
#613 = CARTESIAN_POINT('',(1.570796326795,-3.239999999352E-02));
#614 = ( GEOMETRIC_REPRESENTATION_CONTEXT(2) 
PARAMETRIC_REPRESENTATION_CONTEXT() REPRESENTATION_CONTEXT('2D SPACE',''
  ) );
#615 = ORIENTED_EDGE('',*,*,#208,.F.);
#616 = ORIENTED_EDGE('',*,*,#547,.T.);
#617 = ADVANCED_FACE('',(#618),#253,.T.);
#618 = FACE_BOUND('',#619,.T.);
#619 = EDGE_LOOP('',(#620,#666,#686,#687));
#620 = ORIENTED_EDGE('',*,*,#621,.T.);
#621 = EDGE_CURVE('',#574,#622,#624,.T.);
#622 = VERTEX_POINT('',#623);
#623 = CARTESIAN_POINT('',(-0.390883117468,-0.429170458714,
    -1.619999999676E-02));
#624 = SURFACE_CURVE('',#625,(#630,#659),.PCURVE_S1.);
#625 = CIRCLE('',#626,0.259329541088);
#626 = AXIS2_PLACEMENT_3D('',#627,#628,#629);
#627 = CARTESIAN_POINT('',(-0.650212658616,-0.429170458714,
    -1.619999999676E-02));
#628 = DIRECTION('',(0.,0.,1.));
#629 = DIRECTION('',(4.816269280085E-17,-1.,0.));
#630 = PCURVE('',#253,#631);
#631 = DEFINITIONAL_REPRESENTATION('',(#632),#658);
#632 = B_SPLINE_CURVE_WITH_KNOTS('',3,(#633,#634,#635,#636,#637,#638,
    #639,#640,#641,#642,#643,#644,#645,#646,#647,#648,#649,#650,#651,
    #652,#653,#654,#655,#656,#657),.UNSPECIFIED.,.F.,.F.,(4,1,1,1,1,1,1,
    1,1,1,1,1,1,1,1,1,1,1,1,1,1,1,4),(0.,7.139983303613E-02,
    0.142799666072,0.214199499108,0.285599332145,0.356999165181,
    0.428398998217,0.499798831253,0.571198664289,0.642598497325,
    0.713998330361,0.785398163397,0.856797996434,0.92819782947,
    0.999597662506,1.070997495542,1.142397328578,1.213797161614,
    1.28519699465,1.356596827687,1.427996660723,1.499396493759,
    1.570796326795),.QUASI_UNIFORM_KNOTS.);
#633 = CARTESIAN_POINT('',(1.570796326795,-3.239999999352E-02));
#634 = CARTESIAN_POINT('',(1.59459627114,-3.239999999352E-02));
#635 = CARTESIAN_POINT('',(1.642196159831,-3.239999999352E-02));
#636 = CARTESIAN_POINT('',(1.713595992867,-3.239999999352E-02));
#637 = CARTESIAN_POINT('',(1.784995825903,-3.239999999352E-02));
#638 = CARTESIAN_POINT('',(1.856395658939,-3.239999999352E-02));
#639 = CARTESIAN_POINT('',(1.927795491976,-3.239999999352E-02));
#640 = CARTESIAN_POINT('',(1.999195325012,-3.239999999352E-02));
#641 = CARTESIAN_POINT('',(2.070595158048,-3.239999999352E-02));
#642 = CARTESIAN_POINT('',(2.141994991084,-3.239999999352E-02));
#643 = CARTESIAN_POINT('',(2.21339482412,-3.239999999352E-02));
#644 = CARTESIAN_POINT('',(2.284794657156,-3.239999999352E-02));
#645 = CARTESIAN_POINT('',(2.356194490192,-3.239999999352E-02));
#646 = CARTESIAN_POINT('',(2.427594323228,-3.239999999352E-02));
#647 = CARTESIAN_POINT('',(2.498994156265,-3.239999999352E-02));
#648 = CARTESIAN_POINT('',(2.570393989301,-3.239999999352E-02));
#649 = CARTESIAN_POINT('',(2.641793822337,-3.239999999352E-02));
#650 = CARTESIAN_POINT('',(2.713193655373,-3.239999999352E-02));
#651 = CARTESIAN_POINT('',(2.784593488409,-3.239999999352E-02));
#652 = CARTESIAN_POINT('',(2.855993321445,-3.239999999352E-02));
#653 = CARTESIAN_POINT('',(2.927393154481,-3.239999999352E-02));
#654 = CARTESIAN_POINT('',(2.998792987518,-3.239999999352E-02));
#655 = CARTESIAN_POINT('',(3.070192820554,-3.239999999352E-02));
#656 = CARTESIAN_POINT('',(3.117792709244,-3.239999999352E-02));
#657 = CARTESIAN_POINT('',(3.14159265359,-3.239999999352E-02));
#658 = ( GEOMETRIC_REPRESENTATION_CONTEXT(2) 
PARAMETRIC_REPRESENTATION_CONTEXT() REPRESENTATION_CONTEXT('2D SPACE',''
  ) );
#659 = PCURVE('',#67,#660);
#660 = DEFINITIONAL_REPRESENTATION('',(#661),#665);
#661 = CIRCLE('',#662,0.259329541088);
#662 = AXIS2_PLACEMENT_2D('',#663,#664);
#663 = CARTESIAN_POINT('',(-0.650212658616,-0.429170458714));
#664 = DIRECTION('',(4.816269280085E-17,-1.));
#665 = ( GEOMETRIC_REPRESENTATION_CONTEXT(2) 
PARAMETRIC_REPRESENTATION_CONTEXT() REPRESENTATION_CONTEXT('2D SPACE',''
  ) );
#666 = ORIENTED_EDGE('',*,*,#667,.F.);
#667 = EDGE_CURVE('',#237,#622,#668,.T.);
#668 = SURFACE_CURVE('',#669,(#673,#679),.PCURVE_S1.);
#669 = LINE('',#670,#671);
#670 = CARTESIAN_POINT('',(-0.390883117468,-0.429170458714,
    1.619999999676E-02));
#671 = VECTOR('',#672,1.);
#672 = DIRECTION('',(0.,0.,-1.));
#673 = PCURVE('',#253,#674);
#674 = DEFINITIONAL_REPRESENTATION('',(#675),#678);
#675 = B_SPLINE_CURVE_WITH_KNOTS('',1,(#676,#677),.UNSPECIFIED.,.F.,.F.,
  (2,2),(0.,3.239999999352E-02),.PIECEWISE_BEZIER_KNOTS.);
#676 = CARTESIAN_POINT('',(3.14159265359,0.));
#677 = CARTESIAN_POINT('',(3.14159265359,-3.239999999352E-02));
#678 = ( GEOMETRIC_REPRESENTATION_CONTEXT(2) 
PARAMETRIC_REPRESENTATION_CONTEXT() REPRESENTATION_CONTEXT('2D SPACE',''
  ) );
#679 = PCURVE('',#303,#680);
#680 = DEFINITIONAL_REPRESENTATION('',(#681),#685);
#681 = LINE('',#682,#683);
#682 = CARTESIAN_POINT('',(7.994642363898E-02,0.));
#683 = VECTOR('',#684,1.);
#684 = DIRECTION('',(0.,-1.));
#685 = ( GEOMETRIC_REPRESENTATION_CONTEXT(2) 
PARAMETRIC_REPRESENTATION_CONTEXT() REPRESENTATION_CONTEXT('2D SPACE',''
  ) );
#686 = ORIENTED_EDGE('',*,*,#236,.F.);
#687 = ORIENTED_EDGE('',*,*,#596,.T.);
#688 = ADVANCED_FACE('',(#689),#303,.T.);
#689 = FACE_BOUND('',#690,.T.);
#690 = EDGE_LOOP('',(#691,#714,#735,#736));
#691 = ORIENTED_EDGE('',*,*,#692,.F.);
#692 = EDGE_CURVE('',#693,#622,#695,.T.);
#693 = VERTEX_POINT('',#694);
#694 = CARTESIAN_POINT('',(-0.390883117468,-0.329733764843,
    -1.619999999676E-02));
#695 = SURFACE_CURVE('',#696,(#700,#707),.PCURVE_S1.);
#696 = LINE('',#697,#698);
#697 = CARTESIAN_POINT('',(-0.390883117468,-0.509116882352,
    -1.619999999676E-02));
#698 = VECTOR('',#699,1.);
#699 = DIRECTION('',(1.224646799147E-16,-1.,0.));
#700 = PCURVE('',#303,#701);
#701 = DEFINITIONAL_REPRESENTATION('',(#702),#706);
#702 = LINE('',#703,#704);
#703 = CARTESIAN_POINT('',(0.,-3.239999999352E-02));
#704 = VECTOR('',#705,1.);
#705 = DIRECTION('',(-1.,0.));
#706 = ( GEOMETRIC_REPRESENTATION_CONTEXT(2) 
PARAMETRIC_REPRESENTATION_CONTEXT() REPRESENTATION_CONTEXT('2D SPACE',''
  ) );
#707 = PCURVE('',#67,#708);
#708 = DEFINITIONAL_REPRESENTATION('',(#709),#713);
#709 = LINE('',#710,#711);
#710 = CARTESIAN_POINT('',(-0.390883117468,-0.509116882352));
#711 = VECTOR('',#712,1.);
#712 = DIRECTION('',(1.224646799147E-16,-1.));
#713 = ( GEOMETRIC_REPRESENTATION_CONTEXT(2) 
PARAMETRIC_REPRESENTATION_CONTEXT() REPRESENTATION_CONTEXT('2D SPACE',''
  ) );
#714 = ORIENTED_EDGE('',*,*,#715,.F.);
#715 = EDGE_CURVE('',#288,#693,#716,.T.);
#716 = SURFACE_CURVE('',#717,(#721,#728),.PCURVE_S1.);
#717 = LINE('',#718,#719);
#718 = CARTESIAN_POINT('',(-0.390883117468,-0.329733764843,
    1.619999999676E-02));
#719 = VECTOR('',#720,1.);
#720 = DIRECTION('',(0.,0.,-1.));
#721 = PCURVE('',#303,#722);
#722 = DEFINITIONAL_REPRESENTATION('',(#723),#727);
#723 = LINE('',#724,#725);
#724 = CARTESIAN_POINT('',(0.17938311751,0.));
#725 = VECTOR('',#726,1.);
#726 = DIRECTION('',(0.,-1.));
#727 = ( GEOMETRIC_REPRESENTATION_CONTEXT(2) 
PARAMETRIC_REPRESENTATION_CONTEXT() REPRESENTATION_CONTEXT('2D SPACE',''
  ) );
#728 = PCURVE('',#331,#729);
#729 = DEFINITIONAL_REPRESENTATION('',(#730),#734);
#730 = LINE('',#731,#732);
#731 = CARTESIAN_POINT('',(0.246203430273,0.));
#732 = VECTOR('',#733,1.);
#733 = DIRECTION('',(-0.,-1.));
#734 = ( GEOMETRIC_REPRESENTATION_CONTEXT(2) 
PARAMETRIC_REPRESENTATION_CONTEXT() REPRESENTATION_CONTEXT('2D SPACE',''
  ) );
#735 = ORIENTED_EDGE('',*,*,#287,.T.);
#736 = ORIENTED_EDGE('',*,*,#667,.T.);
#737 = ADVANCED_FACE('',(#738),#438,.T.);
#738 = FACE_BOUND('',#739,.T.);
#739 = EDGE_LOOP('',(#740,#763,#764,#765));
#740 = ORIENTED_EDGE('',*,*,#741,.F.);
#741 = EDGE_CURVE('',#476,#742,#744,.T.);
#742 = VERTEX_POINT('',#743);
#743 = CARTESIAN_POINT('',(0.89999999982,0.319582676173,
    -1.619999999676E-02));
#744 = SURFACE_CURVE('',#745,(#749,#756),.PCURVE_S1.);
#745 = LINE('',#746,#747);
#746 = CARTESIAN_POINT('',(0.89999999982,0.340878722589,
    -1.619999999676E-02));
#747 = VECTOR('',#748,1.);
#748 = DIRECTION('',(1.224646799147E-16,-1.,0.));
#749 = PCURVE('',#438,#750);
#750 = DEFINITIONAL_REPRESENTATION('',(#751),#755);
#751 = LINE('',#752,#753);
#752 = CARTESIAN_POINT('',(0.,-3.239999999352E-02));
#753 = VECTOR('',#754,1.);
#754 = DIRECTION('',(-1.,0.));
#755 = ( GEOMETRIC_REPRESENTATION_CONTEXT(2) 
PARAMETRIC_REPRESENTATION_CONTEXT() REPRESENTATION_CONTEXT('2D SPACE',''
  ) );
#756 = PCURVE('',#67,#757);
#757 = DEFINITIONAL_REPRESENTATION('',(#758),#762);
#758 = LINE('',#759,#760);
#759 = CARTESIAN_POINT('',(0.89999999982,0.340878722589));
#760 = VECTOR('',#761,1.);
#761 = DIRECTION('',(1.224646799147E-16,-1.));
#762 = ( GEOMETRIC_REPRESENTATION_CONTEXT(2) 
PARAMETRIC_REPRESENTATION_CONTEXT() REPRESENTATION_CONTEXT('2D SPACE',''
  ) );
#763 = ORIENTED_EDGE('',*,*,#500,.F.);
#764 = ORIENTED_EDGE('',*,*,#422,.T.);
#765 = ORIENTED_EDGE('',*,*,#766,.T.);
#766 = EDGE_CURVE('',#372,#742,#767,.T.);
#767 = SURFACE_CURVE('',#768,(#772,#779),.PCURVE_S1.);
#768 = LINE('',#769,#770);
#769 = CARTESIAN_POINT('',(0.89999999982,0.319582676173,
    1.619999999676E-02));
#770 = VECTOR('',#771,1.);
#771 = DIRECTION('',(0.,0.,-1.));
#772 = PCURVE('',#438,#773);
#773 = DEFINITIONAL_REPRESENTATION('',(#774),#778);
#774 = LINE('',#775,#776);
#775 = CARTESIAN_POINT('',(-2.129604641624E-02,0.));
#776 = VECTOR('',#777,1.);
#777 = DIRECTION('',(0.,-1.));
#778 = ( GEOMETRIC_REPRESENTATION_CONTEXT(2) 
PARAMETRIC_REPRESENTATION_CONTEXT() REPRESENTATION_CONTEXT('2D SPACE',''
  ) );
#779 = PCURVE('',#388,#780);
#780 = DEFINITIONAL_REPRESENTATION('',(#781),#784);
#781 = B_SPLINE_CURVE_WITH_KNOTS('',1,(#782,#783),.UNSPECIFIED.,.F.,.F.,
  (2,2),(0.,3.239999999352E-02),.PIECEWISE_BEZIER_KNOTS.);
#782 = CARTESIAN_POINT('',(3.14159265359,0.));
#783 = CARTESIAN_POINT('',(3.14159265359,-3.239999999352E-02));
#784 = ( GEOMETRIC_REPRESENTATION_CONTEXT(2) 
PARAMETRIC_REPRESENTATION_CONTEXT() REPRESENTATION_CONTEXT('2D SPACE',''
  ) );
#785 = ADVANCED_FACE('',(#786),#388,.T.);
#786 = FACE_BOUND('',#787,.T.);
#787 = EDGE_LOOP('',(#788,#834,#835,#836));
#788 = ORIENTED_EDGE('',*,*,#789,.T.);
#789 = EDGE_CURVE('',#790,#742,#792,.T.);
#790 = VERTEX_POINT('',#791);
#791 = CARTESIAN_POINT('',(0.759800441157,0.17938311751,
    -1.619999999676E-02));
#792 = SURFACE_CURVE('',#793,(#798,#827),.PCURVE_S1.);
#793 = CIRCLE('',#794,0.140199558632);
#794 = AXIS2_PLACEMENT_3D('',#795,#796,#797);
#795 = CARTESIAN_POINT('',(0.759800441157,0.319582676173,
    -1.619999999676E-02));
#796 = DIRECTION('',(0.,0.,1.));
#797 = DIRECTION('',(0.,-1.,0.));
#798 = PCURVE('',#388,#799);
#799 = DEFINITIONAL_REPRESENTATION('',(#800),#826);
#800 = B_SPLINE_CURVE_WITH_KNOTS('',3,(#801,#802,#803,#804,#805,#806,
    #807,#808,#809,#810,#811,#812,#813,#814,#815,#816,#817,#818,#819,
    #820,#821,#822,#823,#824,#825),.UNSPECIFIED.,.F.,.F.,(4,1,1,1,1,1,1,
    1,1,1,1,1,1,1,1,1,1,1,1,1,1,1,4),(0.,7.139983303613E-02,
    0.142799666072,0.214199499108,0.285599332145,0.356999165181,
    0.428398998217,0.499798831253,0.571198664289,0.642598497325,
    0.713998330361,0.785398163397,0.856797996434,0.92819782947,
    0.999597662506,1.070997495542,1.142397328578,1.213797161614,
    1.28519699465,1.356596827687,1.427996660723,1.499396493759,
    1.570796326795),.QUASI_UNIFORM_KNOTS.);
#801 = CARTESIAN_POINT('',(1.570796326795,-3.239999999352E-02));
#802 = CARTESIAN_POINT('',(1.59459627114,-3.239999999352E-02));
#803 = CARTESIAN_POINT('',(1.642196159831,-3.239999999352E-02));
#804 = CARTESIAN_POINT('',(1.713595992867,-3.239999999352E-02));
#805 = CARTESIAN_POINT('',(1.784995825903,-3.239999999352E-02));
#806 = CARTESIAN_POINT('',(1.856395658939,-3.239999999352E-02));
#807 = CARTESIAN_POINT('',(1.927795491976,-3.239999999352E-02));
#808 = CARTESIAN_POINT('',(1.999195325012,-3.239999999352E-02));
#809 = CARTESIAN_POINT('',(2.070595158048,-3.239999999352E-02));
#810 = CARTESIAN_POINT('',(2.141994991084,-3.239999999352E-02));
#811 = CARTESIAN_POINT('',(2.21339482412,-3.239999999352E-02));
#812 = CARTESIAN_POINT('',(2.284794657156,-3.239999999352E-02));
#813 = CARTESIAN_POINT('',(2.356194490192,-3.239999999352E-02));
#814 = CARTESIAN_POINT('',(2.427594323228,-3.239999999352E-02));
#815 = CARTESIAN_POINT('',(2.498994156265,-3.239999999352E-02));
#816 = CARTESIAN_POINT('',(2.570393989301,-3.239999999352E-02));
#817 = CARTESIAN_POINT('',(2.641793822337,-3.239999999352E-02));
#818 = CARTESIAN_POINT('',(2.713193655373,-3.239999999352E-02));
#819 = CARTESIAN_POINT('',(2.784593488409,-3.239999999352E-02));
#820 = CARTESIAN_POINT('',(2.855993321445,-3.239999999352E-02));
#821 = CARTESIAN_POINT('',(2.927393154481,-3.239999999352E-02));
#822 = CARTESIAN_POINT('',(2.998792987518,-3.239999999352E-02));
#823 = CARTESIAN_POINT('',(3.070192820554,-3.239999999352E-02));
#824 = CARTESIAN_POINT('',(3.117792709244,-3.239999999352E-02));
#825 = CARTESIAN_POINT('',(3.14159265359,-3.239999999352E-02));
#826 = ( GEOMETRIC_REPRESENTATION_CONTEXT(2) 
PARAMETRIC_REPRESENTATION_CONTEXT() REPRESENTATION_CONTEXT('2D SPACE',''
  ) );
#827 = PCURVE('',#67,#828);
#828 = DEFINITIONAL_REPRESENTATION('',(#829),#833);
#829 = CIRCLE('',#830,0.140199558632);
#830 = AXIS2_PLACEMENT_2D('',#831,#832);
#831 = CARTESIAN_POINT('',(0.759800441157,0.319582676173));
#832 = DIRECTION('',(0.,-1.));
#833 = ( GEOMETRIC_REPRESENTATION_CONTEXT(2) 
PARAMETRIC_REPRESENTATION_CONTEXT() REPRESENTATION_CONTEXT('2D SPACE',''
  ) );
#834 = ORIENTED_EDGE('',*,*,#766,.F.);
#835 = ORIENTED_EDGE('',*,*,#371,.F.);
#836 = ORIENTED_EDGE('',*,*,#837,.T.);
#837 = EDGE_CURVE('',#344,#790,#838,.T.);
#838 = SURFACE_CURVE('',#839,(#843,#849),.PCURVE_S1.);
#839 = LINE('',#840,#841);
#840 = CARTESIAN_POINT('',(0.759800441157,0.17938311751,
    1.619999999676E-02));
#841 = VECTOR('',#842,1.);
#842 = DIRECTION('',(0.,0.,-1.));
#843 = PCURVE('',#388,#844);
#844 = DEFINITIONAL_REPRESENTATION('',(#845),#848);
#845 = B_SPLINE_CURVE_WITH_KNOTS('',1,(#846,#847),.UNSPECIFIED.,.F.,.F.,
  (2,2),(0.,3.239999999352E-02),.PIECEWISE_BEZIER_KNOTS.);
#846 = CARTESIAN_POINT('',(1.570796326795,0.));
#847 = CARTESIAN_POINT('',(1.570796326795,-3.239999999352E-02));
#848 = ( GEOMETRIC_REPRESENTATION_CONTEXT(2) 
PARAMETRIC_REPRESENTATION_CONTEXT() REPRESENTATION_CONTEXT('2D SPACE',''
  ) );
#849 = PCURVE('',#359,#850);
#850 = DEFINITIONAL_REPRESENTATION('',(#851),#855);
#851 = LINE('',#852,#853);
#852 = CARTESIAN_POINT('',(0.,0.358213200223));
#853 = VECTOR('',#854,1.);
#854 = DIRECTION('',(-1.,0.));
#855 = ( GEOMETRIC_REPRESENTATION_CONTEXT(2) 
PARAMETRIC_REPRESENTATION_CONTEXT() REPRESENTATION_CONTEXT('2D SPACE',''
  ) );
#856 = ADVANCED_FACE('',(#857),#359,.F.);
#857 = FACE_BOUND('',#858,.T.);
#858 = EDGE_LOOP('',(#859,#882,#883,#884));
#859 = ORIENTED_EDGE('',*,*,#860,.T.);
#860 = EDGE_CURVE('',#861,#790,#863,.T.);
#861 = VERTEX_POINT('',#862);
#862 = CARTESIAN_POINT('',(0.118233764885,0.17938311751,
    -1.619999999676E-02));
#863 = SURFACE_CURVE('',#864,(#868,#875),.PCURVE_S1.);
#864 = LINE('',#865,#866);
#865 = CARTESIAN_POINT('',(0.401587240934,0.17938311751,
    -1.619999999676E-02));
#866 = VECTOR('',#867,1.);
#867 = DIRECTION('',(1.,0.,0.));
#868 = PCURVE('',#359,#869);
#869 = DEFINITIONAL_REPRESENTATION('',(#870),#874);
#870 = LINE('',#871,#872);
#871 = CARTESIAN_POINT('',(-3.239999999352E-02,0.));
#872 = VECTOR('',#873,1.);
#873 = DIRECTION('',(0.,1.));
#874 = ( GEOMETRIC_REPRESENTATION_CONTEXT(2) 
PARAMETRIC_REPRESENTATION_CONTEXT() REPRESENTATION_CONTEXT('2D SPACE',''
  ) );
#875 = PCURVE('',#67,#876);
#876 = DEFINITIONAL_REPRESENTATION('',(#877),#881);
#877 = LINE('',#878,#879);
#878 = CARTESIAN_POINT('',(0.401587240934,0.17938311751));
#879 = VECTOR('',#880,1.);
#880 = DIRECTION('',(1.,0.));
#881 = ( GEOMETRIC_REPRESENTATION_CONTEXT(2) 
PARAMETRIC_REPRESENTATION_CONTEXT() REPRESENTATION_CONTEXT('2D SPACE',''
  ) );
#882 = ORIENTED_EDGE('',*,*,#837,.F.);
#883 = ORIENTED_EDGE('',*,*,#343,.F.);
#884 = ORIENTED_EDGE('',*,*,#885,.T.);
#885 = EDGE_CURVE('',#316,#861,#886,.T.);
#886 = SURFACE_CURVE('',#887,(#891,#898),.PCURVE_S1.);
#887 = LINE('',#888,#889);
#888 = CARTESIAN_POINT('',(0.118233764885,0.17938311751,
    1.619999999676E-02));
#889 = VECTOR('',#890,1.);
#890 = DIRECTION('',(0.,0.,-1.));
#891 = PCURVE('',#359,#892);
#892 = DEFINITIONAL_REPRESENTATION('',(#893),#897);
#893 = LINE('',#894,#895);
#894 = CARTESIAN_POINT('',(0.,-0.283353476049));
#895 = VECTOR('',#896,1.);
#896 = DIRECTION('',(-1.,0.));
#897 = ( GEOMETRIC_REPRESENTATION_CONTEXT(2) 
PARAMETRIC_REPRESENTATION_CONTEXT() REPRESENTATION_CONTEXT('2D SPACE',''
  ) );
#898 = PCURVE('',#331,#899);
#899 = DEFINITIONAL_REPRESENTATION('',(#900),#904);
#900 = LINE('',#901,#902);
#901 = CARTESIAN_POINT('',(-0.473796569583,0.));
#902 = VECTOR('',#903,1.);
#903 = DIRECTION('',(-0.,-1.));
#904 = ( GEOMETRIC_REPRESENTATION_CONTEXT(2) 
PARAMETRIC_REPRESENTATION_CONTEXT() REPRESENTATION_CONTEXT('2D SPACE',''
  ) );
#905 = ADVANCED_FACE('',(#906),#331,.F.);
#906 = FACE_BOUND('',#907,.T.);
#907 = EDGE_LOOP('',(#908,#929,#930,#931));
#908 = ORIENTED_EDGE('',*,*,#909,.T.);
#909 = EDGE_CURVE('',#693,#861,#910,.T.);
#910 = SURFACE_CURVE('',#911,(#915,#922),.PCURVE_S1.);
#911 = LINE('',#912,#913);
#912 = CARTESIAN_POINT('',(-0.21679100237,-0.155641649745,
    -1.619999999676E-02));
#913 = VECTOR('',#914,1.);
#914 = DIRECTION('',(0.707106781187,0.707106781187,0.));
#915 = PCURVE('',#331,#916);
#916 = DEFINITIONAL_REPRESENTATION('',(#917),#921);
#917 = LINE('',#918,#919);
#918 = CARTESIAN_POINT('',(-0.,-3.239999999352E-02));
#919 = VECTOR('',#920,1.);
#920 = DIRECTION('',(-1.,0.));
#921 = ( GEOMETRIC_REPRESENTATION_CONTEXT(2) 
PARAMETRIC_REPRESENTATION_CONTEXT() REPRESENTATION_CONTEXT('2D SPACE',''
  ) );
#922 = PCURVE('',#67,#923);
#923 = DEFINITIONAL_REPRESENTATION('',(#924),#928);
#924 = LINE('',#925,#926);
#925 = CARTESIAN_POINT('',(-0.21679100237,-0.155641649745));
#926 = VECTOR('',#927,1.);
#927 = DIRECTION('',(0.707106781187,0.707106781187));
#928 = ( GEOMETRIC_REPRESENTATION_CONTEXT(2) 
PARAMETRIC_REPRESENTATION_CONTEXT() REPRESENTATION_CONTEXT('2D SPACE',''
  ) );
#929 = ORIENTED_EDGE('',*,*,#885,.F.);
#930 = ORIENTED_EDGE('',*,*,#315,.F.);
#931 = ORIENTED_EDGE('',*,*,#715,.T.);
#932 = ADVANCED_FACE('',(#933),#67,.F.);
#933 = FACE_BOUND('',#934,.T.);
#934 = EDGE_LOOP('',(#935,#936,#937,#938,#939,#940,#941,#942,#943,#944)
  );
#935 = ORIENTED_EDGE('',*,*,#524,.F.);
#936 = ORIENTED_EDGE('',*,*,#21,.F.);
#937 = ORIENTED_EDGE('',*,*,#475,.T.);
#938 = ORIENTED_EDGE('',*,*,#741,.T.);
#939 = ORIENTED_EDGE('',*,*,#789,.F.);
#940 = ORIENTED_EDGE('',*,*,#860,.F.);
#941 = ORIENTED_EDGE('',*,*,#909,.F.);
#942 = ORIENTED_EDGE('',*,*,#692,.T.);
#943 = ORIENTED_EDGE('',*,*,#621,.F.);
#944 = ORIENTED_EDGE('',*,*,#573,.F.);
#945 = ( GEOMETRIC_REPRESENTATION_CONTEXT(3) 
GLOBAL_UNCERTAINTY_ASSIGNED_CONTEXT((#949)) GLOBAL_UNIT_ASSIGNED_CONTEXT
((#946,#947,#948)) REPRESENTATION_CONTEXT('Context #1',
  '3D Context with UNIT and UNCERTAINTY') );
#946 = ( LENGTH_UNIT() NAMED_UNIT(*) SI_UNIT(.MILLI.,.METRE.) );
#947 = ( NAMED_UNIT(*) PLANE_ANGLE_UNIT() SI_UNIT($,.RADIAN.) );
#948 = ( NAMED_UNIT(*) SI_UNIT($,.STERADIAN.) SOLID_ANGLE_UNIT() );
#949 = UNCERTAINTY_MEASURE_WITH_UNIT(LENGTH_MEASURE(1.E-07),#946,
  'distance_accuracy_value','confusion accuracy');
#950 = PRODUCT_RELATED_PRODUCT_CATEGORY('detail',$,(#7));
#951 = PRODUCT_CATEGORY_RELATIONSHIP('','',#952,#950);
#952 = PRODUCT_CATEGORY('part',$);
#953 = CC_DESIGN_PERSON_AND_ORGANIZATION_ASSIGNMENT(#954,#957,(#6,#5));
#954 = PERSON_AND_ORGANIZATION(#955,#956);
#955 = PERSON('IP172.17.0,root','','root',$,$,$);
#956 = ORGANIZATION('IP172.17.0','Unspecified','');
#957 = PERSON_AND_ORGANIZATION_ROLE('creator');
#958 = CC_DESIGN_PERSON_AND_ORGANIZATION_ASSIGNMENT(#954,#959,(#7));
#959 = PERSON_AND_ORGANIZATION_ROLE('design_owner');
#960 = CC_DESIGN_PERSON_AND_ORGANIZATION_ASSIGNMENT(#954,#961,(#6));
#961 = PERSON_AND_ORGANIZATION_ROLE('design_supplier');
#962 = CC_DESIGN_PERSON_AND_ORGANIZATION_ASSIGNMENT(#954,#963,(#964));
#963 = PERSON_AND_ORGANIZATION_ROLE('classification_officer');
#964 = SECURITY_CLASSIFICATION('','',#965);
#965 = SECURITY_CLASSIFICATION_LEVEL('unclassified');
#966 = CC_DESIGN_SECURITY_CLASSIFICATION(#964,(#6));
#967 = CC_DESIGN_DATE_AND_TIME_ASSIGNMENT(#968,#972,(#5));
#968 = DATE_AND_TIME(#969,#970);
#969 = CALENDAR_DATE(2024,1,10);
#970 = LOCAL_TIME(20,10,$,#971);
#971 = COORDINATED_UNIVERSAL_TIME_OFFSET(8,$,.AHEAD.);
#972 = DATE_TIME_ROLE('creation_date');
#973 = CC_DESIGN_DATE_AND_TIME_ASSIGNMENT(#968,#974,(#964));
#974 = DATE_TIME_ROLE('classification_date');
#975 = CC_DESIGN_APPROVAL(#976,(#6,#5,#964));
#976 = APPROVAL(#977,'');
#977 = APPROVAL_STATUS('not_yet_approved');
#978 = APPROVAL_PERSON_ORGANIZATION(#954,#976,#979);
#979 = APPROVAL_ROLE('approver');
#980 = APPROVAL_DATE_TIME(#968,#976);
ENDSEC;
END-ISO-10303-21;
