ISO-10303-21;
HEADER;
FILE_DESCRIPTION(('Open CASCADE Model'),'2;1');
FILE_NAME('Open CASCADE Shape Model','2024-10-01T20:16:58',('Author'),(
    'Open CASCADE'),'Open CASCADE STEP processor 7.8','Open CASCADE 7.8'
  ,'Unknown');
FILE_SCHEMA(('CONFIG_CONTROL_DESIGN'));
ENDSEC;
DATA;
#1 = APPLICATION_PROTOCOL_DEFINITION('international standard',
  'config_control_design',1994,#2);
#2 = APPLICATION_CONTEXT(
'configuration controlled 3D designs of mechanical parts and assemblies'
  );
#3 = SHAPE_DEFINITION_REPRESENTATION(#4,#10);
#4 = PRODUCT_DEFINITION_SHAPE('','',#5);
#5 = PRODUCT_DEFINITION('design','',#6,#9);
#6 = PRODUCT_DEFINITION_FORMATION_WITH_SPECIFIED_SOURCE('','',#7,
  .NOT_KNOWN.);
#7 = PRODUCT('Open CASCADE STEP translator 7.8 257',
  'Open CASCADE STEP translator 7.8 257','',(#8));
#8 = MECHANICAL_CONTEXT('',#2,'mechanical');
#9 = DESIGN_CONTEXT('',#2,'design');
#10 = ADVANCED_BREP_SHAPE_REPRESENTATION('',(#11,#15),#1217);
#11 = AXIS2_PLACEMENT_3D('',#12,#13,#14);
#12 = CARTESIAN_POINT('',(0.,0.,0.));
#13 = DIRECTION('',(0.,0.,1.));
#14 = DIRECTION('',(1.,0.,-0.));
#15 = MANIFOLD_SOLID_BREP('',#16);
#16 = CLOSED_SHELL('',(#17,#201,#388,#493,#684,#773,#960,#1044,#1195,
    #1206));
#17 = ADVANCED_FACE('',(#18),#33,.T.);
#18 = FACE_BOUND('',#19,.T.);
#19 = EDGE_LOOP('',(#20,#78,#121,#160));
#20 = ORIENTED_EDGE('',*,*,#21,.F.);
#21 = EDGE_CURVE('',#22,#24,#26,.T.);
#22 = VERTEX_POINT('',#23);
#23 = CARTESIAN_POINT('',(-0.90134498676,-0.209198395328,
    1.142234252539E-04));
#24 = VERTEX_POINT('',#25);
#25 = CARTESIAN_POINT('',(-0.900649988562,0.209550973425,
    7.504794312074E-04));
#26 = SURFACE_CURVE('',#27,(#32,#55),.PCURVE_S1.);
#27 = B_SPLINE_CURVE_WITH_KNOTS('',3,(#28,#29,#30,#31),.UNSPECIFIED.,.F.
  ,.F.,(4,4),(0.,1.),.PIECEWISE_BEZIER_KNOTS.);
#28 = CARTESIAN_POINT('',(-0.899999976159,-0.209956172135,
    1.50000001304E-03));
#29 = CARTESIAN_POINT('',(-0.899999976158,-6.998539083541E-02,
    1.500000013039E-03));
#30 = CARTESIAN_POINT('',(-0.899999976158,6.998539083256E-02,
    1.500000013038E-03));
#31 = CARTESIAN_POINT('',(-0.899999976157,0.209956172132,
    1.500000013037E-03));
#32 = PCURVE('',#33,#50);
#33 = B_SPLINE_SURFACE_WITH_KNOTS('',3,3,(
    (#34,#35,#36,#37)
    ,(#38,#39,#40,#41)
    ,(#42,#43,#44,#45)
    ,(#46,#47,#48,#49
    )),.UNSPECIFIED.,.F.,.F.,.F.,(4,4),(4,4),(0.,1.),(0.,1.),
  .PIECEWISE_BEZIER_KNOTS.);
#34 = CARTESIAN_POINT('',(-0.899999974948,-0.209956171852,
    -5.976069016558E-04));
#35 = CARTESIAN_POINT('',(-0.899999974888,-0.209956171838,
    -1.992023012629E-04));
#36 = CARTESIAN_POINT('',(-0.899999974829,-0.209956171824,
    1.992023000251E-04));
#37 = CARTESIAN_POINT('',(-0.899999974769,-0.20995617181,
    5.976069004179E-04));
#38 = CARTESIAN_POINT('',(-0.899999974948,-6.998539074106E-02,
    -5.976069016558E-04));
#39 = CARTESIAN_POINT('',(-0.899999974888,-6.998539073641E-02,
    -1.992023012629E-04));
#40 = CARTESIAN_POINT('',(-0.899999974829,-6.998539073176E-02,
    1.992023000251E-04));
#41 = CARTESIAN_POINT('',(-0.899999974769,-6.998539072712E-02,
    5.97606900418E-04));
#42 = CARTESIAN_POINT('',(-0.899999974948,6.998539073859E-02,
    -5.976069016559E-04));
#43 = CARTESIAN_POINT('',(-0.899999974888,6.998539073394E-02,
    -1.99202301263E-04));
#44 = CARTESIAN_POINT('',(-0.899999974829,6.998539072929E-02,
    1.992023000251E-04));
#45 = CARTESIAN_POINT('',(-0.899999974769,6.998539072465E-02,
    5.97606900418E-04));
#46 = CARTESIAN_POINT('',(-0.899999974948,0.209956171849,
    -5.97606901656E-04));
#47 = CARTESIAN_POINT('',(-0.899999974889,0.209956171836,
    -1.99202301263E-04));
#48 = CARTESIAN_POINT('',(-0.899999974829,0.209956171822,
    1.992023000251E-04));
#49 = CARTESIAN_POINT('',(-0.899999974769,0.209956171808,
    5.976069004181E-04));
#50 = DEFINITIONAL_REPRESENTATION('',(#51),#54);
#51 = B_SPLINE_CURVE_WITH_KNOTS('',1,(#52,#53),.UNSPECIFIED.,.F.,.F.,(2,
    2),(0.,1.),.PIECEWISE_BEZIER_KNOTS.);
#52 = CARTESIAN_POINT('',(-5.218182690266E-05,1.127903921468));
#53 = CARTESIAN_POINT('',(1.000000000777,1.05));
#54 = ( GEOMETRIC_REPRESENTATION_CONTEXT(2) 
PARAMETRIC_REPRESENTATION_CONTEXT() REPRESENTATION_CONTEXT('2D SPACE',''
  ) );
#55 = PCURVE('',#56,#73);
#56 = B_SPLINE_SURFACE_WITH_KNOTS('',3,3,(
    (#57,#58,#59,#60)
    ,(#61,#62,#63,#64)
    ,(#65,#66,#67,#68)
    ,(#69,#70,#71,#72
    )),.UNSPECIFIED.,.F.,.F.,.F.,(4,4),(4,4),(0.,1.),(0.,1.),
  .PIECEWISE_BEZIER_KNOTS.);
#57 = CARTESIAN_POINT('',(-0.899997419077,-0.299969333175,
    1.500000013038E-03));
#58 = CARTESIAN_POINT('',(-0.299999140223,-0.299969333175,
    1.500000013038E-03));
#59 = CARTESIAN_POINT('',(0.299999140212,-0.299969333175,
    1.500000013038E-03));
#60 = CARTESIAN_POINT('',(0.899997419066,-0.299969333175,
    1.500000013038E-03));
#61 = CARTESIAN_POINT('',(-0.899997419077,-9.998977790178E-02,
    1.500000013038E-03));
#62 = CARTESIAN_POINT('',(-0.299999140223,-9.998977790178E-02,
    1.500000013038E-03));
#63 = CARTESIAN_POINT('',(0.299999140212,-9.998977790178E-02,
    1.500000013038E-03));
#64 = CARTESIAN_POINT('',(0.899997419066,-9.998977790178E-02,
    1.500000013038E-03));
#65 = CARTESIAN_POINT('',(-0.899997419077,9.998977789827E-02,
    1.500000013039E-03));
#66 = CARTESIAN_POINT('',(-0.299999140223,9.998977789827E-02,
    1.500000013039E-03));
#67 = CARTESIAN_POINT('',(0.299999140212,9.998977789827E-02,
    1.500000013039E-03));
#68 = CARTESIAN_POINT('',(0.899997419066,9.998977789827E-02,
    1.500000013039E-03));
#69 = CARTESIAN_POINT('',(-0.899997419078,0.299969333171,
    1.500000013039E-03));
#70 = CARTESIAN_POINT('',(-0.299999140223,0.299969333171,
    1.500000013039E-03));
#71 = CARTESIAN_POINT('',(0.299999140212,0.299969333171,
    1.500000013039E-03));
#72 = CARTESIAN_POINT('',(0.899997419066,0.299969333171,
    1.500000013039E-03));
#73 = DEFINITIONAL_REPRESENTATION('',(#74),#77);
#74 = B_SPLINE_CURVE_WITH_KNOTS('',1,(#75,#76),.UNSPECIFIED.,.F.,.F.,(2,
    2),(0.,1.),.PIECEWISE_BEZIER_KNOTS.);
#75 = CARTESIAN_POINT('',(0.150037272374,-1.42060432913E-06));
#76 = CARTESIAN_POINT('',(0.849962727637,-1.420604882642E-06));
#77 = ( GEOMETRIC_REPRESENTATION_CONTEXT(2) 
PARAMETRIC_REPRESENTATION_CONTEXT() REPRESENTATION_CONTEXT('2D SPACE',''
  ) );
#78 = ORIENTED_EDGE('',*,*,#79,.T.);
#79 = EDGE_CURVE('',#22,#22,#80,.T.);
#80 = SURFACE_CURVE('',#81,(#87,#93),.PCURVE_S1.);
#81 = B_SPLINE_CURVE_WITH_KNOTS('',4,(#82,#83,#84,#85,#86),
  .UNSPECIFIED.,.T.,.F.,(1,4,4,1),(-1.,0.,1.,2.),.UNSPECIFIED.);
#82 = CARTESIAN_POINT('',(-0.901299984552,-0.20910194959,
    -5.999550307967E-08));
#83 = CARTESIAN_POINT('',(-0.897429109493,-0.248898933667,
    -5.999550307974E-08));
#84 = CARTESIAN_POINT('',(-0.880086243589,-0.278876049906,
    -5.999550307974E-08));
#85 = CARTESIAN_POINT('',(-0.850068282586,-0.296747454592,
    -5.999550307967E-08));
#86 = CARTESIAN_POINT('',(-0.901299984552,-0.20910194959,
    -5.999550307967E-08));
#87 = PCURVE('',#33,#88);
#88 = DEFINITIONAL_REPRESENTATION('',(#89),#92);
#89 = B_SPLINE_CURVE_WITH_KNOTS('',1,(#90,#91),.UNSPECIFIED.,.F.,.F.,(2,
    2),(0.,1.),.PIECEWISE_BEZIER_KNOTS.);
#90 = CARTESIAN_POINT('',(-5.218182690266E-05,1.127903921468));
#91 = CARTESIAN_POINT('',(-1.043628068327E-04,0.499197759632));
#92 = ( GEOMETRIC_REPRESENTATION_CONTEXT(2) 
PARAMETRIC_REPRESENTATION_CONTEXT() REPRESENTATION_CONTEXT('2D SPACE',''
  ) );
#93 = PCURVE('',#94,#115);
#94 = B_SPLINE_SURFACE_WITH_KNOTS('',3,4,(
    (#95,#96,#97,#98,#99)
    ,(#100,#101,#102,#103,#104)
    ,(#105,#106,#107,#108,#109)
    ,(#110,#111,#112,#113,#114
    )),.UNSPECIFIED.,.T.,.T.,.F.,(1,3,3,1),(1,4,4,1),(-1.,0.,1.,2.),(-1.
    ,0.,1.,2.),.UNSPECIFIED.);
#95 = CARTESIAN_POINT('',(-0.901299984552,-0.20910194959,
    -5.999550307967E-08));
#96 = CARTESIAN_POINT('',(-0.897429109493,-0.248898933667,
    -5.999550307974E-08));
#97 = CARTESIAN_POINT('',(-0.880086243589,-0.278876049906,
    -5.999550307974E-08));
#98 = CARTESIAN_POINT('',(-0.850068282586,-0.296747454592,
    -5.999550307967E-08));
#99 = CARTESIAN_POINT('',(-0.901299984552,-0.20910194959,
    -5.999550307967E-08));
#100 = CARTESIAN_POINT('',(-0.90129998455,-0.20910194959,
    -1.999850300134E-08));
#101 = CARTESIAN_POINT('',(-0.897429109491,-0.248898933666,
    -1.999850300141E-08));
#102 = CARTESIAN_POINT('',(-0.880086243587,-0.278876049905,
    -1.999850300141E-08));
#103 = CARTESIAN_POINT('',(-0.850068282584,-0.296747454591,
    -1.999850300134E-08));
#104 = CARTESIAN_POINT('',(-0.90129998455,-0.20910194959,
    -1.999850300134E-08));
#105 = CARTESIAN_POINT('',(-0.901299984548,-0.209101949589,
    1.999849707699E-08));
#106 = CARTESIAN_POINT('',(-0.897429109488,-0.248898933665,
    1.999849707692E-08));
#107 = CARTESIAN_POINT('',(-0.880086243585,-0.278876049905,
    1.999849707692E-08));
#108 = CARTESIAN_POINT('',(-0.850068282582,-0.29674745459,
    1.999849707699E-08));
#109 = CARTESIAN_POINT('',(-0.901299984548,-0.209101949589,
    1.999849707699E-08));
#110 = CARTESIAN_POINT('',(-0.901299984552,-0.20910194959,
    -5.999550307967E-08));
#111 = CARTESIAN_POINT('',(-0.897429109493,-0.248898933667,
    -5.999550307974E-08));
#112 = CARTESIAN_POINT('',(-0.880086243589,-0.278876049906,
    -5.999550307974E-08));
#113 = CARTESIAN_POINT('',(-0.850068282586,-0.296747454592,
    -5.999550307967E-08));
#114 = CARTESIAN_POINT('',(-0.901299984552,-0.20910194959,
    -5.999550307967E-08));
#115 = DEFINITIONAL_REPRESENTATION('',(#116),#120);
#116 = LINE('',#117,#118);
#117 = CARTESIAN_POINT('',(1.,0.));
#118 = VECTOR('',#119,1.);
#119 = DIRECTION('',(0.,1.));
#120 = ( GEOMETRIC_REPRESENTATION_CONTEXT(2) 
PARAMETRIC_REPRESENTATION_CONTEXT() REPRESENTATION_CONTEXT('2D SPACE',''
  ) );
#121 = ORIENTED_EDGE('',*,*,#122,.F.);
#122 = EDGE_CURVE('',#123,#22,#125,.T.);
#123 = VERTEX_POINT('',#124);
#124 = CARTESIAN_POINT('',(-0.90072808626,0.209718362936,
    -7.504794312083E-04));
#125 = SURFACE_CURVE('',#126,(#131,#137),.PCURVE_S1.);
#126 = B_SPLINE_CURVE_WITH_KNOTS('',3,(#127,#128,#129,#130),
  .UNSPECIFIED.,.F.,.F.,(4,4),(0.,1.),.PIECEWISE_BEZIER_KNOTS.);
#127 = CARTESIAN_POINT('',(-0.899999976159,0.209956172135,
    -1.50000001304E-03));
#128 = CARTESIAN_POINT('',(-0.899999976158,6.998539083541E-02,
    -1.500000013039E-03));
#129 = CARTESIAN_POINT('',(-0.899999976158,-6.998539083256E-02,
    -1.500000013038E-03));
#130 = CARTESIAN_POINT('',(-0.899999976157,-0.209956172132,
    -1.500000013037E-03));
#131 = PCURVE('',#33,#132);
#132 = DEFINITIONAL_REPRESENTATION('',(#133),#136);
#133 = B_SPLINE_CURVE_WITH_KNOTS('',1,(#134,#135),.UNSPECIFIED.,.F.,.F.,
  (2,2),(0.,1.),.PIECEWISE_BEZIER_KNOTS.);
#134 = CARTESIAN_POINT('',(1.000052181708,-0.127903920433));
#135 = CARTESIAN_POINT('',(-6.614135362128E-10,-5.E-02));
#136 = ( GEOMETRIC_REPRESENTATION_CONTEXT(2) 
PARAMETRIC_REPRESENTATION_CONTEXT() REPRESENTATION_CONTEXT('2D SPACE',''
  ) );
#137 = PCURVE('',#138,#155);
#138 = B_SPLINE_SURFACE_WITH_KNOTS('',3,3,(
    (#139,#140,#141,#142)
    ,(#143,#144,#145,#146)
    ,(#147,#148,#149,#150)
    ,(#151,#152,#153,#154
    )),.UNSPECIFIED.,.F.,.F.,.F.,(4,4),(4,4),(0.,1.),(0.,1.),
  .PIECEWISE_BEZIER_KNOTS.);
#139 = CARTESIAN_POINT('',(-0.899997419077,-0.299969333175,
    -1.500000013038E-03));
#140 = CARTESIAN_POINT('',(-0.299999140223,-0.299969333175,
    -1.500000013038E-03));
#141 = CARTESIAN_POINT('',(0.299999140212,-0.299969333175,
    -1.500000013038E-03));
#142 = CARTESIAN_POINT('',(0.899997419066,-0.299969333175,
    -1.500000013038E-03));
#143 = CARTESIAN_POINT('',(-0.899997419077,-9.998977790178E-02,
    -1.500000013038E-03));
#144 = CARTESIAN_POINT('',(-0.299999140223,-9.998977790178E-02,
    -1.500000013038E-03));
#145 = CARTESIAN_POINT('',(0.299999140212,-9.998977790178E-02,
    -1.500000013038E-03));
#146 = CARTESIAN_POINT('',(0.899997419066,-9.998977790178E-02,
    -1.500000013038E-03));
#147 = CARTESIAN_POINT('',(-0.899997419077,9.998977789827E-02,
    -1.500000013039E-03));
#148 = CARTESIAN_POINT('',(-0.299999140223,9.998977789827E-02,
    -1.500000013039E-03));
#149 = CARTESIAN_POINT('',(0.299999140212,9.998977789827E-02,
    -1.500000013039E-03));
#150 = CARTESIAN_POINT('',(0.899997419066,9.998977789827E-02,
    -1.500000013039E-03));
#151 = CARTESIAN_POINT('',(-0.899997419078,0.299969333171,
    -1.500000013039E-03));
#152 = CARTESIAN_POINT('',(-0.299999140223,0.299969333171,
    -1.500000013039E-03));
#153 = CARTESIAN_POINT('',(0.299999140212,0.299969333171,
    -1.500000013039E-03));
#154 = CARTESIAN_POINT('',(0.899997419066,0.299969333171,
    -1.500000013039E-03));
#155 = DEFINITIONAL_REPRESENTATION('',(#156),#159);
#156 = B_SPLINE_CURVE_WITH_KNOTS('',1,(#157,#158),.UNSPECIFIED.,.F.,.F.,
  (2,2),(0.,1.),.PIECEWISE_BEZIER_KNOTS.);
#157 = CARTESIAN_POINT('',(0.849962727632,-1.420604093861E-06));
#158 = CARTESIAN_POINT('',(0.150037272369,-1.420605117886E-06));
#159 = ( GEOMETRIC_REPRESENTATION_CONTEXT(2) 
PARAMETRIC_REPRESENTATION_CONTEXT() REPRESENTATION_CONTEXT('2D SPACE',''
  ) );
#160 = ORIENTED_EDGE('',*,*,#161,.T.);
#161 = EDGE_CURVE('',#123,#24,#162,.T.);
#162 = SURFACE_CURVE('',#163,(#168,#174),.PCURVE_S1.);
#163 = B_SPLINE_CURVE_WITH_KNOTS('',3,(#164,#165,#166,#167),
  .UNSPECIFIED.,.F.,.F.,(4,4),(0.,1.),.PIECEWISE_BEZIER_KNOTS.);
#164 = CARTESIAN_POINT('',(-0.899999983094,0.209999995062,
    -9.588493781542E-07));
#165 = CARTESIAN_POINT('',(-0.899999983093,0.209999995062,
    -3.196164599941E-07));
#166 = CARTESIAN_POINT('',(-0.899999983092,0.209999995062,
    3.19616458166E-07));
#167 = CARTESIAN_POINT('',(-0.899999983092,0.209999995061,
    9.588493763261E-07));
#168 = PCURVE('',#33,#169);
#169 = DEFINITIONAL_REPRESENTATION('',(#170),#173);
#170 = B_SPLINE_CURVE_WITH_KNOTS('',1,(#171,#172),.UNSPECIFIED.,.F.,.F.,
  (2,2),(0.,1.),.PIECEWISE_BEZIER_KNOTS.);
#171 = CARTESIAN_POINT('',(1.000052181708,-0.127903920433));
#172 = CARTESIAN_POINT('',(1.000104362813,0.500802241401));
#173 = ( GEOMETRIC_REPRESENTATION_CONTEXT(2) 
PARAMETRIC_REPRESENTATION_CONTEXT() REPRESENTATION_CONTEXT('2D SPACE',''
  ) );
#174 = PCURVE('',#175,#196);
#175 = B_SPLINE_SURFACE_WITH_KNOTS('',3,4,(
    (#176,#177,#178,#179,#180)
    ,(#181,#182,#183,#184,#185)
    ,(#186,#187,#188,#189,#190)
    ,(#191,#192,#193,#194,#195
    )),.UNSPECIFIED.,.T.,.T.,.F.,(1,3,3,1),(1,4,4,1),(-1.,0.,1.,2.),(-1.
    ,0.,1.,2.),.UNSPECIFIED.);
#176 = CARTESIAN_POINT('',(-0.809101938814,0.301300005974,
    -5.999549964134E-08));
#177 = CARTESIAN_POINT('',(-0.848898921832,0.297429123859,
    -5.999549964141E-08));
#178 = CARTESIAN_POINT('',(-0.87887602635,0.280086245895,
    -5.999549964134E-08));
#179 = CARTESIAN_POINT('',(-0.896747417956,0.250068273634,
    -5.999549964127E-08));
#180 = CARTESIAN_POINT('',(-0.809101938814,0.301300005974,
    -5.999549964134E-08));
#181 = CARTESIAN_POINT('',(-0.809101938814,0.301300005974,
    -1.999849956307E-08));
#182 = CARTESIAN_POINT('',(-0.848898921832,0.297429123859,
    -1.999849956314E-08));
#183 = CARTESIAN_POINT('',(-0.87887602635,0.280086245895,
    -1.999849956307E-08));
#184 = CARTESIAN_POINT('',(-0.896747417956,0.250068273634,
    -1.9998499563E-08));
#185 = CARTESIAN_POINT('',(-0.809101938814,0.301300005974,
    -1.999849956307E-08));
#186 = CARTESIAN_POINT('',(-0.809101938815,0.301300005974,
    1.999850051521E-08));
#187 = CARTESIAN_POINT('',(-0.848898921833,0.297429123859,
    1.999850051514E-08));
#188 = CARTESIAN_POINT('',(-0.878876026351,0.280086245895,
    1.999850051521E-08));
#189 = CARTESIAN_POINT('',(-0.896747417956,0.250068273635,
    1.999850051528E-08));
#190 = CARTESIAN_POINT('',(-0.809101938815,0.301300005974,
    1.999850051521E-08));
#191 = CARTESIAN_POINT('',(-0.809101938814,0.301300005974,
    -5.999549964134E-08));
#192 = CARTESIAN_POINT('',(-0.848898921832,0.297429123859,
    -5.999549964141E-08));
#193 = CARTESIAN_POINT('',(-0.87887602635,0.280086245895,
    -5.999549964134E-08));
#194 = CARTESIAN_POINT('',(-0.896747417956,0.250068273634,
    -5.999549964127E-08));
#195 = CARTESIAN_POINT('',(-0.809101938814,0.301300005974,
    -5.999549964134E-08));
#196 = DEFINITIONAL_REPRESENTATION('',(#197),#200);
#197 = B_SPLINE_CURVE_WITH_KNOTS('',1,(#198,#199),.UNSPECIFIED.,.F.,.F.,
  (2,2),(0.,1.),.PIECEWISE_BEZIER_KNOTS.);
#198 = CARTESIAN_POINT('',(1.,1.650335680428));
#199 = CARTESIAN_POINT('',(1.5766208,1.650335680429));
#200 = ( GEOMETRIC_REPRESENTATION_CONTEXT(2) 
PARAMETRIC_REPRESENTATION_CONTEXT() REPRESENTATION_CONTEXT('2D SPACE',''
  ) );
#201 = ADVANCED_FACE('',(#202),#94,.F.);
#202 = FACE_BOUND('',#203,.F.);
#203 = EDGE_LOOP('',(#204,#245,#307,#308));
#204 = ORIENTED_EDGE('',*,*,#205,.F.);
#205 = EDGE_CURVE('',#206,#208,#210,.T.);
#206 = VERTEX_POINT('',#207);
#207 = CARTESIAN_POINT('',(-0.809718375597,-0.300728112245,
    -7.504794312083E-04));
#208 = VERTEX_POINT('',#209);
#209 = CARTESIAN_POINT('',(-0.809550985693,-0.300650014562,
    7.504794312074E-04));
#210 = SURFACE_CURVE('',#211,(#216,#222),.PCURVE_S1.);
#211 = B_SPLINE_CURVE_WITH_KNOTS('',3,(#212,#213,#214,#215),
  .UNSPECIFIED.,.F.,.F.,(4,4),(0.,1.),.PIECEWISE_BEZIER_KNOTS.);
#212 = CARTESIAN_POINT('',(-0.810000008626,-0.300000014233,
    -9.588493781542E-07));
#213 = CARTESIAN_POINT('',(-0.810000008626,-0.300000014233,
    -3.196164599941E-07));
#214 = CARTESIAN_POINT('',(-0.810000008625,-0.300000014232,
    3.19616458166E-07));
#215 = CARTESIAN_POINT('',(-0.810000008624,-0.300000014232,
    9.588493763261E-07));
#216 = PCURVE('',#94,#217);
#217 = DEFINITIONAL_REPRESENTATION('',(#218),#221);
#218 = B_SPLINE_CURVE_WITH_KNOTS('',1,(#219,#220),.UNSPECIFIED.,.F.,.F.,
  (2,2),(0.,1.),.PIECEWISE_BEZIER_KNOTS.);
#219 = CARTESIAN_POINT('',(-0.42,0.650335675991));
#220 = CARTESIAN_POINT('',(0.5794,0.650335675992));
#221 = ( GEOMETRIC_REPRESENTATION_CONTEXT(2) 
PARAMETRIC_REPRESENTATION_CONTEXT() REPRESENTATION_CONTEXT('2D SPACE',''
  ) );
#222 = PCURVE('',#223,#240);
#223 = B_SPLINE_SURFACE_WITH_KNOTS('',3,3,(
    (#224,#225,#226,#227)
    ,(#228,#229,#230,#231)
    ,(#232,#233,#234,#235)
    ,(#236,#237,#238,#239
    )),.UNSPECIFIED.,.T.,.F.,.F.,(1,3,3,1),(4,4),(-1.,0.,1.,2.),(0.,1.),
  .UNSPECIFIED.);
#224 = CARTESIAN_POINT('',(-0.809997156278,-0.300000010086,
    -2.399280179102E-07));
#225 = CARTESIAN_POINT('',(-0.26999905257,-0.300000010086,
    -2.399280179103E-07));
#226 = CARTESIAN_POINT('',(0.26999905256,-0.300000010086,
    -2.399280179101E-07));
#227 = CARTESIAN_POINT('',(0.809997156268,-0.300000010086,
    -2.399280179102E-07));
#228 = CARTESIAN_POINT('',(-0.80999715628,-0.300000010086,
    -7.99760041019E-08));
#229 = CARTESIAN_POINT('',(-0.269999052571,-0.300000010086,
    -7.997600410203E-08));
#230 = CARTESIAN_POINT('',(0.269999052561,-0.300000010086,
    -7.997600410189E-08));
#231 = CARTESIAN_POINT('',(0.80999715627,-0.300000010086,
    -7.997600410196E-08));
#232 = CARTESIAN_POINT('',(-0.809997156282,-0.300000010087,
    7.997600970636E-08));
#233 = CARTESIAN_POINT('',(-0.269999052572,-0.300000010087,
    7.997600970622E-08));
#234 = CARTESIAN_POINT('',(0.269999052562,-0.300000010087,
    7.997600970636E-08));
#235 = CARTESIAN_POINT('',(0.809997156272,-0.300000010087,
    7.997600970629E-08));
#236 = CARTESIAN_POINT('',(-0.809997156278,-0.300000010086,
    -2.399280179102E-07));
#237 = CARTESIAN_POINT('',(-0.26999905257,-0.300000010086,
    -2.399280179103E-07));
#238 = CARTESIAN_POINT('',(0.26999905256,-0.300000010086,
    -2.399280179101E-07));
#239 = CARTESIAN_POINT('',(0.809997156268,-0.300000010086,
    -2.399280179102E-07));
#240 = DEFINITIONAL_REPRESENTATION('',(#241),#244);
#241 = B_SPLINE_CURVE_WITH_KNOTS('',1,(#242,#243),.UNSPECIFIED.,.F.,.F.,
  (2,2),(0.,1.),.PIECEWISE_BEZIER_KNOTS.);
#242 = CARTESIAN_POINT('',(1.136363636364E-04,-1.760713640058E-06));
#243 = CARTESIAN_POINT('',(0.581376849894,-1.760713435091E-06));
#244 = ( GEOMETRIC_REPRESENTATION_CONTEXT(2) 
PARAMETRIC_REPRESENTATION_CONTEXT() REPRESENTATION_CONTEXT('2D SPACE',''
  ) );
#245 = ORIENTED_EDGE('',*,*,#246,.F.);
#246 = EDGE_CURVE('',#22,#206,#247,.T.);
#247 = SURFACE_CURVE('',#248,(#254,#283),.PCURVE_S1.);
#248 = B_SPLINE_CURVE_WITH_KNOTS('',4,(#249,#250,#251,#252,#253),
  .UNSPECIFIED.,.F.,.F.,(5,5),(0.,1.),.PIECEWISE_BEZIER_KNOTS.);
#249 = CARTESIAN_POINT('',(-0.901299994033,-0.20910195179,
    -1.500000013039E-03));
#250 = CARTESIAN_POINT('',(-0.897429118932,-0.248898936285,
    -1.500000013039E-03));
#251 = CARTESIAN_POINT('',(-0.880086252846,-0.278876052839,
    -1.500000013039E-03));
#252 = CARTESIAN_POINT('',(-0.850068291527,-0.296747457713,
    -1.500000013039E-03));
#253 = CARTESIAN_POINT('',(-0.809436742567,-0.301456210257,
    -1.500000013039E-03));
#254 = PCURVE('',#94,#255);
#255 = DEFINITIONAL_REPRESENTATION('',(#256),#282);
#256 = B_SPLINE_CURVE_WITH_KNOTS('',3,(#257,#258,#259,#260,#261,#262,
    #263,#264,#265,#266,#267,#268,#269,#270,#271,#272,#273,#274,#275,
    #276,#277,#278,#279,#280,#281),.UNSPECIFIED.,.F.,.F.,(4,1,1,1,1,1,1,
    1,1,1,1,1,1,1,1,1,1,1,1,1,1,1,4),(0.,4.545454545455E-02,
    9.090909090909E-02,0.136363636364,0.181818181818,0.227272727273,
    0.272727272727,0.318181818182,0.363636363636,0.409090909091,
    0.454545454545,0.5,0.545454545455,0.590909090909,0.636363636364,
    0.681818181818,0.727272727273,0.772727272727,0.818181818182,
    0.863636363636,0.909090909091,0.954545454545,1.),
  .QUASI_UNIFORM_KNOTS.);
#257 = CARTESIAN_POINT('',(1.136363636364E-04,7.948807612124E-09));
#258 = CARTESIAN_POINT('',(1.136363636364E-04,1.515931628431E-02));
#259 = CARTESIAN_POINT('',(1.136363408478E-04,4.54489392113E-02));
#260 = CARTESIAN_POINT('',(1.136364433966E-04,9.093431869572E-02));
#261 = CARTESIAN_POINT('',(1.136360673843E-04,0.136563422121));
#262 = CARTESIAN_POINT('',(1.136374688843E-04,0.182587044511));
#263 = CARTESIAN_POINT('',(1.136322388962E-04,0.229374355048));
#264 = CARTESIAN_POINT('',(1.136517573484E-04,0.2776300345));
#265 = CARTESIAN_POINT('',(1.135789135286E-04,0.328053956844));
#266 = CARTESIAN_POINT('',(1.138507703485E-04,0.383551733622));
#267 = CARTESIAN_POINT('',(1.128361868787E-04,0.443452812301));
#268 = CARTESIAN_POINT('',(1.166226639055E-04,0.533273095427));
#269 = CARTESIAN_POINT('',(1.024913392328E-04,0.636985731245));
#270 = CARTESIAN_POINT('',(1.552301595988E-04,0.623489791534));
#271 = CARTESIAN_POINT('',(-4.159379590742E-05,0.632397891631));
#272 = CARTESIAN_POINT('',(1.114502403084E-05,0.633524343307));
#273 = CARTESIAN_POINT('',(-2.986300215949E-06,0.636112361201));
#274 = CARTESIAN_POINT('',(8.001768329525E-07,0.638034560568));
#275 = CARTESIAN_POINT('',(-2.144071158615E-07,0.6400030994));
#276 = CARTESIAN_POINT('',(5.745163049326E-08,0.641896479914));
#277 = CARTESIAN_POINT('',(-1.53994061116E-08,0.643785697178));
#278 = CARTESIAN_POINT('',(4.145993953122E-09,0.645675235594));
#279 = CARTESIAN_POINT('',(-1.184569700892E-09,0.647579744248));
#280 = CARTESIAN_POINT('',(0.,0.64886390122));
#281 = CARTESIAN_POINT('',(0.,0.649511102769));
#282 = ( GEOMETRIC_REPRESENTATION_CONTEXT(2) 
PARAMETRIC_REPRESENTATION_CONTEXT() REPRESENTATION_CONTEXT('2D SPACE',''
  ) );
#283 = PCURVE('',#138,#284);
#284 = DEFINITIONAL_REPRESENTATION('',(#285),#306);
#285 = B_SPLINE_CURVE_WITH_KNOTS('',10,(#286,#287,#288,#289,#290,#291,
    #292,#293,#294,#295,#296,#297,#298,#299,#300,#301,#302,#303,#304,
    #305),.UNSPECIFIED.,.F.,.F.,(11,9,11),(0.,0.5,1.),.UNSPECIFIED.);
#286 = CARTESIAN_POINT('',(0.150903096418,-8.104302965084E-04));
#287 = CARTESIAN_POINT('',(0.137662080728,-2.990066599192E-04));
#288 = CARTESIAN_POINT('',(0.130937093458,1.603600635452E-04));
#289 = CARTESIAN_POINT('',(9.880122798378E-02,2.020282037697E-03));
#290 = CARTESIAN_POINT('',(0.124040359166,1.594705568093E-03));
#291 = CARTESIAN_POINT('',(6.891749012861E-02,4.952524064823E-03));
#292 = CARTESIAN_POINT('',(9.460217365343E-02,5.028561024253E-03));
#293 = CARTESIAN_POINT('',(6.51563433381E-02,7.76318670983E-03));
#294 = CARTESIAN_POINT('',(6.262878710742E-02,9.582668664264E-03));
#295 = CARTESIAN_POINT('',(5.302003955086E-02,1.196895306894E-02));
#296 = CARTESIAN_POINT('',(3.72318342532E-02,1.711242785554E-02));
#297 = CARTESIAN_POINT('',(3.084809424787E-02,1.997166630193E-02));
#298 = CARTESIAN_POINT('',(2.136273071218E-02,2.28342994824E-02));
#299 = CARTESIAN_POINT('',(1.838217331146E-02,2.624495939512E-02));
#300 = CARTESIAN_POINT('',(1.441388870142E-02,2.984041466534E-02));
#301 = CARTESIAN_POINT('',(5.944601924617E-03,3.33584901099E-02));
#302 = CARTESIAN_POINT('',(2.247947881338E-03,3.7206212117E-02));
#303 = CARTESIAN_POINT('',(5.724916951116E-03,4.163495186992E-02));
#304 = CARTESIAN_POINT('',(-3.950006911121E-03,4.580440591589E-02));
#305 = CARTESIAN_POINT('',(-1.134583033089E-03,5.025132104884E-02));
#306 = ( GEOMETRIC_REPRESENTATION_CONTEXT(2) 
PARAMETRIC_REPRESENTATION_CONTEXT() REPRESENTATION_CONTEXT('2D SPACE',''
  ) );
#307 = ORIENTED_EDGE('',*,*,#79,.T.);
#308 = ORIENTED_EDGE('',*,*,#309,.F.);
#309 = EDGE_CURVE('',#208,#22,#310,.T.);
#310 = SURFACE_CURVE('',#311,(#317,#346),.PCURVE_S1.);
#311 = B_SPLINE_CURVE_WITH_KNOTS('',4,(#312,#313,#314,#315,#316),
  .UNSPECIFIED.,.F.,.F.,(5,5),(0.,1.),.PIECEWISE_BEZIER_KNOTS.);
#312 = CARTESIAN_POINT('',(-0.809101962761,-0.301300014891,
    1.500000013039E-03));
#313 = CARTESIAN_POINT('',(-0.848898946956,-0.297429132662,
    1.500000013039E-03));
#314 = CARTESIAN_POINT('',(-0.878876052361,-0.280086254184,
    1.500000013039E-03));
#315 = CARTESIAN_POINT('',(-0.896747444496,-0.250068281035,
    1.500000013039E-03));
#316 = CARTESIAN_POINT('',(-0.901456189426,-0.20943673081,
    1.500000013039E-03));
#317 = PCURVE('',#94,#318);
#318 = DEFINITIONAL_REPRESENTATION('',(#319),#345);
#319 = B_SPLINE_CURVE_WITH_KNOTS('',3,(#320,#321,#322,#323,#324,#325,
    #326,#327,#328,#329,#330,#331,#332,#333,#334,#335,#336,#337,#338,
    #339,#340,#341,#342,#343,#344),.UNSPECIFIED.,.F.,.F.,(4,1,1,1,1,1,1,
    1,1,1,1,1,1,1,1,1,1,1,1,1,1,1,4),(0.,4.545454545455E-02,
    9.090909090909E-02,0.136363636364,0.181818181818,0.227272727273,
    0.272727272727,0.318181818182,0.363636363636,0.409090909091,
    0.454545454545,0.5,0.545454545455,0.590909090909,0.636363636364,
    0.681818181818,0.727272727273,0.772727272727,0.818181818182,
    0.863636363636,0.909090909091,0.954545454545,1.),
  .QUASI_UNIFORM_KNOTS.);
#320 = CARTESIAN_POINT('',(0.577344,0.649732485388));
#321 = CARTESIAN_POINT('',(0.577350222222,0.649073502449));
#322 = CARTESIAN_POINT('',(0.577347475177,0.647767926303));
#323 = CARTESIAN_POINT('',(0.577322503547,0.645838224741));
#324 = CARTESIAN_POINT('',(0.577330510637,0.643930272437));
#325 = CARTESIAN_POINT('',(0.577323453907,0.642031579998));
#326 = CARTESIAN_POINT('',(0.577343673735,0.640133962242));
#327 = CARTESIAN_POINT('',(0.577337051154,0.638188865703));
#328 = CARTESIAN_POINT('',(0.57737212165,0.63625160606));
#329 = CARTESIAN_POINT('',(0.577238462247,0.633895125952));
#330 = CARTESIAN_POINT('',(0.577738029361,0.632275974091));
#331 = CARTESIAN_POINT('',(0.575873420308,0.626052755016));
#332 = CARTESIAN_POINT('',(0.582851489408,0.632032460837));
#333 = CARTESIAN_POINT('',(0.580981721428,0.571425793179));
#334 = CARTESIAN_POINT('',(0.581482724248,0.454015383848));
#335 = CARTESIAN_POINT('',(0.581348480947,0.39645824017));
#336 = CARTESIAN_POINT('',(0.581384451331,0.337629787423));
#337 = CARTESIAN_POINT('',(0.581374813095,0.286190472761));
#338 = CARTESIAN_POINT('',(0.581377395654,0.236634741687));
#339 = CARTESIAN_POINT('',(0.581376703655,0.188774705175));
#340 = CARTESIAN_POINT('',(0.581376889092,0.141682362191));
#341 = CARTESIAN_POINT('',(0.581376839341,9.500731164181E-02));
#342 = CARTESIAN_POINT('',(0.58137685291,4.847639660992E-02));
#343 = CARTESIAN_POINT('',(0.581376849894,1.749323191712E-02));
#344 = CARTESIAN_POINT('',(0.581376849894,1.987531106243E-03));
#345 = ( GEOMETRIC_REPRESENTATION_CONTEXT(2) 
PARAMETRIC_REPRESENTATION_CONTEXT() REPRESENTATION_CONTEXT('2D SPACE',''
  ) );
#346 = PCURVE('',#56,#347);
#347 = DEFINITIONAL_REPRESENTATION('',(#348),#387);
#348 = B_SPLINE_CURVE_WITH_KNOTS('',10,(#349,#350,#351,#352,#353,#354,
    #355,#356,#357,#358,#359,#360,#361,#362,#363,#364,#365,#366,#367,
    #368,#369,#370,#371,#372,#373,#374,#375,#376,#377,#378,#379,#380,
    #381,#382,#383,#384,#385,#386),.UNSPECIFIED.,.F.,.F.,(11,9,9,9,11),(
    0.,0.25,0.5,0.75,1.),.UNSPECIFIED.);
#349 = CARTESIAN_POINT('',(-1.264759145046E-03,5.015832638862E-02));
#350 = CARTESIAN_POINT('',(-2.587386308223E-03,4.798112335262E-02));
#351 = CARTESIAN_POINT('',(-8.292918480884E-04,4.826242696057E-02));
#352 = CARTESIAN_POINT('',(6.210342187541E-04,3.94862469306E-02));
#353 = CARTESIAN_POINT('',(1.454341236825E-03,4.761371405561E-02));
#354 = CARTESIAN_POINT('',(2.551634572621E-03,3.514822269509E-02));
#355 = CARTESIAN_POINT('',(5.119217476776E-03,4.060448350474E-02));
#356 = CARTESIAN_POINT('',(6.104059445231E-03,3.50856466822E-02));
#357 = CARTESIAN_POINT('',(8.416110666391E-03,3.430432043905E-02));
#358 = CARTESIAN_POINT('',(1.048424115011E-02,3.231842478243E-02));
#359 = CARTESIAN_POINT('',(1.509442661747E-02,2.876769344098E-02));
#360 = CARTESIAN_POINT('',(1.757038595914E-02,2.704125948089E-02));
#361 = CARTESIAN_POINT('',(2.021763132253E-02,2.536429689169E-02));
#362 = CARTESIAN_POINT('',(2.303658212132E-02,2.373734533366E-02));
#363 = CARTESIAN_POINT('',(2.602765776926E-02,2.216094446708E-02));
#364 = CARTESIAN_POINT('',(2.919127768002E-02,2.06356339522E-02));
#365 = CARTESIAN_POINT('',(3.252786126737E-02,1.916195344932E-02));
#366 = CARTESIAN_POINT('',(3.603782794498E-02,1.774044261868E-02));
#367 = CARTESIAN_POINT('',(3.972159712659E-02,1.637164112058E-02));
#368 = CARTESIAN_POINT('',(4.74375793252E-02,1.374053610997E-02));
#369 = CARTESIAN_POINT('',(5.147125456971E-02,1.247867357154E-02));
#370 = CARTESIAN_POINT('',(5.56793781436E-02,1.127147067661E-02));
#371 = CARTESIAN_POINT('',(6.006071423092E-02,1.011989710179E-02));
#372 = CARTESIAN_POINT('',(6.461402701597E-02,9.024922523688E-03));
#373 = CARTESIAN_POINT('',(6.933808068269E-02,7.987516618924E-03));
#374 = CARTESIAN_POINT('',(7.423163941544E-02,7.008649064118E-03));
#375 = CARTESIAN_POINT('',(7.929346739818E-02,6.089289535878E-03));
#376 = CARTESIAN_POINT('',(8.452232881517E-02,5.230407710823E-03));
#377 = CARTESIAN_POINT('',(9.531164688583E-02,3.635538820308E-03));
#378 = CARTESIAN_POINT('',(0.101556349815,2.874186915214E-03));
#379 = CARTESIAN_POINT('',(0.104068792503,2.318243317327E-03));
#380 = CARTESIAN_POINT('',(0.116158124315,1.477774278493E-03));
#381 = CARTESIAN_POINT('',(0.117120714074,1.118175985931E-03));
#382 = CARTESIAN_POINT('',(0.12150893603,6.995943845913E-04));
#383 = CARTESIAN_POINT('',(0.136319739872,-3.345465699239E-05));
#384 = CARTESIAN_POINT('',(0.134209238347,-6.714508566312E-05));
#385 = CARTESIAN_POINT('',(0.144675194529,-5.036755883687E-04));
#386 = CARTESIAN_POINT('',(0.151461118494,-7.236548290081E-04));
#387 = ( GEOMETRIC_REPRESENTATION_CONTEXT(2) 
PARAMETRIC_REPRESENTATION_CONTEXT() REPRESENTATION_CONTEXT('2D SPACE',''
  ) );
#388 = ADVANCED_FACE('',(#389),#223,.F.);
#389 = FACE_BOUND('',#390,.F.);
#390 = EDGE_LOOP('',(#391,#421,#464,#492));
#391 = ORIENTED_EDGE('',*,*,#392,.F.);
#392 = EDGE_CURVE('',#393,#208,#395,.T.);
#393 = VERTEX_POINT('',#394);
#394 = CARTESIAN_POINT('',(0.809718375597,-0.300728112245,
    7.504794312083E-04));
#395 = SURFACE_CURVE('',#396,(#401,#407),.PCURVE_S1.);
#396 = B_SPLINE_CURVE_WITH_KNOTS('',3,(#397,#398,#399,#400),
  .UNSPECIFIED.,.F.,.F.,(4,4),(0.,1.),.PIECEWISE_BEZIER_KNOTS.);
#397 = CARTESIAN_POINT('',(0.809988638543,-0.300000011921,
    1.500000013038E-03));
#398 = CARTESIAN_POINT('',(0.269996213325,-0.300000011921,
    1.500000013038E-03));
#399 = CARTESIAN_POINT('',(-0.269996213316,-0.300000011921,
    1.500000013039E-03));
#400 = CARTESIAN_POINT('',(-0.809988638533,-0.300000011921,
    1.500000013039E-03));
#401 = PCURVE('',#223,#402);
#402 = DEFINITIONAL_REPRESENTATION('',(#403),#406);
#403 = B_SPLINE_CURVE_WITH_KNOTS('',1,(#404,#405),.UNSPECIFIED.,.F.,.F.,
  (2,2),(0.,1.),.PIECEWISE_BEZIER_KNOTS.);
#404 = CARTESIAN_POINT('',(0.577350269358,0.999994742125));
#405 = CARTESIAN_POINT('',(0.577350269358,5.257886965704E-06));
#406 = ( GEOMETRIC_REPRESENTATION_CONTEXT(2) 
PARAMETRIC_REPRESENTATION_CONTEXT() REPRESENTATION_CONTEXT('2D SPACE',''
  ) );
#407 = PCURVE('',#56,#408);
#408 = DEFINITIONAL_REPRESENTATION('',(#409),#420);
#409 = B_SPLINE_CURVE_WITH_KNOTS('',9,(#410,#411,#412,#413,#414,#415,
    #416,#417,#418,#419),.UNSPECIFIED.,.F.,.F.,(10,10),(0.,1.),
  .PIECEWISE_BEZIER_KNOTS.);
#410 = CARTESIAN_POINT('',(-1.13458303308E-03,0.949748678957));
#411 = CARTESIAN_POINT('',(-1.149053470519E-03,0.849749794982));
#412 = CARTESIAN_POINT('',(-1.163116742336E-03,0.752564655084));
#413 = CARTESIAN_POINT('',(-1.178921532177E-03,0.64334464344));
#414 = CARTESIAN_POINT('',(-1.19100511086E-03,0.55984029964));
#415 = CARTESIAN_POINT('',(-1.208245515404E-03,0.440699380709));
#416 = CARTESIAN_POINT('',(-1.220557955674E-03,0.35561347427));
#417 = CARTESIAN_POINT('',(-1.236118592087E-03,0.248080700515));
#418 = CARTESIAN_POINT('',(-1.250288707608E-03,0.150157210364));
#419 = CARTESIAN_POINT('',(-1.264759145046E-03,5.015832638862E-02));
#420 = ( GEOMETRIC_REPRESENTATION_CONTEXT(2) 
PARAMETRIC_REPRESENTATION_CONTEXT() REPRESENTATION_CONTEXT('2D SPACE',''
  ) );
#421 = ORIENTED_EDGE('',*,*,#422,.F.);
#422 = EDGE_CURVE('',#423,#393,#425,.T.);
#423 = VERTEX_POINT('',#424);
#424 = CARTESIAN_POINT('',(0.809550985693,-0.300650014562,
    -7.504794312074E-04));
#425 = SURFACE_CURVE('',#426,(#431,#437),.PCURVE_S1.);
#426 = B_SPLINE_CURVE_WITH_KNOTS('',3,(#427,#428,#429,#430),
  .UNSPECIFIED.,.F.,.F.,(4,4),(0.,1.),.PIECEWISE_BEZIER_KNOTS.);
#427 = CARTESIAN_POINT('',(0.810000008626,-0.300000014233,
    -9.588493781542E-07));
#428 = CARTESIAN_POINT('',(0.810000008626,-0.300000014233,
    -3.196164599941E-07));
#429 = CARTESIAN_POINT('',(0.810000008625,-0.300000014232,
    3.19616458166E-07));
#430 = CARTESIAN_POINT('',(0.810000008624,-0.300000014232,
    9.588493763261E-07));
#431 = PCURVE('',#223,#432);
#432 = DEFINITIONAL_REPRESENTATION('',(#433),#436);
#433 = B_SPLINE_CURVE_WITH_KNOTS('',1,(#434,#435),.UNSPECIFIED.,.F.,.F.,
  (2,2),(0.,1.),.PIECEWISE_BEZIER_KNOTS.);
#434 = CARTESIAN_POINT('',(1.136363636364E-04,1.000001760721));
#435 = CARTESIAN_POINT('',(0.581376849894,1.000001760718));
#436 = ( GEOMETRIC_REPRESENTATION_CONTEXT(2) 
PARAMETRIC_REPRESENTATION_CONTEXT() REPRESENTATION_CONTEXT('2D SPACE',''
  ) );
#437 = PCURVE('',#438,#459);
#438 = B_SPLINE_SURFACE_WITH_KNOTS('',3,4,(
    (#439,#440,#441,#442,#443)
    ,(#444,#445,#446,#447,#448)
    ,(#449,#450,#451,#452,#453)
    ,(#454,#455,#456,#457,#458
    )),.UNSPECIFIED.,.T.,.T.,.F.,(1,3,3,1),(1,4,4,1),(-1.,0.,1.,2.),(-1.
    ,0.,1.,2.),.UNSPECIFIED.);
#439 = CARTESIAN_POINT('',(0.809101938814,-0.301300005974,
    -5.999549964134E-08));
#440 = CARTESIAN_POINT('',(0.848898921832,-0.297429123859,
    -5.999549964141E-08));
#441 = CARTESIAN_POINT('',(0.87887602635,-0.280086245895,
    -5.999549964134E-08));
#442 = CARTESIAN_POINT('',(0.896747417956,-0.250068273634,
    -5.999549964127E-08));
#443 = CARTESIAN_POINT('',(0.809101938814,-0.301300005974,
    -5.999549964134E-08));
#444 = CARTESIAN_POINT('',(0.809101938814,-0.301300005974,
    -1.999849956307E-08));
#445 = CARTESIAN_POINT('',(0.848898921832,-0.297429123859,
    -1.999849956314E-08));
#446 = CARTESIAN_POINT('',(0.87887602635,-0.280086245895,
    -1.999849956307E-08));
#447 = CARTESIAN_POINT('',(0.896747417956,-0.250068273634,
    -1.9998499563E-08));
#448 = CARTESIAN_POINT('',(0.809101938814,-0.301300005974,
    -1.999849956307E-08));
#449 = CARTESIAN_POINT('',(0.809101938815,-0.301300005974,
    1.999850051521E-08));
#450 = CARTESIAN_POINT('',(0.848898921833,-0.297429123859,
    1.999850051514E-08));
#451 = CARTESIAN_POINT('',(0.878876026351,-0.280086245895,
    1.999850051521E-08));
#452 = CARTESIAN_POINT('',(0.896747417956,-0.250068273635,
    1.999850051528E-08));
#453 = CARTESIAN_POINT('',(0.809101938815,-0.301300005974,
    1.999850051521E-08));
#454 = CARTESIAN_POINT('',(0.809101938814,-0.301300005974,
    -5.999549964134E-08));
#455 = CARTESIAN_POINT('',(0.848898921832,-0.297429123859,
    -5.999549964141E-08));
#456 = CARTESIAN_POINT('',(0.87887602635,-0.280086245895,
    -5.999549964134E-08));
#457 = CARTESIAN_POINT('',(0.896747417956,-0.250068273634,
    -5.999549964127E-08));
#458 = CARTESIAN_POINT('',(0.809101938814,-0.301300005974,
    -5.999549964134E-08));
#459 = DEFINITIONAL_REPRESENTATION('',(#460),#463);
#460 = B_SPLINE_CURVE_WITH_KNOTS('',1,(#461,#462),.UNSPECIFIED.,.F.,.F.,
  (2,2),(0.,1.),.PIECEWISE_BEZIER_KNOTS.);
#461 = CARTESIAN_POINT('',(1.136363636361E-04,0.996453644863));
#462 = CARTESIAN_POINT('',(0.581376849894,0.996453644861));
#463 = ( GEOMETRIC_REPRESENTATION_CONTEXT(2) 
PARAMETRIC_REPRESENTATION_CONTEXT() REPRESENTATION_CONTEXT('2D SPACE',''
  ) );
#464 = ORIENTED_EDGE('',*,*,#465,.F.);
#465 = EDGE_CURVE('',#206,#423,#466,.T.);
#466 = SURFACE_CURVE('',#467,(#472,#478),.PCURVE_S1.);
#467 = B_SPLINE_CURVE_WITH_KNOTS('',3,(#468,#469,#470,#471),
  .UNSPECIFIED.,.F.,.F.,(4,4),(0.,1.),.PIECEWISE_BEZIER_KNOTS.);
#468 = CARTESIAN_POINT('',(-0.809988638543,-0.300000011921,
    -1.500000013038E-03));
#469 = CARTESIAN_POINT('',(-0.269996213325,-0.300000011921,
    -1.500000013038E-03));
#470 = CARTESIAN_POINT('',(0.269996213316,-0.300000011921,
    -1.500000013039E-03));
#471 = CARTESIAN_POINT('',(0.809988638533,-0.300000011921,
    -1.500000013039E-03));
#472 = PCURVE('',#223,#473);
#473 = DEFINITIONAL_REPRESENTATION('',(#474),#477);
#474 = B_SPLINE_CURVE_WITH_KNOTS('',1,(#475,#476),.UNSPECIFIED.,.F.,.F.,
  (2,2),(0.,1.),.PIECEWISE_BEZIER_KNOTS.);
#475 = CARTESIAN_POINT('',(1.136363636364E-04,5.25787954142E-06));
#476 = CARTESIAN_POINT('',(1.136363636364E-04,0.99999474212));
#477 = ( GEOMETRIC_REPRESENTATION_CONTEXT(2) 
PARAMETRIC_REPRESENTATION_CONTEXT() REPRESENTATION_CONTEXT('2D SPACE',''
  ) );
#478 = PCURVE('',#138,#479);
#479 = DEFINITIONAL_REPRESENTATION('',(#480),#491);
#480 = B_SPLINE_CURVE_WITH_KNOTS('',9,(#481,#482,#483,#484,#485,#486,
    #487,#488,#489,#490),.UNSPECIFIED.,.F.,.F.,(10,10),(0.,1.),
  .PIECEWISE_BEZIER_KNOTS.);
#481 = CARTESIAN_POINT('',(-1.134583033089E-03,5.025132104884E-02));
#482 = CARTESIAN_POINT('',(-1.149053470525E-03,0.150250205024));
#483 = CARTESIAN_POINT('',(-1.163116742341E-03,0.247435344922));
#484 = CARTESIAN_POINT('',(-1.178921532179E-03,0.356655356566));
#485 = CARTESIAN_POINT('',(-1.191005110861E-03,0.440159700366));
#486 = CARTESIAN_POINT('',(-1.208245515403E-03,0.559300619297));
#487 = CARTESIAN_POINT('',(-1.220557955671E-03,0.644386525736));
#488 = CARTESIAN_POINT('',(-1.236118592082E-03,0.751919299492));
#489 = CARTESIAN_POINT('',(-1.250288707601E-03,0.849842789642));
#490 = CARTESIAN_POINT('',(-1.264759145038E-03,0.949841673618));
#491 = ( GEOMETRIC_REPRESENTATION_CONTEXT(2) 
PARAMETRIC_REPRESENTATION_CONTEXT() REPRESENTATION_CONTEXT('2D SPACE',''
  ) );
#492 = ORIENTED_EDGE('',*,*,#205,.T.);
#493 = ADVANCED_FACE('',(#494,#680),#438,.T.);
#494 = FACE_BOUND('',#495,.T.);
#495 = EDGE_LOOP('',(#496,#578,#617,#679));
#496 = ORIENTED_EDGE('',*,*,#497,.T.);
#497 = EDGE_CURVE('',#423,#498,#500,.T.);
#498 = VERTEX_POINT('',#499);
#499 = CARTESIAN_POINT('',(0.90072808626,-0.209718362936,
    -7.504794312083E-04));
#500 = SURFACE_CURVE('',#501,(#507,#536),.PCURVE_S1.);
#501 = B_SPLINE_CURVE_WITH_KNOTS('',4,(#502,#503,#504,#505,#506),
  .UNSPECIFIED.,.F.,.F.,(5,5),(0.,1.),.PIECEWISE_BEZIER_KNOTS.);
#502 = CARTESIAN_POINT('',(0.809101962761,-0.301300014891,
    -1.500000013039E-03));
#503 = CARTESIAN_POINT('',(0.848898946956,-0.297429132662,
    -1.500000013039E-03));
#504 = CARTESIAN_POINT('',(0.878876052361,-0.280086254184,
    -1.500000013039E-03));
#505 = CARTESIAN_POINT('',(0.896747444496,-0.250068281035,
    -1.500000013039E-03));
#506 = CARTESIAN_POINT('',(0.901456189426,-0.20943673081,
    -1.500000013039E-03));
#507 = PCURVE('',#438,#508);
#508 = DEFINITIONAL_REPRESENTATION('',(#509),#535);
#509 = B_SPLINE_CURVE_WITH_KNOTS('',3,(#510,#511,#512,#513,#514,#515,
    #516,#517,#518,#519,#520,#521,#522,#523,#524,#525,#526,#527,#528,
    #529,#530,#531,#532,#533,#534),.UNSPECIFIED.,.F.,.F.,(4,1,1,1,1,1,1,
    1,1,1,1,1,1,1,1,1,1,1,1,1,1,1,4),(0.,4.545454545455E-02,
    9.090909090909E-02,0.136363636364,0.181818181818,0.227272727273,
    0.272727272727,0.318181818182,0.363636363636,0.409090909091,
    0.454545454545,0.5,0.545454545455,0.590909090909,0.636363636364,
    0.681818181818,0.727272727273,0.772727272727,0.818181818182,
    0.863636363636,0.909090909091,0.954545454545,1.),
  .QUASI_UNIFORM_KNOTS.);
#510 = CARTESIAN_POINT('',(1.000113636364,1.000000143621));
#511 = CARTESIAN_POINT('',(1.000113636364,1.015159453404));
#512 = CARTESIAN_POINT('',(1.000113636341,1.04544907907));
#513 = CARTESIAN_POINT('',(1.000113636443,1.090934462457));
#514 = CARTESIAN_POINT('',(1.000113636067,1.136563569747));
#515 = CARTESIAN_POINT('',(1.000113637469,1.182587196463));
#516 = CARTESIAN_POINT('',(1.000113632239,1.229374511901));
#517 = CARTESIAN_POINT('',(1.000113651757,1.277630199284));
#518 = CARTESIAN_POINT('',(1.000113578914,1.328054127897));
#519 = CARTESIAN_POINT('',(1.00011385077,1.383551934484));
#520 = CARTESIAN_POINT('',(1.000112836187,1.443452988272));
#521 = CARTESIAN_POINT('',(1.000116622664,1.533273524739));
#522 = CARTESIAN_POINT('',(1.00010249134,1.63698551));
#523 = CARTESIAN_POINT('',(1.00015523016,1.623489785533));
#524 = CARTESIAN_POINT('',(0.999958406204,1.632397851126));
#525 = CARTESIAN_POINT('',(1.000011145024,1.633524324658));
#526 = CARTESIAN_POINT('',(0.9999970137,1.636112344549));
#527 = CARTESIAN_POINT('',(1.000000800177,1.638034548711));
#528 = CARTESIAN_POINT('',(0.999999785593,1.640003090064));
#529 = CARTESIAN_POINT('',(1.000000057452,1.641896472705));
#530 = CARTESIAN_POINT('',(0.999999984601,1.643785691475));
#531 = CARTESIAN_POINT('',(1.000000004146,1.645675231008));
#532 = CARTESIAN_POINT('',(0.999999998815,1.647579740434));
#533 = CARTESIAN_POINT('',(1.,1.648863897726));
#534 = CARTESIAN_POINT('',(1.,1.649511099394));
#535 = ( GEOMETRIC_REPRESENTATION_CONTEXT(2) 
PARAMETRIC_REPRESENTATION_CONTEXT() REPRESENTATION_CONTEXT('2D SPACE',''
  ) );
#536 = PCURVE('',#138,#537);
#537 = DEFINITIONAL_REPRESENTATION('',(#538),#577);
#538 = B_SPLINE_CURVE_WITH_KNOTS('',10,(#539,#540,#541,#542,#543,#544,
    #545,#546,#547,#548,#549,#550,#551,#552,#553,#554,#555,#556,#557,
    #558,#559,#560,#561,#562,#563,#564,#565,#566,#567,#568,#569,#570,
    #571,#572,#573,#574,#575,#576),.UNSPECIFIED.,.F.,.F.,(11,9,9,9,11),(
    0.,0.25,0.5,0.75,1.),.UNSPECIFIED.);
#539 = CARTESIAN_POINT('',(-1.264759145038E-03,0.949841673618));
#540 = CARTESIAN_POINT('',(-2.587386308214E-03,0.952018876654));
#541 = CARTESIAN_POINT('',(-8.292918480794E-04,0.951737573046));
#542 = CARTESIAN_POINT('',(6.210342187612E-04,0.960513753076));
#543 = CARTESIAN_POINT('',(1.454341236839E-03,0.95238628595));
#544 = CARTESIAN_POINT('',(2.551634572619E-03,0.964851777311));
#545 = CARTESIAN_POINT('',(5.119217476796E-03,0.959395516501));
#546 = CARTESIAN_POINT('',(6.104059445234E-03,0.964914353324));
#547 = CARTESIAN_POINT('',(8.416110666401E-03,0.965695679567));
#548 = CARTESIAN_POINT('',(1.048424115011E-02,0.967681575224));
#549 = CARTESIAN_POINT('',(1.509442661748E-02,0.971232306565));
#550 = CARTESIAN_POINT('',(1.757038595915E-02,0.972958740525));
#551 = CARTESIAN_POINT('',(2.021763132254E-02,0.974635703115));
#552 = CARTESIAN_POINT('',(2.303658212133E-02,0.976262654672));
#553 = CARTESIAN_POINT('',(2.602765776927E-02,0.977839055539));
#554 = CARTESIAN_POINT('',(2.919127768004E-02,0.979364366054));
#555 = CARTESIAN_POINT('',(3.252786126738E-02,0.980838046557));
#556 = CARTESIAN_POINT('',(3.603782794499E-02,0.982259557387));
#557 = CARTESIAN_POINT('',(3.97215971266E-02,0.983628358886));
#558 = CARTESIAN_POINT('',(4.743757932521E-02,0.986259463896));
#559 = CARTESIAN_POINT('',(5.147125456972E-02,0.987521326435));
#560 = CARTESIAN_POINT('',(5.567937814359E-02,0.98872852933));
#561 = CARTESIAN_POINT('',(6.006071423094E-02,0.989880102904));
#562 = CARTESIAN_POINT('',(6.461402701596E-02,0.990975077483));
#563 = CARTESIAN_POINT('',(6.933808068271E-02,0.992012483387));
#564 = CARTESIAN_POINT('',(7.423163941544E-02,0.992991350942));
#565 = CARTESIAN_POINT('',(7.929346739819E-02,0.99391071047));
#566 = CARTESIAN_POINT('',(8.452232881518E-02,0.994769592295));
#567 = CARTESIAN_POINT('',(9.531164688584E-02,0.996364461186));
#568 = CARTESIAN_POINT('',(0.101556349815,0.997125813091));
#569 = CARTESIAN_POINT('',(0.104068792503,0.997681756689));
#570 = CARTESIAN_POINT('',(0.116158124315,0.998522225727));
#571 = CARTESIAN_POINT('',(0.117120714074,0.998881824021));
#572 = CARTESIAN_POINT('',(0.12150893603,0.999300405621));
#573 = CARTESIAN_POINT('',(0.136319739872,1.000033454663));
#574 = CARTESIAN_POINT('',(0.134209238347,1.000067145092));
#575 = CARTESIAN_POINT('',(0.14467519453,1.000503675595));
#576 = CARTESIAN_POINT('',(0.151461118494,1.000723654835));
#577 = ( GEOMETRIC_REPRESENTATION_CONTEXT(2) 
PARAMETRIC_REPRESENTATION_CONTEXT() REPRESENTATION_CONTEXT('2D SPACE',''
  ) );
#578 = ORIENTED_EDGE('',*,*,#579,.T.);
#579 = EDGE_CURVE('',#498,#580,#582,.T.);
#580 = VERTEX_POINT('',#581);
#581 = CARTESIAN_POINT('',(0.900649988562,-0.209550973425,
    7.504794312074E-04));
#582 = SURFACE_CURVE('',#583,(#588,#594),.PCURVE_S1.);
#583 = B_SPLINE_CURVE_WITH_KNOTS('',3,(#584,#585,#586,#587),
  .UNSPECIFIED.,.F.,.F.,(4,4),(0.,1.),.PIECEWISE_BEZIER_KNOTS.);
#584 = CARTESIAN_POINT('',(0.899999983094,-0.209999995062,
    -9.588493781542E-07));
#585 = CARTESIAN_POINT('',(0.899999983093,-0.209999995062,
    -3.196164599941E-07));
#586 = CARTESIAN_POINT('',(0.899999983092,-0.209999995062,
    3.19616458166E-07));
#587 = CARTESIAN_POINT('',(0.899999983092,-0.209999995061,
    9.588493763261E-07));
#588 = PCURVE('',#438,#589);
#589 = DEFINITIONAL_REPRESENTATION('',(#590),#593);
#590 = B_SPLINE_CURVE_WITH_KNOTS('',1,(#591,#592),.UNSPECIFIED.,.F.,.F.,
  (2,2),(0.,1.),.PIECEWISE_BEZIER_KNOTS.);
#591 = CARTESIAN_POINT('',(1.,1.650335680428));
#592 = CARTESIAN_POINT('',(1.5766208,1.650335680429));
#593 = ( GEOMETRIC_REPRESENTATION_CONTEXT(2) 
PARAMETRIC_REPRESENTATION_CONTEXT() REPRESENTATION_CONTEXT('2D SPACE',''
  ) );
#594 = PCURVE('',#595,#612);
#595 = B_SPLINE_SURFACE_WITH_KNOTS('',3,3,(
    (#596,#597,#598,#599)
    ,(#600,#601,#602,#603)
    ,(#604,#605,#606,#607)
    ,(#608,#609,#610,#611
    )),.UNSPECIFIED.,.F.,.F.,.F.,(4,4),(4,4),(0.,1.),(0.,1.),
  .PIECEWISE_BEZIER_KNOTS.);
#596 = CARTESIAN_POINT('',(0.899999974948,-0.209956171852,
    -5.976069016558E-04));
#597 = CARTESIAN_POINT('',(0.899999974888,-0.209956171838,
    -1.992023012629E-04));
#598 = CARTESIAN_POINT('',(0.899999974829,-0.209956171824,
    1.992023000251E-04));
#599 = CARTESIAN_POINT('',(0.899999974769,-0.20995617181,
    5.976069004179E-04));
#600 = CARTESIAN_POINT('',(0.899999974948,-6.998539074106E-02,
    -5.976069016558E-04));
#601 = CARTESIAN_POINT('',(0.899999974888,-6.998539073641E-02,
    -1.992023012629E-04));
#602 = CARTESIAN_POINT('',(0.899999974829,-6.998539073176E-02,
    1.992023000251E-04));
#603 = CARTESIAN_POINT('',(0.899999974769,-6.998539072712E-02,
    5.97606900418E-04));
#604 = CARTESIAN_POINT('',(0.899999974948,6.998539073859E-02,
    -5.976069016559E-04));
#605 = CARTESIAN_POINT('',(0.899999974888,6.998539073394E-02,
    -1.99202301263E-04));
#606 = CARTESIAN_POINT('',(0.899999974829,6.998539072929E-02,
    1.992023000251E-04));
#607 = CARTESIAN_POINT('',(0.899999974769,6.998539072465E-02,
    5.97606900418E-04));
#608 = CARTESIAN_POINT('',(0.899999974948,0.209956171849,
    -5.97606901656E-04));
#609 = CARTESIAN_POINT('',(0.899999974889,0.209956171836,
    -1.99202301263E-04));
#610 = CARTESIAN_POINT('',(0.899999974829,0.209956171822,
    1.992023000251E-04));
#611 = CARTESIAN_POINT('',(0.899999974769,0.209956171808,
    5.976069004181E-04));
#612 = DEFINITIONAL_REPRESENTATION('',(#613),#616);
#613 = B_SPLINE_CURVE_WITH_KNOTS('',1,(#614,#615),.UNSPECIFIED.,.F.,.F.,
  (2,2),(0.,1.),.PIECEWISE_BEZIER_KNOTS.);
#614 = CARTESIAN_POINT('',(-5.218170185281E-05,-0.127903920433));
#615 = CARTESIAN_POINT('',(-1.043628069926E-04,0.500802241401));
#616 = ( GEOMETRIC_REPRESENTATION_CONTEXT(2) 
PARAMETRIC_REPRESENTATION_CONTEXT() REPRESENTATION_CONTEXT('2D SPACE',''
  ) );
#617 = ORIENTED_EDGE('',*,*,#618,.T.);
#618 = EDGE_CURVE('',#580,#393,#619,.T.);
#619 = SURFACE_CURVE('',#620,(#626,#655),.PCURVE_S1.);
#620 = B_SPLINE_CURVE_WITH_KNOTS('',4,(#621,#622,#623,#624,#625),
  .UNSPECIFIED.,.F.,.F.,(5,5),(0.,1.),.PIECEWISE_BEZIER_KNOTS.);
#621 = CARTESIAN_POINT('',(0.901299994033,-0.20910195179,
    1.500000013039E-03));
#622 = CARTESIAN_POINT('',(0.897429118932,-0.248898936285,
    1.500000013039E-03));
#623 = CARTESIAN_POINT('',(0.880086252846,-0.278876052839,
    1.500000013039E-03));
#624 = CARTESIAN_POINT('',(0.850068291527,-0.296747457713,
    1.500000013039E-03));
#625 = CARTESIAN_POINT('',(0.809436742567,-0.301456210257,
    1.500000013039E-03));
#626 = PCURVE('',#438,#627);
#627 = DEFINITIONAL_REPRESENTATION('',(#628),#654);
#628 = B_SPLINE_CURVE_WITH_KNOTS('',3,(#629,#630,#631,#632,#633,#634,
    #635,#636,#637,#638,#639,#640,#641,#642,#643,#644,#645,#646,#647,
    #648,#649,#650,#651,#652,#653),.UNSPECIFIED.,.F.,.F.,(4,1,1,1,1,1,1,
    1,1,1,1,1,1,1,1,1,1,1,1,1,1,1,4),(0.,4.545454545455E-02,
    9.090909090909E-02,0.136363636364,0.181818181818,0.227272727273,
    0.272727272727,0.318181818182,0.363636363636,0.409090909091,
    0.454545454545,0.5,0.545454545455,0.590909090909,0.636363636364,
    0.681818181818,0.727272727273,0.772727272727,0.818181818182,
    0.863636363636,0.909090909091,0.954545454545,1.),
  .QUASI_UNIFORM_KNOTS.);
#629 = CARTESIAN_POINT('',(1.577344,1.649732481707));
#630 = CARTESIAN_POINT('',(1.577343822222,1.64907349868));
#631 = CARTESIAN_POINT('',(1.577338502162,1.647767922279));
#632 = CARTESIAN_POINT('',(1.5773251091,1.645838220053));
#633 = CARTESIAN_POINT('',(1.577329061438,1.643930266757));
#634 = CARTESIAN_POINT('',(1.577326645148,1.642031572959));
#635 = CARTESIAN_POINT('',(1.577332357971,1.640133953271));
#636 = CARTESIAN_POINT('',(1.577340722967,1.638188854437));
#637 = CARTESIAN_POINT('',(1.577368750162,1.636251590425));
#638 = CARTESIAN_POINT('',(1.577238676386,1.633895108609));
#639 = CARTESIAN_POINT('',(1.577740544295,1.632275936871));
#640 = CARTESIAN_POINT('',(1.575872746433,1.626052750644));
#641 = CARTESIAN_POINT('',(1.582851669972,1.632032260178));
#642 = CARTESIAN_POINT('',(1.580981673046,1.571426177887));
#643 = CARTESIAN_POINT('',(1.581482737212,1.454015588071));
#644 = CARTESIAN_POINT('',(1.581348477473,1.396458442085));
#645 = CARTESIAN_POINT('',(1.581384452262,1.337629963994));
#646 = CARTESIAN_POINT('',(1.581374812846,1.286190640671));
#647 = CARTESIAN_POINT('',(1.581377395721,1.23663490183));
#648 = CARTESIAN_POINT('',(1.581376703637,1.18877486029));
#649 = CARTESIAN_POINT('',(1.581376889097,1.141682513192));
#650 = CARTESIAN_POINT('',(1.58137683934,1.095007459092));
#651 = CARTESIAN_POINT('',(1.58137685291,1.048476540601));
#652 = CARTESIAN_POINT('',(1.581376849894,1.017493373533));
#653 = CARTESIAN_POINT('',(1.581376849894,1.001987671471));
#654 = ( GEOMETRIC_REPRESENTATION_CONTEXT(2) 
PARAMETRIC_REPRESENTATION_CONTEXT() REPRESENTATION_CONTEXT('2D SPACE',''
  ) );
#655 = PCURVE('',#56,#656);
#656 = DEFINITIONAL_REPRESENTATION('',(#657),#678);
#657 = B_SPLINE_CURVE_WITH_KNOTS('',10,(#658,#659,#660,#661,#662,#663,
    #664,#665,#666,#667,#668,#669,#670,#671,#672,#673,#674,#675,#676,
    #677),.UNSPECIFIED.,.F.,.F.,(11,9,11),(0.,0.5,1.),.UNSPECIFIED.);
#658 = CARTESIAN_POINT('',(0.150903096418,1.000810430303));
#659 = CARTESIAN_POINT('',(0.137662080728,1.000299006666));
#660 = CARTESIAN_POINT('',(0.130937093458,0.999839639943));
#661 = CARTESIAN_POINT('',(9.88012279838E-02,0.997979717969));
#662 = CARTESIAN_POINT('',(0.124040359166,0.998405294438));
#663 = CARTESIAN_POINT('',(6.891749012865E-02,0.995047475942));
#664 = CARTESIAN_POINT('',(9.460217365341E-02,0.994971438982));
#665 = CARTESIAN_POINT('',(6.515634333812E-02,0.992236813297));
#666 = CARTESIAN_POINT('',(6.262878710743E-02,0.990417331342));
#667 = CARTESIAN_POINT('',(5.302003955087E-02,0.988031046937));
#668 = CARTESIAN_POINT('',(3.723183425321E-02,0.982887572151));
#669 = CARTESIAN_POINT('',(3.084809424788E-02,0.980028333704));
#670 = CARTESIAN_POINT('',(2.136273071219E-02,0.977165700524));
#671 = CARTESIAN_POINT('',(1.838217331147E-02,0.973755040611));
#672 = CARTESIAN_POINT('',(1.441388870143E-02,0.970159585341));
#673 = CARTESIAN_POINT('',(5.944601924625E-03,0.966641509896));
#674 = CARTESIAN_POINT('',(2.247947881348E-03,0.962793787889));
#675 = CARTESIAN_POINT('',(5.724916951125E-03,0.958365048136));
#676 = CARTESIAN_POINT('',(-3.950006911112E-03,0.95419559409));
#677 = CARTESIAN_POINT('',(-1.13458303308E-03,0.949748678957));
#678 = ( GEOMETRIC_REPRESENTATION_CONTEXT(2) 
PARAMETRIC_REPRESENTATION_CONTEXT() REPRESENTATION_CONTEXT('2D SPACE',''
  ) );
#679 = ORIENTED_EDGE('',*,*,#422,.F.);
#680 = FACE_BOUND('',#681,.T.);
#681 = VERTEX_LOOP('',#682);
#682 = VERTEX_POINT('',#683);
#683 = CARTESIAN_POINT('',(0.853239973257,-0.278334774065,
    -2.445787641506E-08));
#684 = ADVANCED_FACE('',(#685),#595,.T.);
#685 = FACE_BOUND('',#686,.T.);
#686 = EDGE_LOOP('',(#687,#688,#710,#753));
#687 = ORIENTED_EDGE('',*,*,#579,.F.);
#688 = ORIENTED_EDGE('',*,*,#689,.T.);
#689 = EDGE_CURVE('',#498,#690,#692,.T.);
#690 = VERTEX_POINT('',#691);
#691 = CARTESIAN_POINT('',(0.90134498676,0.209198395328,
    1.142234252539E-04));
#692 = SURFACE_CURVE('',#693,(#698,#704),.PCURVE_S1.);
#693 = B_SPLINE_CURVE_WITH_KNOTS('',3,(#694,#695,#696,#697),
  .UNSPECIFIED.,.F.,.F.,(4,4),(0.,1.),.PIECEWISE_BEZIER_KNOTS.);
#694 = CARTESIAN_POINT('',(0.899999976159,-0.209956172135,
    -1.50000001304E-03));
#695 = CARTESIAN_POINT('',(0.899999976158,-6.998539083541E-02,
    -1.500000013039E-03));
#696 = CARTESIAN_POINT('',(0.899999976158,6.998539083256E-02,
    -1.500000013038E-03));
#697 = CARTESIAN_POINT('',(0.899999976157,0.209956172132,
    -1.500000013037E-03));
#698 = PCURVE('',#595,#699);
#699 = DEFINITIONAL_REPRESENTATION('',(#700),#703);
#700 = B_SPLINE_CURVE_WITH_KNOTS('',1,(#701,#702),.UNSPECIFIED.,.F.,.F.,
  (2,2),(0.,1.),.PIECEWISE_BEZIER_KNOTS.);
#701 = CARTESIAN_POINT('',(-5.218170185281E-05,-0.127903920433));
#702 = CARTESIAN_POINT('',(1.000000000667,-5.E-02));
#703 = ( GEOMETRIC_REPRESENTATION_CONTEXT(2) 
PARAMETRIC_REPRESENTATION_CONTEXT() REPRESENTATION_CONTEXT('2D SPACE',''
  ) );
#704 = PCURVE('',#138,#705);
#705 = DEFINITIONAL_REPRESENTATION('',(#706),#709);
#706 = B_SPLINE_CURVE_WITH_KNOTS('',1,(#707,#708),.UNSPECIFIED.,.F.,.F.,
  (2,2),(0.,1.),.PIECEWISE_BEZIER_KNOTS.);
#707 = CARTESIAN_POINT('',(0.150037272374,1.000001420611));
#708 = CARTESIAN_POINT('',(0.849962727637,1.000001420611));
#709 = ( GEOMETRIC_REPRESENTATION_CONTEXT(2) 
PARAMETRIC_REPRESENTATION_CONTEXT() REPRESENTATION_CONTEXT('2D SPACE',''
  ) );
#710 = ORIENTED_EDGE('',*,*,#711,.F.);
#711 = EDGE_CURVE('',#690,#690,#712,.T.);
#712 = SURFACE_CURVE('',#713,(#719,#725),.PCURVE_S1.);
#713 = B_SPLINE_CURVE_WITH_KNOTS('',4,(#714,#715,#716,#717,#718),
  .UNSPECIFIED.,.T.,.F.,(1,4,4,1),(-1.,0.,1.,2.),.UNSPECIFIED.);
#714 = CARTESIAN_POINT('',(0.901299984552,0.20910194959,
    -5.999550307967E-08));
#715 = CARTESIAN_POINT('',(0.897429109493,0.248898933667,
    -5.999550307974E-08));
#716 = CARTESIAN_POINT('',(0.880086243589,0.278876049906,
    -5.999550307974E-08));
#717 = CARTESIAN_POINT('',(0.850068282586,0.296747454592,
    -5.999550307967E-08));
#718 = CARTESIAN_POINT('',(0.901299984552,0.20910194959,
    -5.999550307967E-08));
#719 = PCURVE('',#595,#720);
#720 = DEFINITIONAL_REPRESENTATION('',(#721),#724);
#721 = B_SPLINE_CURVE_WITH_KNOTS('',1,(#722,#723),.UNSPECIFIED.,.F.,.F.,
  (2,2),(0.,1.),.PIECEWISE_BEZIER_KNOTS.);
#722 = CARTESIAN_POINT('',(1.000052181833,1.127903921468));
#723 = CARTESIAN_POINT('',(1.000104362813,0.499197759632));
#724 = ( GEOMETRIC_REPRESENTATION_CONTEXT(2) 
PARAMETRIC_REPRESENTATION_CONTEXT() REPRESENTATION_CONTEXT('2D SPACE',''
  ) );
#725 = PCURVE('',#726,#747);
#726 = B_SPLINE_SURFACE_WITH_KNOTS('',3,4,(
    (#727,#728,#729,#730,#731)
    ,(#732,#733,#734,#735,#736)
    ,(#737,#738,#739,#740,#741)
    ,(#742,#743,#744,#745,#746
    )),.UNSPECIFIED.,.T.,.T.,.F.,(1,3,3,1),(1,4,4,1),(-1.,0.,1.,2.),(-1.
    ,0.,1.,2.),.UNSPECIFIED.);
#727 = CARTESIAN_POINT('',(0.901299984552,0.20910194959,
    -5.999550307967E-08));
#728 = CARTESIAN_POINT('',(0.897429109493,0.248898933667,
    -5.999550307974E-08));
#729 = CARTESIAN_POINT('',(0.880086243589,0.278876049906,
    -5.999550307974E-08));
#730 = CARTESIAN_POINT('',(0.850068282586,0.296747454592,
    -5.999550307967E-08));
#731 = CARTESIAN_POINT('',(0.901299984552,0.20910194959,
    -5.999550307967E-08));
#732 = CARTESIAN_POINT('',(0.90129998455,0.20910194959,
    -1.999850300134E-08));
#733 = CARTESIAN_POINT('',(0.897429109491,0.248898933666,
    -1.999850300141E-08));
#734 = CARTESIAN_POINT('',(0.880086243587,0.278876049905,
    -1.999850300141E-08));
#735 = CARTESIAN_POINT('',(0.850068282584,0.296747454591,
    -1.999850300134E-08));
#736 = CARTESIAN_POINT('',(0.90129998455,0.20910194959,
    -1.999850300134E-08));
#737 = CARTESIAN_POINT('',(0.901299984548,0.209101949589,
    1.999849707699E-08));
#738 = CARTESIAN_POINT('',(0.897429109488,0.248898933665,
    1.999849707692E-08));
#739 = CARTESIAN_POINT('',(0.880086243585,0.278876049905,
    1.999849707692E-08));
#740 = CARTESIAN_POINT('',(0.850068282582,0.29674745459,
    1.999849707699E-08));
#741 = CARTESIAN_POINT('',(0.901299984548,0.209101949589,
    1.999849707699E-08));
#742 = CARTESIAN_POINT('',(0.901299984552,0.20910194959,
    -5.999550307967E-08));
#743 = CARTESIAN_POINT('',(0.897429109493,0.248898933667,
    -5.999550307974E-08));
#744 = CARTESIAN_POINT('',(0.880086243589,0.278876049906,
    -5.999550307974E-08));
#745 = CARTESIAN_POINT('',(0.850068282586,0.296747454592,
    -5.999550307967E-08));
#746 = CARTESIAN_POINT('',(0.901299984552,0.20910194959,
    -5.999550307967E-08));
#747 = DEFINITIONAL_REPRESENTATION('',(#748),#752);
#748 = LINE('',#749,#750);
#749 = CARTESIAN_POINT('',(1.,0.));
#750 = VECTOR('',#751,1.);
#751 = DIRECTION('',(0.,1.));
#752 = ( GEOMETRIC_REPRESENTATION_CONTEXT(2) 
PARAMETRIC_REPRESENTATION_CONTEXT() REPRESENTATION_CONTEXT('2D SPACE',''
  ) );
#753 = ORIENTED_EDGE('',*,*,#754,.T.);
#754 = EDGE_CURVE('',#690,#580,#755,.T.);
#755 = SURFACE_CURVE('',#756,(#761,#767),.PCURVE_S1.);
#756 = B_SPLINE_CURVE_WITH_KNOTS('',3,(#757,#758,#759,#760),
  .UNSPECIFIED.,.F.,.F.,(4,4),(0.,1.),.PIECEWISE_BEZIER_KNOTS.);
#757 = CARTESIAN_POINT('',(0.899999976159,0.209956172135,
    1.50000001304E-03));
#758 = CARTESIAN_POINT('',(0.899999976158,6.998539083541E-02,
    1.500000013039E-03));
#759 = CARTESIAN_POINT('',(0.899999976158,-6.998539083256E-02,
    1.500000013038E-03));
#760 = CARTESIAN_POINT('',(0.899999976157,-0.209956172132,
    1.500000013037E-03));
#761 = PCURVE('',#595,#762);
#762 = DEFINITIONAL_REPRESENTATION('',(#763),#766);
#763 = B_SPLINE_CURVE_WITH_KNOTS('',1,(#764,#765),.UNSPECIFIED.,.F.,.F.,
  (2,2),(0.,1.),.PIECEWISE_BEZIER_KNOTS.);
#764 = CARTESIAN_POINT('',(1.000052181833,1.127903921468));
#765 = CARTESIAN_POINT('',(-7.709463825514E-10,1.05));
#766 = ( GEOMETRIC_REPRESENTATION_CONTEXT(2) 
PARAMETRIC_REPRESENTATION_CONTEXT() REPRESENTATION_CONTEXT('2D SPACE',''
  ) );
#767 = PCURVE('',#56,#768);
#768 = DEFINITIONAL_REPRESENTATION('',(#769),#772);
#769 = B_SPLINE_CURVE_WITH_KNOTS('',1,(#770,#771),.UNSPECIFIED.,.F.,.F.,
  (2,2),(0.,1.),.PIECEWISE_BEZIER_KNOTS.);
#770 = CARTESIAN_POINT('',(0.849962727632,1.00000142061));
#771 = CARTESIAN_POINT('',(0.150037272369,1.000001420611));
#772 = ( GEOMETRIC_REPRESENTATION_CONTEXT(2) 
PARAMETRIC_REPRESENTATION_CONTEXT() REPRESENTATION_CONTEXT('2D SPACE',''
  ) );
#773 = ADVANCED_FACE('',(#774),#726,.T.);
#774 = FACE_BOUND('',#775,.T.);
#775 = EDGE_LOOP('',(#776,#817,#879,#880));
#776 = ORIENTED_EDGE('',*,*,#777,.F.);
#777 = EDGE_CURVE('',#778,#780,#782,.T.);
#778 = VERTEX_POINT('',#779);
#779 = CARTESIAN_POINT('',(0.809718375597,0.300728112245,
    -7.504794312083E-04));
#780 = VERTEX_POINT('',#781);
#781 = CARTESIAN_POINT('',(0.809550985693,0.300650014562,
    7.504794312074E-04));
#782 = SURFACE_CURVE('',#783,(#788,#794),.PCURVE_S1.);
#783 = B_SPLINE_CURVE_WITH_KNOTS('',3,(#784,#785,#786,#787),
  .UNSPECIFIED.,.F.,.F.,(4,4),(0.,1.),.PIECEWISE_BEZIER_KNOTS.);
#784 = CARTESIAN_POINT('',(0.810000008626,0.300000014233,
    -9.588493781542E-07));
#785 = CARTESIAN_POINT('',(0.810000008626,0.300000014233,
    -3.196164599941E-07));
#786 = CARTESIAN_POINT('',(0.810000008625,0.300000014232,
    3.19616458166E-07));
#787 = CARTESIAN_POINT('',(0.810000008624,0.300000014232,
    9.588493763261E-07));
#788 = PCURVE('',#726,#789);
#789 = DEFINITIONAL_REPRESENTATION('',(#790),#793);
#790 = B_SPLINE_CURVE_WITH_KNOTS('',1,(#791,#792),.UNSPECIFIED.,.F.,.F.,
  (2,2),(0.,1.),.PIECEWISE_BEZIER_KNOTS.);
#791 = CARTESIAN_POINT('',(-0.42,0.650335675991));
#792 = CARTESIAN_POINT('',(0.5794,0.650335675992));
#793 = ( GEOMETRIC_REPRESENTATION_CONTEXT(2) 
PARAMETRIC_REPRESENTATION_CONTEXT() REPRESENTATION_CONTEXT('2D SPACE',''
  ) );
#794 = PCURVE('',#795,#812);
#795 = B_SPLINE_SURFACE_WITH_KNOTS('',3,3,(
    (#796,#797,#798,#799)
    ,(#800,#801,#802,#803)
    ,(#804,#805,#806,#807)
    ,(#808,#809,#810,#811
    )),.UNSPECIFIED.,.T.,.F.,.F.,(1,3,3,1),(4,4),(-1.,0.,1.,2.),(0.,1.),
  .UNSPECIFIED.);
#796 = CARTESIAN_POINT('',(-0.809997156278,0.300000010086,
    -2.399280179102E-07));
#797 = CARTESIAN_POINT('',(-0.26999905257,0.300000010086,
    -2.399280179103E-07));
#798 = CARTESIAN_POINT('',(0.26999905256,0.300000010086,
    -2.399280179101E-07));
#799 = CARTESIAN_POINT('',(0.809997156268,0.300000010086,
    -2.399280179102E-07));
#800 = CARTESIAN_POINT('',(-0.80999715628,0.300000010086,
    -7.99760041019E-08));
#801 = CARTESIAN_POINT('',(-0.269999052571,0.300000010086,
    -7.997600410203E-08));
#802 = CARTESIAN_POINT('',(0.269999052561,0.300000010086,
    -7.997600410189E-08));
#803 = CARTESIAN_POINT('',(0.80999715627,0.300000010086,
    -7.997600410196E-08));
#804 = CARTESIAN_POINT('',(-0.809997156282,0.300000010087,
    7.997600970636E-08));
#805 = CARTESIAN_POINT('',(-0.269999052572,0.300000010087,
    7.997600970622E-08));
#806 = CARTESIAN_POINT('',(0.269999052562,0.300000010087,
    7.997600970636E-08));
#807 = CARTESIAN_POINT('',(0.809997156272,0.300000010087,
    7.997600970629E-08));
#808 = CARTESIAN_POINT('',(-0.809997156278,0.300000010086,
    -2.399280179102E-07));
#809 = CARTESIAN_POINT('',(-0.26999905257,0.300000010086,
    -2.399280179103E-07));
#810 = CARTESIAN_POINT('',(0.26999905256,0.300000010086,
    -2.399280179101E-07));
#811 = CARTESIAN_POINT('',(0.809997156268,0.300000010086,
    -2.399280179102E-07));
#812 = DEFINITIONAL_REPRESENTATION('',(#813),#816);
#813 = B_SPLINE_CURVE_WITH_KNOTS('',1,(#814,#815),.UNSPECIFIED.,.F.,.F.,
  (2,2),(0.,1.),.PIECEWISE_BEZIER_KNOTS.);
#814 = CARTESIAN_POINT('',(1.136363636364E-04,1.00000176072));
#815 = CARTESIAN_POINT('',(0.581376849894,1.00000176072));
#816 = ( GEOMETRIC_REPRESENTATION_CONTEXT(2) 
PARAMETRIC_REPRESENTATION_CONTEXT() REPRESENTATION_CONTEXT('2D SPACE',''
  ) );
#817 = ORIENTED_EDGE('',*,*,#818,.F.);
#818 = EDGE_CURVE('',#690,#778,#819,.T.);
#819 = SURFACE_CURVE('',#820,(#826,#855),.PCURVE_S1.);
#820 = B_SPLINE_CURVE_WITH_KNOTS('',4,(#821,#822,#823,#824,#825),
  .UNSPECIFIED.,.F.,.F.,(5,5),(0.,1.),.PIECEWISE_BEZIER_KNOTS.);
#821 = CARTESIAN_POINT('',(0.901299994033,0.20910195179,
    -1.500000013039E-03));
#822 = CARTESIAN_POINT('',(0.897429118932,0.248898936285,
    -1.500000013039E-03));
#823 = CARTESIAN_POINT('',(0.880086252846,0.278876052839,
    -1.500000013039E-03));
#824 = CARTESIAN_POINT('',(0.850068291527,0.296747457713,
    -1.500000013039E-03));
#825 = CARTESIAN_POINT('',(0.809436742567,0.301456210257,
    -1.500000013039E-03));
#826 = PCURVE('',#726,#827);
#827 = DEFINITIONAL_REPRESENTATION('',(#828),#854);
#828 = B_SPLINE_CURVE_WITH_KNOTS('',3,(#829,#830,#831,#832,#833,#834,
    #835,#836,#837,#838,#839,#840,#841,#842,#843,#844,#845,#846,#847,
    #848,#849,#850,#851,#852,#853),.UNSPECIFIED.,.F.,.F.,(4,1,1,1,1,1,1,
    1,1,1,1,1,1,1,1,1,1,1,1,1,1,1,4),(0.,4.545454545455E-02,
    9.090909090909E-02,0.136363636364,0.181818181818,0.227272727273,
    0.272727272727,0.318181818182,0.363636363636,0.409090909091,
    0.454545454545,0.5,0.545454545455,0.590909090909,0.636363636364,
    0.681818181818,0.727272727273,0.772727272727,0.818181818182,
    0.863636363636,0.909090909091,0.954545454545,1.),
  .QUASI_UNIFORM_KNOTS.);
#829 = CARTESIAN_POINT('',(1.136363636364E-04,7.948807612124E-09));
#830 = CARTESIAN_POINT('',(1.136363636364E-04,1.515931628431E-02));
#831 = CARTESIAN_POINT('',(1.136363408478E-04,4.54489392113E-02));
#832 = CARTESIAN_POINT('',(1.136364433966E-04,9.093431869572E-02));
#833 = CARTESIAN_POINT('',(1.136360673843E-04,0.136563422121));
#834 = CARTESIAN_POINT('',(1.136374688843E-04,0.182587044511));
#835 = CARTESIAN_POINT('',(1.136322388962E-04,0.229374355048));
#836 = CARTESIAN_POINT('',(1.136517573484E-04,0.2776300345));
#837 = CARTESIAN_POINT('',(1.135789135286E-04,0.328053956844));
#838 = CARTESIAN_POINT('',(1.138507703485E-04,0.383551733622));
#839 = CARTESIAN_POINT('',(1.128361868787E-04,0.443452812301));
#840 = CARTESIAN_POINT('',(1.166226639055E-04,0.533273095427));
#841 = CARTESIAN_POINT('',(1.024913392328E-04,0.636985731245));
#842 = CARTESIAN_POINT('',(1.552301595988E-04,0.623489791534));
#843 = CARTESIAN_POINT('',(-4.159379590742E-05,0.632397891631));
#844 = CARTESIAN_POINT('',(1.114502403084E-05,0.633524343307));
#845 = CARTESIAN_POINT('',(-2.986300215949E-06,0.636112361201));
#846 = CARTESIAN_POINT('',(8.001768329525E-07,0.638034560568));
#847 = CARTESIAN_POINT('',(-2.144071158615E-07,0.6400030994));
#848 = CARTESIAN_POINT('',(5.745163049326E-08,0.641896479914));
#849 = CARTESIAN_POINT('',(-1.53994061116E-08,0.643785697178));
#850 = CARTESIAN_POINT('',(4.145993953122E-09,0.645675235594));
#851 = CARTESIAN_POINT('',(-1.184569700892E-09,0.647579744248));
#852 = CARTESIAN_POINT('',(0.,0.64886390122));
#853 = CARTESIAN_POINT('',(0.,0.649511102769));
#854 = ( GEOMETRIC_REPRESENTATION_CONTEXT(2) 
PARAMETRIC_REPRESENTATION_CONTEXT() REPRESENTATION_CONTEXT('2D SPACE',''
  ) );
#855 = PCURVE('',#138,#856);
#856 = DEFINITIONAL_REPRESENTATION('',(#857),#878);
#857 = B_SPLINE_CURVE_WITH_KNOTS('',10,(#858,#859,#860,#861,#862,#863,
    #864,#865,#866,#867,#868,#869,#870,#871,#872,#873,#874,#875,#876,
    #877),.UNSPECIFIED.,.F.,.F.,(11,9,11),(0.,0.5,1.),.UNSPECIFIED.);
#858 = CARTESIAN_POINT('',(0.849096903588,1.000810430302));
#859 = CARTESIAN_POINT('',(0.862337919277,1.000299006666));
#860 = CARTESIAN_POINT('',(0.869062906547,0.999839639942));
#861 = CARTESIAN_POINT('',(0.901198772022,0.997979717968));
#862 = CARTESIAN_POINT('',(0.87595964084,0.998405294438));
#863 = CARTESIAN_POINT('',(0.931082509877,0.995047475941));
#864 = CARTESIAN_POINT('',(0.905397826352,0.994971438981));
#865 = CARTESIAN_POINT('',(0.934843656668,0.992236813296));
#866 = CARTESIAN_POINT('',(0.937371212898,0.990417331342));
#867 = CARTESIAN_POINT('',(0.946979960455,0.988031046937));
#868 = CARTESIAN_POINT('',(0.962768165753,0.98288757215));
#869 = CARTESIAN_POINT('',(0.969151905758,0.980028333704));
#870 = CARTESIAN_POINT('',(0.978637269294,0.977165700524));
#871 = CARTESIAN_POINT('',(0.981617826694,0.973755040611));
#872 = CARTESIAN_POINT('',(0.985586111304,0.970159585341));
#873 = CARTESIAN_POINT('',(0.994055398081,0.966641509896));
#874 = CARTESIAN_POINT('',(0.997752052125,0.962793787889));
#875 = CARTESIAN_POINT('',(0.994275083055,0.958365048136));
#876 = CARTESIAN_POINT('',(1.003950006917,0.95419559409));
#877 = CARTESIAN_POINT('',(1.001134583039,0.949748678957));
#878 = ( GEOMETRIC_REPRESENTATION_CONTEXT(2) 
PARAMETRIC_REPRESENTATION_CONTEXT() REPRESENTATION_CONTEXT('2D SPACE',''
  ) );
#879 = ORIENTED_EDGE('',*,*,#711,.T.);
#880 = ORIENTED_EDGE('',*,*,#881,.F.);
#881 = EDGE_CURVE('',#780,#690,#882,.T.);
#882 = SURFACE_CURVE('',#883,(#889,#918),.PCURVE_S1.);
#883 = B_SPLINE_CURVE_WITH_KNOTS('',4,(#884,#885,#886,#887,#888),
  .UNSPECIFIED.,.F.,.F.,(5,5),(0.,1.),.PIECEWISE_BEZIER_KNOTS.);
#884 = CARTESIAN_POINT('',(0.809101962761,0.301300014891,
    1.500000013039E-03));
#885 = CARTESIAN_POINT('',(0.848898946956,0.297429132662,
    1.500000013039E-03));
#886 = CARTESIAN_POINT('',(0.878876052361,0.280086254184,
    1.500000013039E-03));
#887 = CARTESIAN_POINT('',(0.896747444496,0.250068281035,
    1.500000013039E-03));
#888 = CARTESIAN_POINT('',(0.901456189426,0.20943673081,
    1.500000013039E-03));
#889 = PCURVE('',#726,#890);
#890 = DEFINITIONAL_REPRESENTATION('',(#891),#917);
#891 = B_SPLINE_CURVE_WITH_KNOTS('',3,(#892,#893,#894,#895,#896,#897,
    #898,#899,#900,#901,#902,#903,#904,#905,#906,#907,#908,#909,#910,
    #911,#912,#913,#914,#915,#916),.UNSPECIFIED.,.F.,.F.,(4,1,1,1,1,1,1,
    1,1,1,1,1,1,1,1,1,1,1,1,1,1,1,4),(0.,4.545454545455E-02,
    9.090909090909E-02,0.136363636364,0.181818181818,0.227272727273,
    0.272727272727,0.318181818182,0.363636363636,0.409090909091,
    0.454545454545,0.5,0.545454545455,0.590909090909,0.636363636364,
    0.681818181818,0.727272727273,0.772727272727,0.818181818182,
    0.863636363636,0.909090909091,0.954545454545,1.),
  .QUASI_UNIFORM_KNOTS.);
#892 = CARTESIAN_POINT('',(0.577344,0.649732485388));
#893 = CARTESIAN_POINT('',(0.577350222222,0.649073502449));
#894 = CARTESIAN_POINT('',(0.577347475177,0.647767926303));
#895 = CARTESIAN_POINT('',(0.577322503547,0.645838224741));
#896 = CARTESIAN_POINT('',(0.577330510637,0.643930272437));
#897 = CARTESIAN_POINT('',(0.577323453907,0.642031579998));
#898 = CARTESIAN_POINT('',(0.577343673735,0.640133962242));
#899 = CARTESIAN_POINT('',(0.577337051154,0.638188865703));
#900 = CARTESIAN_POINT('',(0.57737212165,0.63625160606));
#901 = CARTESIAN_POINT('',(0.577238462247,0.633895125952));
#902 = CARTESIAN_POINT('',(0.577738029361,0.632275974091));
#903 = CARTESIAN_POINT('',(0.575873420308,0.626052755016));
#904 = CARTESIAN_POINT('',(0.582851489408,0.632032460837));
#905 = CARTESIAN_POINT('',(0.580981721428,0.571425793179));
#906 = CARTESIAN_POINT('',(0.581482724248,0.454015383848));
#907 = CARTESIAN_POINT('',(0.581348480947,0.39645824017));
#908 = CARTESIAN_POINT('',(0.581384451331,0.337629787423));
#909 = CARTESIAN_POINT('',(0.581374813095,0.286190472761));
#910 = CARTESIAN_POINT('',(0.581377395654,0.236634741687));
#911 = CARTESIAN_POINT('',(0.581376703655,0.188774705175));
#912 = CARTESIAN_POINT('',(0.581376889092,0.141682362191));
#913 = CARTESIAN_POINT('',(0.581376839341,9.500731164181E-02));
#914 = CARTESIAN_POINT('',(0.58137685291,4.847639660992E-02));
#915 = CARTESIAN_POINT('',(0.581376849894,1.749323191712E-02));
#916 = CARTESIAN_POINT('',(0.581376849894,1.987531106243E-03));
#917 = ( GEOMETRIC_REPRESENTATION_CONTEXT(2) 
PARAMETRIC_REPRESENTATION_CONTEXT() REPRESENTATION_CONTEXT('2D SPACE',''
  ) );
#918 = PCURVE('',#56,#919);
#919 = DEFINITIONAL_REPRESENTATION('',(#920),#959);
#920 = B_SPLINE_CURVE_WITH_KNOTS('',10,(#921,#922,#923,#924,#925,#926,
    #927,#928,#929,#930,#931,#932,#933,#934,#935,#936,#937,#938,#939,
    #940,#941,#942,#943,#944,#945,#946,#947,#948,#949,#950,#951,#952,
    #953,#954,#955,#956,#957,#958),.UNSPECIFIED.,.F.,.F.,(11,9,9,9,11),(
    0.,0.25,0.5,0.75,1.),.UNSPECIFIED.);
#921 = CARTESIAN_POINT('',(1.001264759151,0.949841673617));
#922 = CARTESIAN_POINT('',(1.002587386314,0.952018876653));
#923 = CARTESIAN_POINT('',(1.000829291854,0.951737573045));
#924 = CARTESIAN_POINT('',(0.999378965787,0.960513753075));
#925 = CARTESIAN_POINT('',(0.998545658769,0.95238628595));
#926 = CARTESIAN_POINT('',(0.997448365434,0.964851777311));
#927 = CARTESIAN_POINT('',(0.994880782529,0.959395516501));
#928 = CARTESIAN_POINT('',(0.993895940561,0.964914353324));
#929 = CARTESIAN_POINT('',(0.991583889339,0.965695679567));
#930 = CARTESIAN_POINT('',(0.989515758856,0.967681575223));
#931 = CARTESIAN_POINT('',(0.984905573388,0.971232306565));
#932 = CARTESIAN_POINT('',(0.982429614047,0.972958740525));
#933 = CARTESIAN_POINT('',(0.979782368683,0.974635703114));
#934 = CARTESIAN_POINT('',(0.976963417884,0.976262654672));
#935 = CARTESIAN_POINT('',(0.973972342237,0.977839055539));
#936 = CARTESIAN_POINT('',(0.970808722326,0.979364366054));
#937 = CARTESIAN_POINT('',(0.967472138739,0.980838046557));
#938 = CARTESIAN_POINT('',(0.963962172061,0.982259557387));
#939 = CARTESIAN_POINT('',(0.960278402879,0.983628358885));
#940 = CARTESIAN_POINT('',(0.952562420681,0.986259463896));
#941 = CARTESIAN_POINT('',(0.948528745436,0.987521326434));
#942 = CARTESIAN_POINT('',(0.944320621862,0.988728529329));
#943 = CARTESIAN_POINT('',(0.939939285775,0.989880102904));
#944 = CARTESIAN_POINT('',(0.93538597299,0.990975077482));
#945 = CARTESIAN_POINT('',(0.930661919323,0.992012483387));
#946 = CARTESIAN_POINT('',(0.925768360591,0.992991350942));
#947 = CARTESIAN_POINT('',(0.920706532608,0.99391071047));
#948 = CARTESIAN_POINT('',(0.915477671191,0.994769592295));
#949 = CARTESIAN_POINT('',(0.90468835312,0.996364461186));
#950 = CARTESIAN_POINT('',(0.898443650191,0.997125813091));
#951 = CARTESIAN_POINT('',(0.895931207503,0.997681756689));
#952 = CARTESIAN_POINT('',(0.883841875691,0.998522225727));
#953 = CARTESIAN_POINT('',(0.882879285932,0.99888182402));
#954 = CARTESIAN_POINT('',(0.878491063976,0.999300405621));
#955 = CARTESIAN_POINT('',(0.863680260134,1.000033454663));
#956 = CARTESIAN_POINT('',(0.865790761659,1.000067145092));
#957 = CARTESIAN_POINT('',(0.855324805476,1.000503675594));
#958 = CARTESIAN_POINT('',(0.848538881512,1.000723654835));
#959 = ( GEOMETRIC_REPRESENTATION_CONTEXT(2) 
PARAMETRIC_REPRESENTATION_CONTEXT() REPRESENTATION_CONTEXT('2D SPACE',''
  ) );
#960 = ADVANCED_FACE('',(#961),#795,.F.);
#961 = FACE_BOUND('',#962,.F.);
#962 = EDGE_LOOP('',(#963,#987,#1015,#1016));
#963 = ORIENTED_EDGE('',*,*,#964,.T.);
#964 = EDGE_CURVE('',#965,#967,#969,.T.);
#965 = VERTEX_POINT('',#966);
#966 = CARTESIAN_POINT('',(-0.809550985693,0.300650014562,
    -7.504794312074E-04));
#967 = VERTEX_POINT('',#968);
#968 = CARTESIAN_POINT('',(-0.809718375597,0.300728112245,
    7.504794312083E-04));
#969 = SURFACE_CURVE('',#970,(#975,#981),.PCURVE_S1.);
#970 = B_SPLINE_CURVE_WITH_KNOTS('',3,(#971,#972,#973,#974),
  .UNSPECIFIED.,.F.,.F.,(4,4),(0.,1.),.PIECEWISE_BEZIER_KNOTS.);
#971 = CARTESIAN_POINT('',(-0.810000008626,0.300000014233,
    -9.588493781542E-07));
#972 = CARTESIAN_POINT('',(-0.810000008626,0.300000014233,
    -3.196164599941E-07));
#973 = CARTESIAN_POINT('',(-0.810000008625,0.300000014232,
    3.19616458166E-07));
#974 = CARTESIAN_POINT('',(-0.810000008624,0.300000014232,
    9.588493763261E-07));
#975 = PCURVE('',#795,#976);
#976 = DEFINITIONAL_REPRESENTATION('',(#977),#980);
#977 = B_SPLINE_CURVE_WITH_KNOTS('',1,(#978,#979),.UNSPECIFIED.,.F.,.F.,
  (2,2),(0.,1.),.PIECEWISE_BEZIER_KNOTS.);
#978 = CARTESIAN_POINT('',(1.136363636364E-04,-1.76071478277E-06));
#979 = CARTESIAN_POINT('',(0.581376849894,-1.760712292516E-06));
#980 = ( GEOMETRIC_REPRESENTATION_CONTEXT(2) 
PARAMETRIC_REPRESENTATION_CONTEXT() REPRESENTATION_CONTEXT('2D SPACE',''
  ) );
#981 = PCURVE('',#175,#982);
#982 = DEFINITIONAL_REPRESENTATION('',(#983),#986);
#983 = B_SPLINE_CURVE_WITH_KNOTS('',1,(#984,#985),.UNSPECIFIED.,.F.,.F.,
  (2,2),(0.,1.),.PIECEWISE_BEZIER_KNOTS.);
#984 = CARTESIAN_POINT('',(1.136363636361E-04,0.996453644863));
#985 = CARTESIAN_POINT('',(0.581376849894,0.996453644861));
#986 = ( GEOMETRIC_REPRESENTATION_CONTEXT(2) 
PARAMETRIC_REPRESENTATION_CONTEXT() REPRESENTATION_CONTEXT('2D SPACE',''
  ) );
#987 = ORIENTED_EDGE('',*,*,#988,.T.);
#988 = EDGE_CURVE('',#967,#780,#989,.T.);
#989 = SURFACE_CURVE('',#990,(#995,#1001),.PCURVE_S1.);
#990 = B_SPLINE_CURVE_WITH_KNOTS('',3,(#991,#992,#993,#994),
  .UNSPECIFIED.,.F.,.F.,(4,4),(0.,1.),.PIECEWISE_BEZIER_KNOTS.);
#991 = CARTESIAN_POINT('',(-0.809988638543,0.300000011921,
    1.500000013038E-03));
#992 = CARTESIAN_POINT('',(-0.269996213325,0.300000011921,
    1.500000013038E-03));
#993 = CARTESIAN_POINT('',(0.269996213316,0.300000011921,
    1.500000013039E-03));
#994 = CARTESIAN_POINT('',(0.809988638533,0.300000011921,
    1.500000013039E-03));
#995 = PCURVE('',#795,#996);
#996 = DEFINITIONAL_REPRESENTATION('',(#997),#1000);
#997 = B_SPLINE_CURVE_WITH_KNOTS('',1,(#998,#999),.UNSPECIFIED.,.F.,.F.,
  (2,2),(0.,1.),.PIECEWISE_BEZIER_KNOTS.);
#998 = CARTESIAN_POINT('',(0.577350269358,5.257880889176E-06));
#999 = CARTESIAN_POINT('',(0.577350269358,0.999994742119));
#1000 = ( GEOMETRIC_REPRESENTATION_CONTEXT(2) 
PARAMETRIC_REPRESENTATION_CONTEXT() REPRESENTATION_CONTEXT('2D SPACE',''
  ) );
#1001 = PCURVE('',#56,#1002);
#1002 = DEFINITIONAL_REPRESENTATION('',(#1003),#1014);
#1003 = B_SPLINE_CURVE_WITH_KNOTS('',9,(#1004,#1005,#1006,#1007,#1008,
    #1009,#1010,#1011,#1012,#1013),.UNSPECIFIED.,.F.,.F.,(10,10),(0.,1.)
  ,.PIECEWISE_BEZIER_KNOTS.);
#1004 = CARTESIAN_POINT('',(1.001134583039,5.025132104914E-02));
#1005 = CARTESIAN_POINT('',(1.001149053476,0.150250205025));
#1006 = CARTESIAN_POINT('',(1.001163116748,0.247435344922));
#1007 = CARTESIAN_POINT('',(1.001178921538,0.356655356567));
#1008 = CARTESIAN_POINT('',(1.001191005117,0.440159700366));
#1009 = CARTESIAN_POINT('',(1.001208245521,0.559300619297));
#1010 = CARTESIAN_POINT('',(1.001220557962,0.644386525736));
#1011 = CARTESIAN_POINT('',(1.001236118598,0.751919299491));
#1012 = CARTESIAN_POINT('',(1.001250288713,0.849842789642));
#1013 = CARTESIAN_POINT('',(1.001264759151,0.949841673617));
#1014 = ( GEOMETRIC_REPRESENTATION_CONTEXT(2) 
PARAMETRIC_REPRESENTATION_CONTEXT() REPRESENTATION_CONTEXT('2D SPACE',''
  ) );
#1015 = ORIENTED_EDGE('',*,*,#777,.F.);
#1016 = ORIENTED_EDGE('',*,*,#1017,.T.);
#1017 = EDGE_CURVE('',#778,#965,#1018,.T.);
#1018 = SURFACE_CURVE('',#1019,(#1024,#1030),.PCURVE_S1.);
#1019 = B_SPLINE_CURVE_WITH_KNOTS('',3,(#1020,#1021,#1022,#1023),
  .UNSPECIFIED.,.F.,.F.,(4,4),(0.,1.),.PIECEWISE_BEZIER_KNOTS.);
#1020 = CARTESIAN_POINT('',(0.809988638543,0.300000011921,
    -1.500000013038E-03));
#1021 = CARTESIAN_POINT('',(0.269996213325,0.300000011921,
    -1.500000013038E-03));
#1022 = CARTESIAN_POINT('',(-0.269996213316,0.300000011921,
    -1.500000013039E-03));
#1023 = CARTESIAN_POINT('',(-0.809988638533,0.300000011921,
    -1.500000013039E-03));
#1024 = PCURVE('',#795,#1025);
#1025 = DEFINITIONAL_REPRESENTATION('',(#1026),#1029);
#1026 = B_SPLINE_CURVE_WITH_KNOTS('',1,(#1027,#1028),.UNSPECIFIED.,.F.,
  .F.,(2,2),(0.,1.),.PIECEWISE_BEZIER_KNOTS.);
#1027 = CARTESIAN_POINT('',(1.136363636364E-04,0.999994742127));
#1028 = CARTESIAN_POINT('',(1.136363636364E-04,5.257885618004E-06));
#1029 = ( GEOMETRIC_REPRESENTATION_CONTEXT(2) 
PARAMETRIC_REPRESENTATION_CONTEXT() REPRESENTATION_CONTEXT('2D SPACE',''
  ) );
#1030 = PCURVE('',#138,#1031);
#1031 = DEFINITIONAL_REPRESENTATION('',(#1032),#1043);
#1032 = B_SPLINE_CURVE_WITH_KNOTS('',9,(#1033,#1034,#1035,#1036,#1037,
    #1038,#1039,#1040,#1041,#1042),.UNSPECIFIED.,.F.,.F.,(10,10),(0.,1.)
  ,.PIECEWISE_BEZIER_KNOTS.);
#1033 = CARTESIAN_POINT('',(1.001134583039,0.949748678957));
#1034 = CARTESIAN_POINT('',(1.001149053476,0.849749794981));
#1035 = CARTESIAN_POINT('',(1.001163116748,0.752564655084));
#1036 = CARTESIAN_POINT('',(1.001178921538,0.643344643439));
#1037 = CARTESIAN_POINT('',(1.001191005117,0.55984029964));
#1038 = CARTESIAN_POINT('',(1.001208245521,0.440699380709));
#1039 = CARTESIAN_POINT('',(1.001220557962,0.35561347427));
#1040 = CARTESIAN_POINT('',(1.001236118598,0.248080700515));
#1041 = CARTESIAN_POINT('',(1.001250288713,0.150157210364));
#1042 = CARTESIAN_POINT('',(1.001264759151,5.015832638892E-02));
#1043 = ( GEOMETRIC_REPRESENTATION_CONTEXT(2) 
PARAMETRIC_REPRESENTATION_CONTEXT() REPRESENTATION_CONTEXT('2D SPACE',''
  ) );
#1044 = ADVANCED_FACE('',(#1045,#1191),#175,.F.);
#1045 = FACE_BOUND('',#1046,.F.);
#1046 = EDGE_LOOP('',(#1047,#1127,#1128,#1190));
#1047 = ORIENTED_EDGE('',*,*,#1048,.T.);
#1048 = EDGE_CURVE('',#965,#123,#1049,.T.);
#1049 = SURFACE_CURVE('',#1050,(#1056,#1085),.PCURVE_S1.);
#1050 = B_SPLINE_CURVE_WITH_KNOTS('',4,(#1051,#1052,#1053,#1054,#1055),
  .UNSPECIFIED.,.F.,.F.,(5,5),(0.,1.),.PIECEWISE_BEZIER_KNOTS.);
#1051 = CARTESIAN_POINT('',(-0.809101962761,0.301300014891,
    -1.500000013039E-03));
#1052 = CARTESIAN_POINT('',(-0.848898946956,0.297429132662,
    -1.500000013039E-03));
#1053 = CARTESIAN_POINT('',(-0.878876052361,0.280086254184,
    -1.500000013039E-03));
#1054 = CARTESIAN_POINT('',(-0.896747444496,0.250068281035,
    -1.500000013039E-03));
#1055 = CARTESIAN_POINT('',(-0.901456189426,0.20943673081,
    -1.500000013039E-03));
#1056 = PCURVE('',#175,#1057);
#1057 = DEFINITIONAL_REPRESENTATION('',(#1058),#1084);
#1058 = B_SPLINE_CURVE_WITH_KNOTS('',3,(#1059,#1060,#1061,#1062,#1063,
    #1064,#1065,#1066,#1067,#1068,#1069,#1070,#1071,#1072,#1073,#1074,
    #1075,#1076,#1077,#1078,#1079,#1080,#1081,#1082,#1083),
  .UNSPECIFIED.,.F.,.F.,(4,1,1,1,1,1,1,1,1,1,1,1,1,1,1,1,1,1,1,1,1,1,4),
  (0.,4.545454545455E-02,9.090909090909E-02,0.136363636364,
    0.181818181818,0.227272727273,0.272727272727,0.318181818182,
    0.363636363636,0.409090909091,0.454545454545,0.5,0.545454545455,
    0.590909090909,0.636363636364,0.681818181818,0.727272727273,
    0.772727272727,0.818181818182,0.863636363636,0.909090909091,
    0.954545454545,1.),.QUASI_UNIFORM_KNOTS.);
#1059 = CARTESIAN_POINT('',(1.000113636364,1.000000143621));
#1060 = CARTESIAN_POINT('',(1.000113636364,1.015159453404));
#1061 = CARTESIAN_POINT('',(1.000113636341,1.04544907907));
#1062 = CARTESIAN_POINT('',(1.000113636443,1.090934462457));
#1063 = CARTESIAN_POINT('',(1.000113636067,1.136563569747));
#1064 = CARTESIAN_POINT('',(1.000113637469,1.182587196463));
#1065 = CARTESIAN_POINT('',(1.000113632239,1.229374511901));
#1066 = CARTESIAN_POINT('',(1.000113651757,1.277630199284));
#1067 = CARTESIAN_POINT('',(1.000113578914,1.328054127897));
#1068 = CARTESIAN_POINT('',(1.00011385077,1.383551934484));
#1069 = CARTESIAN_POINT('',(1.000112836187,1.443452988272));
#1070 = CARTESIAN_POINT('',(1.000116622664,1.533273524739));
#1071 = CARTESIAN_POINT('',(1.00010249134,1.63698551));
#1072 = CARTESIAN_POINT('',(1.00015523016,1.623489785533));
#1073 = CARTESIAN_POINT('',(0.999958406204,1.632397851126));
#1074 = CARTESIAN_POINT('',(1.000011145024,1.633524324658));
#1075 = CARTESIAN_POINT('',(0.9999970137,1.636112344549));
#1076 = CARTESIAN_POINT('',(1.000000800177,1.638034548711));
#1077 = CARTESIAN_POINT('',(0.999999785593,1.640003090064));
#1078 = CARTESIAN_POINT('',(1.000000057452,1.641896472705));
#1079 = CARTESIAN_POINT('',(0.999999984601,1.643785691475));
#1080 = CARTESIAN_POINT('',(1.000000004146,1.645675231008));
#1081 = CARTESIAN_POINT('',(0.999999998815,1.647579740434));
#1082 = CARTESIAN_POINT('',(1.,1.648863897726));
#1083 = CARTESIAN_POINT('',(1.,1.649511099394));
#1084 = ( GEOMETRIC_REPRESENTATION_CONTEXT(2) 
PARAMETRIC_REPRESENTATION_CONTEXT() REPRESENTATION_CONTEXT('2D SPACE',''
  ) );
#1085 = PCURVE('',#138,#1086);
#1086 = DEFINITIONAL_REPRESENTATION('',(#1087),#1126);
#1087 = B_SPLINE_CURVE_WITH_KNOTS('',10,(#1088,#1089,#1090,#1091,#1092,
    #1093,#1094,#1095,#1096,#1097,#1098,#1099,#1100,#1101,#1102,#1103,
    #1104,#1105,#1106,#1107,#1108,#1109,#1110,#1111,#1112,#1113,#1114,
    #1115,#1116,#1117,#1118,#1119,#1120,#1121,#1122,#1123,#1124,#1125),
  .UNSPECIFIED.,.F.,.F.,(11,9,9,9,11),(0.,0.25,0.5,0.75,1.),
  .UNSPECIFIED.);
#1088 = CARTESIAN_POINT('',(1.001264759151,5.015832638892E-02));
#1089 = CARTESIAN_POINT('',(1.002587386314,4.798112335292E-02));
#1090 = CARTESIAN_POINT('',(1.000829291854,4.826242696088E-02));
#1091 = CARTESIAN_POINT('',(0.999378965787,3.948624693091E-02));
#1092 = CARTESIAN_POINT('',(0.998545658769,4.761371405591E-02));
#1093 = CARTESIAN_POINT('',(0.997448365433,3.514822269541E-02));
#1094 = CARTESIAN_POINT('',(0.994880782529,4.060448350505E-02));
#1095 = CARTESIAN_POINT('',(0.993895940561,3.508564668251E-02));
#1096 = CARTESIAN_POINT('',(0.991583889339,3.430432043935E-02));
#1097 = CARTESIAN_POINT('',(0.989515758856,3.231842478274E-02));
#1098 = CARTESIAN_POINT('',(0.984905573388,2.876769344129E-02));
#1099 = CARTESIAN_POINT('',(0.982429614047,2.704125948119E-02));
#1100 = CARTESIAN_POINT('',(0.979782368683,2.5364296892E-02));
#1101 = CARTESIAN_POINT('',(0.976963417884,2.373734533396E-02));
#1102 = CARTESIAN_POINT('',(0.973972342237,2.216094446739E-02));
#1103 = CARTESIAN_POINT('',(0.970808722326,2.06356339525E-02));
#1104 = CARTESIAN_POINT('',(0.967472138739,1.916195344962E-02));
#1105 = CARTESIAN_POINT('',(0.963962172061,1.774044261898E-02));
#1106 = CARTESIAN_POINT('',(0.960278402879,1.637164112088E-02));
#1107 = CARTESIAN_POINT('',(0.952562420681,1.374053611027E-02));
#1108 = CARTESIAN_POINT('',(0.948528745436,1.247867357184E-02));
#1109 = CARTESIAN_POINT('',(0.944320621862,1.12714706769E-02));
#1110 = CARTESIAN_POINT('',(0.939939285775,1.011989710208E-02));
#1111 = CARTESIAN_POINT('',(0.93538597299,9.024922523975E-03));
#1112 = CARTESIAN_POINT('',(0.930661919323,7.987516619209E-03));
#1113 = CARTESIAN_POINT('',(0.925768360591,7.0086490644E-03));
#1114 = CARTESIAN_POINT('',(0.920706532608,6.089289536157E-03));
#1115 = CARTESIAN_POINT('',(0.915477671191,5.230407711099E-03));
#1116 = CARTESIAN_POINT('',(0.90468835312,3.635538820578E-03));
#1117 = CARTESIAN_POINT('',(0.898443650191,2.87418691548E-03));
#1118 = CARTESIAN_POINT('',(0.895931207503,2.318243317593E-03));
#1119 = CARTESIAN_POINT('',(0.883841875691,1.47777427875E-03));
#1120 = CARTESIAN_POINT('',(0.882879285932,1.118175986187E-03));
#1121 = CARTESIAN_POINT('',(0.878491063976,6.99594384845E-04));
#1122 = CARTESIAN_POINT('',(0.863680260134,-3.345465674768E-05));
#1123 = CARTESIAN_POINT('',(0.865790761659,-6.714508541722E-05));
#1124 = CARTESIAN_POINT('',(0.855324805476,-5.036755881294E-04));
#1125 = CARTESIAN_POINT('',(0.848538881512,-7.236548287735E-04));
#1126 = ( GEOMETRIC_REPRESENTATION_CONTEXT(2) 
PARAMETRIC_REPRESENTATION_CONTEXT() REPRESENTATION_CONTEXT('2D SPACE',''
  ) );
#1127 = ORIENTED_EDGE('',*,*,#161,.T.);
#1128 = ORIENTED_EDGE('',*,*,#1129,.T.);
#1129 = EDGE_CURVE('',#24,#967,#1130,.T.);
#1130 = SURFACE_CURVE('',#1131,(#1137,#1166),.PCURVE_S1.);
#1131 = B_SPLINE_CURVE_WITH_KNOTS('',4,(#1132,#1133,#1134,#1135,#1136),
  .UNSPECIFIED.,.F.,.F.,(5,5),(0.,1.),.PIECEWISE_BEZIER_KNOTS.);
#1132 = CARTESIAN_POINT('',(-0.901299994033,0.20910195179,
    1.500000013039E-03));
#1133 = CARTESIAN_POINT('',(-0.897429118932,0.248898936285,
    1.500000013039E-03));
#1134 = CARTESIAN_POINT('',(-0.880086252846,0.278876052839,
    1.500000013039E-03));
#1135 = CARTESIAN_POINT('',(-0.850068291527,0.296747457713,
    1.500000013039E-03));
#1136 = CARTESIAN_POINT('',(-0.809436742567,0.301456210257,
    1.500000013039E-03));
#1137 = PCURVE('',#175,#1138);
#1138 = DEFINITIONAL_REPRESENTATION('',(#1139),#1165);
#1139 = B_SPLINE_CURVE_WITH_KNOTS('',3,(#1140,#1141,#1142,#1143,#1144,
    #1145,#1146,#1147,#1148,#1149,#1150,#1151,#1152,#1153,#1154,#1155,
    #1156,#1157,#1158,#1159,#1160,#1161,#1162,#1163,#1164),
  .UNSPECIFIED.,.F.,.F.,(4,1,1,1,1,1,1,1,1,1,1,1,1,1,1,1,1,1,1,1,1,1,4),
  (0.,4.545454545455E-02,9.090909090909E-02,0.136363636364,
    0.181818181818,0.227272727273,0.272727272727,0.318181818182,
    0.363636363636,0.409090909091,0.454545454545,0.5,0.545454545455,
    0.590909090909,0.636363636364,0.681818181818,0.727272727273,
    0.772727272727,0.818181818182,0.863636363636,0.909090909091,
    0.954545454545,1.),.QUASI_UNIFORM_KNOTS.);
#1140 = CARTESIAN_POINT('',(1.577344,1.649732481707));
#1141 = CARTESIAN_POINT('',(1.577343822222,1.64907349868));
#1142 = CARTESIAN_POINT('',(1.577338502162,1.647767922279));
#1143 = CARTESIAN_POINT('',(1.5773251091,1.645838220053));
#1144 = CARTESIAN_POINT('',(1.577329061438,1.643930266757));
#1145 = CARTESIAN_POINT('',(1.577326645148,1.642031572959));
#1146 = CARTESIAN_POINT('',(1.577332357971,1.640133953271));
#1147 = CARTESIAN_POINT('',(1.577340722967,1.638188854437));
#1148 = CARTESIAN_POINT('',(1.577368750162,1.636251590425));
#1149 = CARTESIAN_POINT('',(1.577238676386,1.633895108609));
#1150 = CARTESIAN_POINT('',(1.577740544295,1.632275936871));
#1151 = CARTESIAN_POINT('',(1.575872746433,1.626052750644));
#1152 = CARTESIAN_POINT('',(1.582851669972,1.632032260178));
#1153 = CARTESIAN_POINT('',(1.580981673046,1.571426177887));
#1154 = CARTESIAN_POINT('',(1.581482737212,1.454015588071));
#1155 = CARTESIAN_POINT('',(1.581348477473,1.396458442085));
#1156 = CARTESIAN_POINT('',(1.581384452262,1.337629963994));
#1157 = CARTESIAN_POINT('',(1.581374812846,1.286190640671));
#1158 = CARTESIAN_POINT('',(1.581377395721,1.23663490183));
#1159 = CARTESIAN_POINT('',(1.581376703637,1.18877486029));
#1160 = CARTESIAN_POINT('',(1.581376889097,1.141682513192));
#1161 = CARTESIAN_POINT('',(1.58137683934,1.095007459092));
#1162 = CARTESIAN_POINT('',(1.58137685291,1.048476540601));
#1163 = CARTESIAN_POINT('',(1.581376849894,1.017493373533));
#1164 = CARTESIAN_POINT('',(1.581376849894,1.001987671471));
#1165 = ( GEOMETRIC_REPRESENTATION_CONTEXT(2) 
PARAMETRIC_REPRESENTATION_CONTEXT() REPRESENTATION_CONTEXT('2D SPACE',''
  ) );
#1166 = PCURVE('',#56,#1167);
#1167 = DEFINITIONAL_REPRESENTATION('',(#1168),#1189);
#1168 = B_SPLINE_CURVE_WITH_KNOTS('',10,(#1169,#1170,#1171,#1172,#1173,
    #1174,#1175,#1176,#1177,#1178,#1179,#1180,#1181,#1182,#1183,#1184,
    #1185,#1186,#1187,#1188),.UNSPECIFIED.,.F.,.F.,(11,9,11),(0.,0.5,1.)
  ,.UNSPECIFIED.);
#1169 = CARTESIAN_POINT('',(0.849096903588,-8.104302962734E-04));
#1170 = CARTESIAN_POINT('',(0.862337919277,-2.990066596753E-04));
#1171 = CARTESIAN_POINT('',(0.869062906547,1.603600637935E-04));
#1172 = CARTESIAN_POINT('',(0.901198772022,2.020282037964E-03));
#1173 = CARTESIAN_POINT('',(0.87595964084,1.594705568349E-03));
#1174 = CARTESIAN_POINT('',(0.931082509877,4.952524065104E-03));
#1175 = CARTESIAN_POINT('',(0.905397826352,5.028561024528E-03));
#1176 = CARTESIAN_POINT('',(0.934843656668,7.763186710115E-03));
#1177 = CARTESIAN_POINT('',(0.937371212898,9.582668664553E-03));
#1178 = CARTESIAN_POINT('',(0.946979960455,1.196895306923E-02));
#1179 = CARTESIAN_POINT('',(0.962768165753,1.711242785584E-02));
#1180 = CARTESIAN_POINT('',(0.969151905758,1.997166630224E-02));
#1181 = CARTESIAN_POINT('',(0.978637269294,2.28342994827E-02));
#1182 = CARTESIAN_POINT('',(0.981617826694,2.624495939543E-02));
#1183 = CARTESIAN_POINT('',(0.985586111304,2.984041466564E-02));
#1184 = CARTESIAN_POINT('',(0.994055398081,3.335849011022E-02));
#1185 = CARTESIAN_POINT('',(0.997752052125,3.72062121173E-02));
#1186 = CARTESIAN_POINT('',(0.994275083055,4.163495187023E-02));
#1187 = CARTESIAN_POINT('',(1.003950006917,4.580440591619E-02));
#1188 = CARTESIAN_POINT('',(1.001134583039,5.025132104914E-02));
#1189 = ( GEOMETRIC_REPRESENTATION_CONTEXT(2) 
PARAMETRIC_REPRESENTATION_CONTEXT() REPRESENTATION_CONTEXT('2D SPACE',''
  ) );
#1190 = ORIENTED_EDGE('',*,*,#964,.F.);
#1191 = FACE_BOUND('',#1192,.F.);
#1192 = VERTEX_LOOP('',#1193);
#1193 = VERTEX_POINT('',#1194);
#1194 = CARTESIAN_POINT('',(-0.853239973257,0.278334774065,
    -2.445787641506E-08));
#1195 = ADVANCED_FACE('',(#1196),#138,.T.);
#1196 = FACE_BOUND('',#1197,.T.);
#1197 = EDGE_LOOP('',(#1198,#1199,#1200,#1201,#1202,#1203,#1204,#1205));
#1198 = ORIENTED_EDGE('',*,*,#246,.F.);
#1199 = ORIENTED_EDGE('',*,*,#122,.F.);
#1200 = ORIENTED_EDGE('',*,*,#1048,.F.);
#1201 = ORIENTED_EDGE('',*,*,#1017,.F.);
#1202 = ORIENTED_EDGE('',*,*,#818,.F.);
#1203 = ORIENTED_EDGE('',*,*,#689,.F.);
#1204 = ORIENTED_EDGE('',*,*,#497,.F.);
#1205 = ORIENTED_EDGE('',*,*,#465,.F.);
#1206 = ADVANCED_FACE('',(#1207),#56,.T.);
#1207 = FACE_BOUND('',#1208,.T.);
#1208 = EDGE_LOOP('',(#1209,#1210,#1211,#1212,#1213,#1214,#1215,#1216));
#1209 = ORIENTED_EDGE('',*,*,#988,.T.);
#1210 = ORIENTED_EDGE('',*,*,#881,.T.);
#1211 = ORIENTED_EDGE('',*,*,#754,.T.);
#1212 = ORIENTED_EDGE('',*,*,#618,.T.);
#1213 = ORIENTED_EDGE('',*,*,#392,.T.);
#1214 = ORIENTED_EDGE('',*,*,#309,.T.);
#1215 = ORIENTED_EDGE('',*,*,#21,.T.);
#1216 = ORIENTED_EDGE('',*,*,#1129,.T.);
#1217 = ( GEOMETRIC_REPRESENTATION_CONTEXT(3) 
GLOBAL_UNCERTAINTY_ASSIGNED_CONTEXT((#1221)) 
GLOBAL_UNIT_ASSIGNED_CONTEXT((#1218,#1219,#1220)) REPRESENTATION_CONTEXT
('Context #1','3D Context with UNIT and UNCERTAINTY') );
#1218 = ( LENGTH_UNIT() NAMED_UNIT(*) SI_UNIT(.MILLI.,.METRE.) );
#1219 = ( NAMED_UNIT(*) PLANE_ANGLE_UNIT() SI_UNIT($,.RADIAN.) );
#1220 = ( NAMED_UNIT(*) SI_UNIT($,.STERADIAN.) SOLID_ANGLE_UNIT() );
#1221 = UNCERTAINTY_MEASURE_WITH_UNIT(LENGTH_MEASURE(5.E-02),#1218,
  'distance_accuracy_value','confusion accuracy');
#1222 = PRODUCT_RELATED_PRODUCT_CATEGORY('detail',$,(#7));
#1223 = PRODUCT_CATEGORY_RELATIONSHIP('','',#1224,#1222);
#1224 = PRODUCT_CATEGORY('part',$);
#1225 = CC_DESIGN_PERSON_AND_ORGANIZATION_ASSIGNMENT(#1226,#1229,(#6,#5)
  );
#1226 = PERSON_AND_ORGANIZATION(#1227,#1228);
#1227 = PERSON('IP172.17.0,root','','root',$,$,$);
#1228 = ORGANIZATION('IP172.17.0','Unspecified','');
#1229 = PERSON_AND_ORGANIZATION_ROLE('creator');
#1230 = CC_DESIGN_PERSON_AND_ORGANIZATION_ASSIGNMENT(#1226,#1231,(#7));
#1231 = PERSON_AND_ORGANIZATION_ROLE('design_owner');
#1232 = CC_DESIGN_PERSON_AND_ORGANIZATION_ASSIGNMENT(#1226,#1233,(#6));
#1233 = PERSON_AND_ORGANIZATION_ROLE('design_supplier');
#1234 = CC_DESIGN_PERSON_AND_ORGANIZATION_ASSIGNMENT(#1226,#1235,(#1236)
  );
#1235 = PERSON_AND_ORGANIZATION_ROLE('classification_officer');
#1236 = SECURITY_CLASSIFICATION('','',#1237);
#1237 = SECURITY_CLASSIFICATION_LEVEL('unclassified');
#1238 = CC_DESIGN_SECURITY_CLASSIFICATION(#1236,(#6));
#1239 = CC_DESIGN_DATE_AND_TIME_ASSIGNMENT(#1240,#1244,(#5));
#1240 = DATE_AND_TIME(#1241,#1242);
#1241 = CALENDAR_DATE(2024,1,10);
#1242 = LOCAL_TIME(20,10,$,#1243);
#1243 = COORDINATED_UNIVERSAL_TIME_OFFSET(8,$,.AHEAD.);
#1244 = DATE_TIME_ROLE('creation_date');
#1245 = CC_DESIGN_DATE_AND_TIME_ASSIGNMENT(#1240,#1246,(#1236));
#1246 = DATE_TIME_ROLE('classification_date');
#1247 = CC_DESIGN_APPROVAL(#1248,(#6,#5,#1236));
#1248 = APPROVAL(#1249,'');
#1249 = APPROVAL_STATUS('not_yet_approved');
#1250 = APPROVAL_PERSON_ORGANIZATION(#1226,#1248,#1251);
#1251 = APPROVAL_ROLE('approver');
#1252 = APPROVAL_DATE_TIME(#1240,#1248);
ENDSEC;
END-ISO-10303-21;
