ISO-10303-21;
HEADER;
FILE_DESCRIPTION(('Open CASCADE Model'),'2;1');
FILE_NAME('Open CASCADE Shape Model','2024-10-01T20:18:29',('Author'),(
    'Open CASCADE'),'Open CASCADE STEP processor 7.8','Open CASCADE 7.8'
  ,'Unknown');
FILE_SCHEMA(('CONFIG_CONTROL_DESIGN'));
ENDSEC;
DATA;
#1 = APPLICATION_PROTOCOL_DEFINITION('international standard',
  'config_control_design',1994,#2);
#2 = APPLICATION_CONTEXT(
'configuration controlled 3D designs of mechanical parts and assemblies'
  );
#3 = SHAPE_DEFINITION_REPRESENTATION(#4,#10);
#4 = PRODUCT_DEFINITION_SHAPE('','',#5);
#5 = PRODUCT_DEFINITION('design','',#6,#9);
#6 = PRODUCT_DEFINITION_FORMATION_WITH_SPECIFIED_SOURCE('','',#7,
  .NOT_KNOWN.);
#7 = PRODUCT('Open CASCADE STEP translator 7.8 315',
  'Open CASCADE STEP translator 7.8 315','',(#8));
#8 = MECHANICAL_CONTEXT('',#2,'mechanical');
#9 = DESIGN_CONTEXT('',#2,'design');
#10 = ADVANCED_BREP_SHAPE_REPRESENTATION('',(#11,#15),#1031);
#11 = AXIS2_PLACEMENT_3D('',#12,#13,#14);
#12 = CARTESIAN_POINT('',(0.,0.,0.));
#13 = DIRECTION('',(0.,0.,1.));
#14 = DIRECTION('',(1.,0.,-0.));
#15 = MANIFOLD_SOLID_BREP('',#16);
#16 = CLOSED_SHELL('',(#17,#339,#600,#667,#770,#839,#976,#1022));
#17 = ADVANCED_FACE('',(#18),#33,.F.);
#18 = FACE_BOUND('',#19,.F.);
#19 = EDGE_LOOP('',(#20,#114,#173,#284));
#20 = ORIENTED_EDGE('',*,*,#21,.F.);
#21 = EDGE_CURVE('',#22,#24,#26,.T.);
#22 = VERTEX_POINT('',#23);
#23 = CARTESIAN_POINT('',(0.449997432886,-0.779418451755,
    5.926360443182E-03));
#24 = VERTEX_POINT('',#25);
#25 = CARTESIAN_POINT('',(0.449997432884,-0.779418451756,
    -5.926360443183E-03));
#26 = SURFACE_CURVE('',#27,(#32,#55),.PCURVE_S1.);
#27 = B_SPLINE_CURVE_WITH_KNOTS('',3,(#28,#29,#30,#31),.UNSPECIFIED.,.F.
  ,.F.,(4,4),(0.,1.),.PIECEWISE_BEZIER_KNOTS.);
#28 = CARTESIAN_POINT('',(0.449999987658,-0.779422878489,
    5.307266154672E-03));
#29 = CARTESIAN_POINT('',(0.449999987997,-0.779422879077,
    1.76908871967E-03));
#30 = CARTESIAN_POINT('',(0.449999988337,-0.779422879665,
    -1.769088724361E-03));
#31 = CARTESIAN_POINT('',(0.449999988676,-0.779422880254,
    -5.307266159363E-03));
#32 = PCURVE('',#33,#50);
#33 = B_SPLINE_SURFACE_WITH_KNOTS('',3,3,(
    (#34,#35,#36,#37)
    ,(#38,#39,#40,#41)
    ,(#42,#43,#44,#45)
    ,(#46,#47,#48,#49
    )),.UNSPECIFIED.,.F.,.F.,.F.,(4,4),(4,4),(0.,1.),(0.,1.),
  .PIECEWISE_BEZIER_KNOTS.);
#34 = CARTESIAN_POINT('',(0.450002551458,-0.779418454919,
    -5.307266162281E-03));
#35 = CARTESIAN_POINT('',(0.600000843413,-0.519613781151,
    -5.307266162281E-03));
#36 = CARTESIAN_POINT('',(0.749999135726,-0.259809106678,
    -5.30726616228E-03));
#37 = CARTESIAN_POINT('',(0.899997427611,-4.432869571875E-06,
    -5.30726616228E-03));
#38 = CARTESIAN_POINT('',(0.450002551297,-0.779418454639,
    -1.769088723565E-03));
#39 = CARTESIAN_POINT('',(0.600000843198,-0.519613780965,
    -1.769088723565E-03));
#40 = CARTESIAN_POINT('',(0.749999135457,-0.259809106585,
    -1.769088723565E-03));
#41 = CARTESIAN_POINT('',(0.899997427288,-4.432869570286E-06,
    -1.769088723565E-03));
#42 = CARTESIAN_POINT('',(0.450002551135,-0.77941845436,
    1.769088724178E-03));
#43 = CARTESIAN_POINT('',(0.600000842983,-0.519613780779,
    1.769088724178E-03));
#44 = CARTESIAN_POINT('',(0.749999135188,-0.259809106491,
    1.769088724178E-03));
#45 = CARTESIAN_POINT('',(0.899997426965,-4.432869568696E-06,
    1.769088724178E-03));
#46 = CARTESIAN_POINT('',(0.450002550974,-0.77941845408,
    5.307266162894E-03));
#47 = CARTESIAN_POINT('',(0.600000842768,-0.519613780592,
    5.307266162893E-03));
#48 = CARTESIAN_POINT('',(0.749999134919,-0.259809106398,
    5.307266162893E-03));
#49 = CARTESIAN_POINT('',(0.899997426643,-4.432869567106E-06,
    5.307266162892E-03));
#50 = DEFINITIONAL_REPRESENTATION('',(#51),#54);
#51 = B_SPLINE_CURVE_WITH_KNOTS('',1,(#52,#53),.UNSPECIFIED.,.F.,.F.,(2,
    2),(0.,1.),.PIECEWISE_BEZIER_KNOTS.);
#52 = CARTESIAN_POINT('',(0.999999999225,-5.681518577847E-06));
#53 = CARTESIAN_POINT('',(2.749820584993E-10,-5.682112611466E-06));
#54 = ( GEOMETRIC_REPRESENTATION_CONTEXT(2) 
PARAMETRIC_REPRESENTATION_CONTEXT() REPRESENTATION_CONTEXT('2D SPACE',''
  ) );
#55 = PCURVE('',#56,#73);
#56 = B_SPLINE_SURFACE_WITH_KNOTS('',3,3,(
    (#57,#58,#59,#60)
    ,(#61,#62,#63,#64)
    ,(#65,#66,#67,#68)
    ,(#69,#70,#71,#72
    )),.UNSPECIFIED.,.F.,.F.,.F.,(4,4),(4,4),(0.,1.),(0.,1.),
  .PIECEWISE_BEZIER_KNOTS.);
#57 = CARTESIAN_POINT('',(-0.449994874101,-0.779422878852,
    -5.307266171111E-03));
#58 = CARTESIAN_POINT('',(-0.149998291632,-0.779422878852,
    -5.307266171111E-03));
#59 = CARTESIAN_POINT('',(0.149998291627,-0.779422878852,
    -5.307266171111E-03));
#60 = CARTESIAN_POINT('',(0.449994874096,-0.779422878852,
    -5.307266171111E-03));
#61 = CARTESIAN_POINT('',(-0.449994874249,-0.779422879108,
    -1.769088726509E-03));
#62 = CARTESIAN_POINT('',(-0.149998291682,-0.779422879108,
    -1.769088726509E-03));
#63 = CARTESIAN_POINT('',(0.149998291676,-0.779422879108,
    -1.769088726509E-03));
#64 = CARTESIAN_POINT('',(0.449994874244,-0.779422879108,
    -1.769088726509E-03));
#65 = CARTESIAN_POINT('',(-0.449994874397,-0.779422879364,
    1.769088727121E-03));
#66 = CARTESIAN_POINT('',(-0.149998291731,-0.779422879364,
    1.769088727121E-03));
#67 = CARTESIAN_POINT('',(0.149998291725,-0.779422879364,
    1.769088727121E-03));
#68 = CARTESIAN_POINT('',(0.449994874391,-0.779422879364,
    1.769088727121E-03));
#69 = CARTESIAN_POINT('',(-0.449994874545,-0.77942287962,
    5.307266171723E-03));
#70 = CARTESIAN_POINT('',(-0.14999829178,-0.77942287962,
    5.307266171723E-03));
#71 = CARTESIAN_POINT('',(0.149998291775,-0.77942287962,
    5.307266171724E-03));
#72 = CARTESIAN_POINT('',(0.449994874539,-0.77942287962,
    5.307266171724E-03));
#73 = DEFINITIONAL_REPRESENTATION('',(#74),#113);
#74 = B_SPLINE_CURVE_WITH_KNOTS('',10,(#75,#76,#77,#78,#79,#80,#81,#82,
    #83,#84,#85,#86,#87,#88,#89,#90,#91,#92,#93,#94,#95,#96,#97,#98,#99,
    #100,#101,#102,#103,#104,#105,#106,#107,#108,#109,#110,#111,#112),
  .UNSPECIFIED.,.F.,.F.,(11,9,9,9,11),(0.,0.125,0.25,0.5,1.),
  .UNSPECIFIED.);
#75 = CARTESIAN_POINT('',(1.058325157752,0.999994318666));
#76 = CARTESIAN_POINT('',(1.045825162961,0.999994452878));
#77 = CARTESIAN_POINT('',(0.9950042975,0.999994998536));
#78 = CARTESIAN_POINT('',(0.98705688258,0.999995083867));
#79 = CARTESIAN_POINT('',(0.74267284539,0.999997707794));
#80 = CARTESIAN_POINT('',(1.210107189751,0.999992688998));
#81 = CARTESIAN_POINT('',(0.751376185763,0.999997614347));
#82 = CARTESIAN_POINT('',(0.973136469606,0.999995233329));
#83 = CARTESIAN_POINT('',(0.889544750769,0.999996130845));
#84 = CARTESIAN_POINT('',(0.88762951708,0.999996151409));
#85 = CARTESIAN_POINT('',(0.862486306525,0.999996421369));
#86 = CARTESIAN_POINT('',(0.849942636232,0.999996556049));
#87 = CARTESIAN_POINT('',(0.837421909494,0.999996690483));
#88 = CARTESIAN_POINT('',(0.824919134883,0.999996824724));
#89 = CARTESIAN_POINT('',(0.812429320969,0.999996958826));
#90 = CARTESIAN_POINT('',(0.799947476325,0.999997092842));
#91 = CARTESIAN_POINT('',(0.787468609522,0.999997226827));
#92 = CARTESIAN_POINT('',(0.77498772913,0.999997360833));
#93 = CARTESIAN_POINT('',(0.762499843722,0.999997494914));
#94 = CARTESIAN_POINT('',(0.725000198162,0.999997897544));
#95 = CARTESIAN_POINT('',(0.700000331943,0.999998165965));
#96 = CARTESIAN_POINT('',(0.675000382278,0.999998434387));
#97 = CARTESIAN_POINT('',(0.650000368233,0.99999870281));
#98 = CARTESIAN_POINT('',(0.625000308876,0.999998971233));
#99 = CARTESIAN_POINT('',(0.60000022327,0.999999239656));
#100 = CARTESIAN_POINT('',(0.575000130485,0.99999950808));
#101 = CARTESIAN_POINT('',(0.550000049585,0.999999776503));
#102 = CARTESIAN_POINT('',(0.524999999636,1.000000044926));
#103 = CARTESIAN_POINT('',(0.449999999847,1.000000850194));
#104 = CARTESIAN_POINT('',(0.399999995414,1.000001387039));
#105 = CARTESIAN_POINT('',(0.349999988126,1.000001923885));
#106 = CARTESIAN_POINT('',(0.299999979702,1.00000246073));
#107 = CARTESIAN_POINT('',(0.24999997186,1.000002997575));
#108 = CARTESIAN_POINT('',(0.19999996632,1.00000353442));
#109 = CARTESIAN_POINT('',(0.1499999648,1.000004071265));
#110 = CARTESIAN_POINT('',(9.999996901932E-02,1.00000460811));
#111 = CARTESIAN_POINT('',(4.999998069591E-02,1.000005144955));
#112 = CARTESIAN_POINT('',(1.548780881322E-09,1.0000056818));
#113 = ( GEOMETRIC_REPRESENTATION_CONTEXT(2) 
PARAMETRIC_REPRESENTATION_CONTEXT() REPRESENTATION_CONTEXT('2D SPACE',''
  ) );
#114 = ORIENTED_EDGE('',*,*,#115,.F.);
#115 = EDGE_CURVE('',#116,#22,#118,.T.);
#116 = VERTEX_POINT('',#117);
#117 = CARTESIAN_POINT('',(0.899994866934,-8.858912600631E-06,
    5.926360444356E-03));
#118 = SURFACE_CURVE('',#119,(#124,#132),.PCURVE_S1.);
#119 = B_SPLINE_CURVE_WITH_KNOTS('',3,(#120,#121,#122,#123),
  .UNSPECIFIED.,.F.,.F.,(4,4),(0.,1.),.PIECEWISE_BEZIER_KNOTS.);
#120 = CARTESIAN_POINT('',(0.899989756515,-1.771782520155E-05,
    6.54545472935E-03));
#121 = CARTESIAN_POINT('',(0.749996578158,-0.259813534682,
    6.545454729349E-03));
#122 = CARTESIAN_POINT('',(0.600003399398,-0.519609352219,
    6.545454729348E-03));
#123 = CARTESIAN_POINT('',(0.450010221024,-0.779405169066,
    6.545454729346E-03));
#124 = PCURVE('',#33,#125);
#125 = DEFINITIONAL_REPRESENTATION('',(#126),#131);
#126 = B_SPLINE_CURVE_WITH_KNOTS('',3,(#127,#128,#129,#130),
  .UNSPECIFIED.,.F.,.F.,(4,4),(0.,1.),.PIECEWISE_BEZIER_KNOTS.);
#127 = CARTESIAN_POINT('',(1.058325158681,0.999994318944));
#128 = CARTESIAN_POINT('',(1.055550137336,0.66667235042));
#129 = CARTESIAN_POINT('',(1.052775021345,0.333339013335));
#130 = CARTESIAN_POINT('',(1.05,1.70448166128E-05));
#131 = ( GEOMETRIC_REPRESENTATION_CONTEXT(2) 
PARAMETRIC_REPRESENTATION_CONTEXT() REPRESENTATION_CONTEXT('2D SPACE',''
  ) );
#132 = PCURVE('',#133,#150);
#133 = B_SPLINE_SURFACE_WITH_KNOTS('',3,3,(
    (#134,#135,#136,#137)
    ,(#138,#139,#140,#141)
    ,(#142,#143,#144,#145)
    ,(#146,#147,#148,#149
    )),.UNSPECIFIED.,.F.,.F.,.F.,(4,4),(4,4),(0.,1.),(0.,1.),
  .PIECEWISE_BEZIER_KNOTS.);
#134 = CARTESIAN_POINT('',(-0.899997419077,-0.779411069601,
    6.545454729348E-03));
#135 = CARTESIAN_POINT('',(-0.299999140223,-0.779411069601,
    6.545454729348E-03));
#136 = CARTESIAN_POINT('',(0.299999140212,-0.779411069601,
    6.545454729348E-03));
#137 = CARTESIAN_POINT('',(0.899997419066,-0.779411069601,
    6.545454729348E-03));
#138 = CARTESIAN_POINT('',(-0.899997419077,-0.259803690326,
    6.545454729348E-03));
#139 = CARTESIAN_POINT('',(-0.299999140223,-0.259803690326,
    6.545454729348E-03));
#140 = CARTESIAN_POINT('',(0.299999140212,-0.259803690326,
    6.545454729348E-03));
#141 = CARTESIAN_POINT('',(0.899997419066,-0.259803690326,
    6.545454729348E-03));
#142 = CARTESIAN_POINT('',(-0.899997419077,0.259803690317,
    6.545454729348E-03));
#143 = CARTESIAN_POINT('',(-0.299999140223,0.259803690317,
    6.545454729348E-03));
#144 = CARTESIAN_POINT('',(0.299999140212,0.259803690317,
    6.545454729349E-03));
#145 = CARTESIAN_POINT('',(0.899997419066,0.259803690317,
    6.545454729349E-03));
#146 = CARTESIAN_POINT('',(-0.899997419077,0.779411069591,
    6.545454729349E-03));
#147 = CARTESIAN_POINT('',(-0.299999140223,0.779411069591,
    6.545454729349E-03));
#148 = CARTESIAN_POINT('',(0.299999140212,0.779411069591,
    6.545454729349E-03));
#149 = CARTESIAN_POINT('',(0.899997419066,0.779411069591,
    6.545454729349E-03));
#150 = DEFINITIONAL_REPRESENTATION('',(#151),#172);
#151 = B_SPLINE_CURVE_WITH_KNOTS('',10,(#152,#153,#154,#155,#156,#157,
    #158,#159,#160,#161,#162,#163,#164,#165,#166,#167,#168,#169,#170,
    #171),.UNSPECIFIED.,.F.,.F.,(11,9,11),(0.,0.5,1.),.UNSPECIFIED.);
#152 = CARTESIAN_POINT('',(0.500000000002,0.999995743014));
#153 = CARTESIAN_POINT('',(0.475000757621,0.987496275605));
#154 = CARTESIAN_POINT('',(0.449902123483,0.974947112929));
#155 = CARTESIAN_POINT('',(0.425235460528,0.962613933186));
#156 = CARTESIAN_POINT('',(0.399623238897,0.949807979923));
#157 = CARTESIAN_POINT('',(0.375367315531,0.937680167449));
#158 = CARTESIAN_POINT('',(0.349748760026,0.924871047287));
#159 = CARTESIAN_POINT('',(0.325097426278,0.912545532054));
#160 = CARTESIAN_POINT('',(0.299981608811,0.899987777819));
#161 = CARTESIAN_POINT('',(0.274997443555,0.887495848879));
#162 = CARTESIAN_POINT('',(0.225000661077,0.862497765192));
#163 = CARTESIAN_POINT('',(0.200016476184,0.850005826434));
#164 = CARTESIAN_POINT('',(0.174900744395,0.837448115038));
#165 = CARTESIAN_POINT('',(0.150249215062,0.825122502013));
#166 = CARTESIAN_POINT('',(0.124630941237,0.81231352269));
#167 = CARTESIAN_POINT('',(0.100374735262,0.800185568913));
#168 = CARTESIAN_POINT('',(7.476271471594E-02,0.787379716191));
#169 = CARTESIAN_POINT('',(5.009595477236E-02,0.775046487955));
#170 = CARTESIAN_POINT('',(2.499734702976E-02,0.762497338476));
#171 = CARTESIAN_POINT('',(-1.895369819871E-06,0.749997871058));
#172 = ( GEOMETRIC_REPRESENTATION_CONTEXT(2) 
PARAMETRIC_REPRESENTATION_CONTEXT() REPRESENTATION_CONTEXT('2D SPACE',''
  ) );
#173 = ORIENTED_EDGE('',*,*,#174,.F.);
#174 = EDGE_CURVE('',#175,#116,#177,.T.);
#175 = VERTEX_POINT('',#176);
#176 = CARTESIAN_POINT('',(0.899994866424,-5.908199041987E-12,
    -5.926360443183E-03));
#177 = SURFACE_CURVE('',#178,(#183,#225),.PCURVE_S1.);
#178 = B_SPLINE_CURVE_WITH_KNOTS('',3,(#179,#180,#181,#182),
  .UNSPECIFIED.,.F.,.F.,(4,4),(0.,1.),.PIECEWISE_BEZIER_KNOTS.);
#179 = CARTESIAN_POINT('',(0.899999975315,2.838638484767E-16,
    -5.307266154672E-03));
#180 = CARTESIAN_POINT('',(0.899999975994,2.838638486909E-16,
    -1.76908871967E-03));
#181 = CARTESIAN_POINT('',(0.899999976674,2.838638489051E-16,
    1.769088724361E-03));
#182 = CARTESIAN_POINT('',(0.899999977353,2.838638491193E-16,
    5.307266159363E-03));
#183 = PCURVE('',#33,#184);
#184 = DEFINITIONAL_REPRESENTATION('',(#185),#224);
#185 = B_SPLINE_CURVE_WITH_KNOTS('',10,(#186,#187,#188,#189,#190,#191,
    #192,#193,#194,#195,#196,#197,#198,#199,#200,#201,#202,#203,#204,
    #205,#206,#207,#208,#209,#210,#211,#212,#213,#214,#215,#216,#217,
    #218,#219,#220,#221,#222,#223),.UNSPECIFIED.,.F.,.F.,(11,9,9,9,11),(
    0.,0.5,0.75,0.875,1.),.UNSPECIFIED.);
#186 = CARTESIAN_POINT('',(7.168553528558E-10,1.000005680987));
#187 = CARTESIAN_POINT('',(4.999997994719E-02,1.000005144193));
#188 = CARTESIAN_POINT('',(9.99999683871E-02,1.0000046074));
#189 = CARTESIAN_POINT('',(0.14999996431,1.000004070606));
#190 = CARTESIAN_POINT('',(0.199999965989,1.000003533813));
#191 = CARTESIAN_POINT('',(0.249999971697,1.000002997019));
#192 = CARTESIAN_POINT('',(0.299999979707,1.000002460225));
#193 = CARTESIAN_POINT('',(0.349999988293,1.000001923432));
#194 = CARTESIAN_POINT('',(0.399999995727,1.000001386638));
#195 = CARTESIAN_POINT('',(0.450000000284,1.000000849845));
#196 = CARTESIAN_POINT('',(0.525000000212,1.000000044654));
#197 = CARTESIAN_POINT('',(0.550000050206,0.999999776257));
#198 = CARTESIAN_POINT('',(0.575000131152,0.99999950786));
#199 = CARTESIAN_POINT('',(0.600000223983,0.999999239461));
#200 = CARTESIAN_POINT('',(0.625000309635,0.999998971064));
#201 = CARTESIAN_POINT('',(0.650000369038,0.999998702666));
#202 = CARTESIAN_POINT('',(0.675000383129,0.99999843427));
#203 = CARTESIAN_POINT('',(0.70000033284,0.999998165873));
#204 = CARTESIAN_POINT('',(0.725000199105,0.999997897478));
#205 = CARTESIAN_POINT('',(0.762499844734,0.999997494887));
#206 = CARTESIAN_POINT('',(0.774987730167,0.999997360818));
#207 = CARTESIAN_POINT('',(0.787468610584,0.999997226825));
#208 = CARTESIAN_POINT('',(0.799947477413,0.999997092854));
#209 = CARTESIAN_POINT('',(0.812429322083,0.999996958851));
#210 = CARTESIAN_POINT('',(0.824919136022,0.999996824761));
#211 = CARTESIAN_POINT('',(0.837421910657,0.999996690533));
#212 = CARTESIAN_POINT('',(0.849942637417,0.999996556112));
#213 = CARTESIAN_POINT('',(0.862486307729,0.999996421445));
#214 = CARTESIAN_POINT('',(0.887629518316,0.999996151511));
#215 = CARTESIAN_POINT('',(0.889544752848,0.999996130949));
#216 = CARTESIAN_POINT('',(0.973136466932,0.999995233519));
#217 = CARTESIAN_POINT('',(0.751376194695,0.999997614309));
#218 = CARTESIAN_POINT('',(1.210107186375,0.999992689432));
#219 = CARTESIAN_POINT('',(0.742672842069,0.999997707747));
#220 = CARTESIAN_POINT('',(0.987056891172,0.999995084071));
#221 = CARTESIAN_POINT('',(0.995004298456,0.999994998749));
#222 = CARTESIAN_POINT('',(1.045825163869,0.999994453143));
#223 = CARTESIAN_POINT('',(1.058325158681,0.999994318944));
#224 = ( GEOMETRIC_REPRESENTATION_CONTEXT(2) 
PARAMETRIC_REPRESENTATION_CONTEXT() REPRESENTATION_CONTEXT('2D SPACE',''
  ) );
#225 = PCURVE('',#226,#243);
#226 = B_SPLINE_SURFACE_WITH_KNOTS('',3,3,(
    (#227,#228,#229,#230)
    ,(#231,#232,#233,#234)
    ,(#235,#236,#237,#238)
    ,(#239,#240,#241,#242
    )),.UNSPECIFIED.,.F.,.F.,.F.,(4,4),(4,4),(0.,1.),(0.,1.),
  .PIECEWISE_BEZIER_KNOTS.);
#227 = CARTESIAN_POINT('',(0.89999742615,4.432864754623E-06,
    -5.307266171112E-03));
#228 = CARTESIAN_POINT('',(0.749999134509,0.25980910625,
    -5.307266171111E-03));
#229 = CARTESIAN_POINT('',(0.60000084244,0.519613780301,
    -5.307266171111E-03));
#230 = CARTESIAN_POINT('',(0.450002550729,0.779418453646,
    -5.307266171111E-03));
#231 = CARTESIAN_POINT('',(0.899997426445,4.432864756079E-06,
    -1.769088726509E-03));
#232 = CARTESIAN_POINT('',(0.749999134755,0.259809106336,
    -1.769088726509E-03));
#233 = CARTESIAN_POINT('',(0.600000842637,0.519613780472,
    -1.769088726509E-03));
#234 = CARTESIAN_POINT('',(0.450002550877,0.779418453902,
    -1.769088726509E-03));
#235 = CARTESIAN_POINT('',(0.899997426741,4.432864757535E-06,
    1.769088727121E-03));
#236 = CARTESIAN_POINT('',(0.749999135002,0.259809106421,
    1.769088727121E-03));
#237 = CARTESIAN_POINT('',(0.600000842834,0.519613780643,
    1.769088727121E-03));
#238 = CARTESIAN_POINT('',(0.450002551024,0.779418454158,
    1.769088727121E-03));
#239 = CARTESIAN_POINT('',(0.899997427037,4.432864758991E-06,
    5.307266171724E-03));
#240 = CARTESIAN_POINT('',(0.749999135248,0.259809106506,
    5.307266171724E-03));
#241 = CARTESIAN_POINT('',(0.600000843031,0.519613780813,
    5.307266171723E-03));
#242 = CARTESIAN_POINT('',(0.450002551172,0.779418454414,
    5.307266171723E-03));
#243 = DEFINITIONAL_REPRESENTATION('',(#244),#283);
#244 = B_SPLINE_CURVE_WITH_KNOTS('',10,(#245,#246,#247,#248,#249,#250,
    #251,#252,#253,#254,#255,#256,#257,#258,#259,#260,#261,#262,#263,
    #264,#265,#266,#267,#268,#269,#270,#271,#272,#273,#274,#275,#276,
    #277,#278,#279,#280,#281,#282),.UNSPECIFIED.,.F.,.F.,(11,9,9,9,11),(
    0.,0.125,0.25,0.5,1.),.UNSPECIFIED.);
#245 = CARTESIAN_POINT('',(-5.832515780941E-02,5.68078947761E-06));
#246 = CARTESIAN_POINT('',(-4.58251630187E-02,5.546590578415E-06));
#247 = CARTESIAN_POINT('',(4.9957024426E-03,5.000982014956E-06));
#248 = CARTESIAN_POINT('',(1.294311736102E-02,4.915659232721E-06));
#249 = CARTESIAN_POINT('',(0.257327154552,2.29197263758E-06));
#250 = CARTESIAN_POINT('',(-0.210107189808,7.310308685631E-06));
#251 = CARTESIAN_POINT('',(0.248623814178,2.38541097232E-06));
#252 = CARTESIAN_POINT('',(2.686353033686E-02,4.766210842624E-06));
#253 = CARTESIAN_POINT('',(0.110455249173,3.868777136661E-06));
#254 = CARTESIAN_POINT('',(0.112370482862,3.848215347866E-06));
#255 = CARTESIAN_POINT('',(0.137513693417,3.578279941084E-06));
#256 = CARTESIAN_POINT('',(0.15005736371,3.443612145345E-06));
#257 = CARTESIAN_POINT('',(0.162578090448,3.309190669698E-06));
#258 = CARTESIAN_POINT('',(0.175080865059,3.174961926581E-06));
#259 = CARTESIAN_POINT('',(0.187570678973,3.040872328435E-06));
#260 = CARTESIAN_POINT('',(0.200052523617,2.906868287697E-06));
#261 = CARTESIAN_POINT('',(0.21253139042,2.772896216808E-06));
#262 = CARTESIAN_POINT('',(0.225012270812,2.638902528207E-06));
#263 = CARTESIAN_POINT('',(0.23750015622,2.504833634333E-06));
#264 = CARTESIAN_POINT('',(0.27499980178,2.102240574209E-06));
#265 = CARTESIAN_POINT('',(0.299999667999,1.833844100229E-06));
#266 = CARTESIAN_POINT('',(0.324999617664,1.565446730381E-06));
#267 = CARTESIAN_POINT('',(0.349999631709,1.297048669356E-06));
#268 = CARTESIAN_POINT('',(0.374999691067,1.028650121853E-06));
#269 = CARTESIAN_POINT('',(0.399999776672,7.602512925617E-07));
#270 = CARTESIAN_POINT('',(0.424999869458,4.918523861808E-07));
#271 = CARTESIAN_POINT('',(0.449999950358,2.234536074022E-07));
#272 = CARTESIAN_POINT('',(0.475000000306,-4.494483907815E-08));
#273 = CARTESIAN_POINT('',(0.550000000095,-8.50138567543E-07));
#274 = CARTESIAN_POINT('',(0.600000004529,-1.38693443562E-06));
#275 = CARTESIAN_POINT('',(0.650000011817,-1.923730334347E-06));
#276 = CARTESIAN_POINT('',(0.70000002024,-2.460526245267E-06));
#277 = CARTESIAN_POINT('',(0.750000028082,-2.997322149937E-06));
#278 = CARTESIAN_POINT('',(0.800000033622,-3.534118029893E-06));
#279 = CARTESIAN_POINT('',(0.850000035142,-4.070913866695E-06));
#280 = CARTESIAN_POINT('',(0.900000030923,-4.607709641881E-06));
#281 = CARTESIAN_POINT('',(0.950000019246,-5.144505337006E-06));
#282 = CARTESIAN_POINT('',(0.999999998393,-5.681300933613E-06));
#283 = ( GEOMETRIC_REPRESENTATION_CONTEXT(2) 
PARAMETRIC_REPRESENTATION_CONTEXT() REPRESENTATION_CONTEXT('2D SPACE',''
  ) );
#284 = ORIENTED_EDGE('',*,*,#285,.T.);
#285 = EDGE_CURVE('',#175,#24,#286,.T.);
#286 = SURFACE_CURVE('',#287,(#292,#298),.PCURVE_S1.);
#287 = B_SPLINE_CURVE_WITH_KNOTS('',3,(#288,#289,#290,#291),
  .UNSPECIFIED.,.F.,.F.,(4,4),(0.,1.),.PIECEWISE_BEZIER_KNOTS.);
#288 = CARTESIAN_POINT('',(0.899989756515,-1.771782520155E-05,
    -6.54545472935E-03));
#289 = CARTESIAN_POINT('',(0.749996578158,-0.259813534682,
    -6.545454729349E-03));
#290 = CARTESIAN_POINT('',(0.600003399398,-0.519609352219,
    -6.545454729348E-03));
#291 = CARTESIAN_POINT('',(0.450010221024,-0.779405169066,
    -6.545454729346E-03));
#292 = PCURVE('',#33,#293);
#293 = DEFINITIONAL_REPRESENTATION('',(#294),#297);
#294 = B_SPLINE_CURVE_WITH_KNOTS('',1,(#295,#296),.UNSPECIFIED.,.F.,.F.,
  (2,2),(0.,1.),.PIECEWISE_BEZIER_KNOTS.);
#295 = CARTESIAN_POINT('',(-5.E-02,0.999982954599));
#296 = CARTESIAN_POINT('',(-5.E-02,1.704540219682E-05));
#297 = ( GEOMETRIC_REPRESENTATION_CONTEXT(2) 
PARAMETRIC_REPRESENTATION_CONTEXT() REPRESENTATION_CONTEXT('2D SPACE',''
  ) );
#298 = PCURVE('',#299,#316);
#299 = B_SPLINE_SURFACE_WITH_KNOTS('',3,3,(
    (#300,#301,#302,#303)
    ,(#304,#305,#306,#307)
    ,(#308,#309,#310,#311)
    ,(#312,#313,#314,#315
    )),.UNSPECIFIED.,.F.,.F.,.F.,(4,4),(4,4),(0.,1.),(0.,1.),
  .PIECEWISE_BEZIER_KNOTS.);
#300 = CARTESIAN_POINT('',(-0.899997419077,-0.779411069601,
    -6.545454729348E-03));
#301 = CARTESIAN_POINT('',(-0.299999140223,-0.779411069601,
    -6.545454729348E-03));
#302 = CARTESIAN_POINT('',(0.299999140212,-0.779411069601,
    -6.545454729348E-03));
#303 = CARTESIAN_POINT('',(0.899997419066,-0.779411069601,
    -6.545454729348E-03));
#304 = CARTESIAN_POINT('',(-0.899997419077,-0.259803690326,
    -6.545454729348E-03));
#305 = CARTESIAN_POINT('',(-0.299999140223,-0.259803690326,
    -6.545454729348E-03));
#306 = CARTESIAN_POINT('',(0.299999140212,-0.259803690326,
    -6.545454729348E-03));
#307 = CARTESIAN_POINT('',(0.899997419066,-0.259803690326,
    -6.545454729348E-03));
#308 = CARTESIAN_POINT('',(-0.899997419077,0.259803690317,
    -6.545454729348E-03));
#309 = CARTESIAN_POINT('',(-0.299999140223,0.259803690317,
    -6.545454729348E-03));
#310 = CARTESIAN_POINT('',(0.299999140212,0.259803690317,
    -6.545454729349E-03));
#311 = CARTESIAN_POINT('',(0.899997419066,0.259803690317,
    -6.545454729349E-03));
#312 = CARTESIAN_POINT('',(-0.899997419077,0.779411069591,
    -6.545454729349E-03));
#313 = CARTESIAN_POINT('',(-0.299999140223,0.779411069591,
    -6.545454729349E-03));
#314 = CARTESIAN_POINT('',(0.299999140212,0.779411069591,
    -6.545454729349E-03));
#315 = CARTESIAN_POINT('',(0.899997419066,0.779411069591,
    -6.545454729349E-03));
#316 = DEFINITIONAL_REPRESENTATION('',(#317),#338);
#317 = B_SPLINE_CURVE_WITH_KNOTS('',10,(#318,#319,#320,#321,#322,#323,
    #324,#325,#326,#327,#328,#329,#330,#331,#332,#333,#334,#335,#336,
    #337),.UNSPECIFIED.,.F.,.F.,(11,9,11),(0.,0.5,1.),.UNSPECIFIED.);
#318 = CARTESIAN_POINT('',(0.500000000005,0.999995743014));
#319 = CARTESIAN_POINT('',(0.475000757624,0.987496275605));
#320 = CARTESIAN_POINT('',(0.449902123456,0.974947112914));
#321 = CARTESIAN_POINT('',(0.425235460611,0.962613933227));
#322 = CARTESIAN_POINT('',(0.399623238751,0.949807979848));
#323 = CARTESIAN_POINT('',(0.375367315709,0.937680167537));
#324 = CARTESIAN_POINT('',(0.349748759878,0.924871047212));
#325 = CARTESIAN_POINT('',(0.325097426358,0.912545532094));
#326 = CARTESIAN_POINT('',(0.29998160879,0.899987777808));
#327 = CARTESIAN_POINT('',(0.274997443558,0.88749584888));
#328 = CARTESIAN_POINT('',(0.225000661079,0.862497765193));
#329 = CARTESIAN_POINT('',(0.200016476163,0.850005826424));
#330 = CARTESIAN_POINT('',(0.174900744475,0.837448115078));
#331 = CARTESIAN_POINT('',(0.150249214911,0.825122501939));
#332 = CARTESIAN_POINT('',(0.124630941417,0.812313522781));
#333 = CARTESIAN_POINT('',(0.100374735112,0.800185568839));
#334 = CARTESIAN_POINT('',(7.476271479964E-02,0.787379716234));
#335 = CARTESIAN_POINT('',(5.009595474359E-02,0.775046487942));
#336 = CARTESIAN_POINT('',(2.499734703144E-02,0.762497338478));
#337 = CARTESIAN_POINT('',(-1.895368209354E-06,0.74999787106));
#338 = ( GEOMETRIC_REPRESENTATION_CONTEXT(2) 
PARAMETRIC_REPRESENTATION_CONTEXT() REPRESENTATION_CONTEXT('2D SPACE',''
  ) );
#339 = ADVANCED_FACE('',(#340),#133,.F.);
#340 = FACE_BOUND('',#341,.F.);
#341 = EDGE_LOOP('',(#342,#343,#387,#444,#503,#562));
#342 = ORIENTED_EDGE('',*,*,#115,.T.);
#343 = ORIENTED_EDGE('',*,*,#344,.F.);
#344 = EDGE_CURVE('',#345,#22,#347,.T.);
#345 = VERTEX_POINT('',#346);
#346 = CARTESIAN_POINT('',(-0.449989760911,-0.779422878854,
    5.92636044201E-03));
#347 = SURFACE_CURVE('',#348,(#353,#379),.PCURVE_S1.);
#348 = B_SPLINE_CURVE_WITH_KNOTS('',3,(#349,#350,#351,#352),
  .UNSPECIFIED.,.F.,.F.,(4,4),(0.,1.),.PIECEWISE_BEZIER_KNOTS.);
#349 = CARTESIAN_POINT('',(-0.44997953417,-0.779422879219,
    6.545454729347E-03));
#350 = CARTESIAN_POINT('',(-0.149993178322,-0.779422879219,
    6.545454729348E-03));
#351 = CARTESIAN_POINT('',(0.149993178317,-0.779422879219,
    6.545454729348E-03));
#352 = CARTESIAN_POINT('',(0.449979534165,-0.779422879219,
    6.545454729349E-03));
#353 = PCURVE('',#133,#354);
#354 = DEFINITIONAL_REPRESENTATION('',(#355),#378);
#355 = B_SPLINE_CURVE_WITH_KNOTS('',11,(#356,#357,#358,#359,#360,#361,
    #362,#363,#364,#365,#366,#367,#368,#369,#370,#371,#372,#373,#374,
    #375,#376,#377),.UNSPECIFIED.,.F.,.F.,(12,10,12),(0.,0.5,1.),
  .UNSPECIFIED.);
#356 = CARTESIAN_POINT('',(-1.895367946883E-06,0.250002128946));
#357 = CARTESIAN_POINT('',(-1.895368032015E-06,0.272728433195));
#358 = CARTESIAN_POINT('',(-1.895368117597E-06,0.295574732985));
#359 = CARTESIAN_POINT('',(-1.895368201001E-06,0.317840009874));
#360 = CARTESIAN_POINT('',(-1.895368289858E-06,0.341560618777));
#361 = CARTESIAN_POINT('',(-1.8953683696E-06,0.362848206957));
#362 = CARTESIAN_POINT('',(-1.895368460213E-06,0.387037737983));
#363 = CARTESIAN_POINT('',(-1.89536854143E-06,0.40871910959));
#364 = CARTESIAN_POINT('',(-1.895368628456E-06,0.431950811229));
#365 = CARTESIAN_POINT('',(-1.895368713006E-06,0.454521890661));
#366 = CARTESIAN_POINT('',(-1.895368798236E-06,0.477274469578));
#367 = CARTESIAN_POINT('',(-1.895368968494E-06,0.522725530426));
#368 = CARTESIAN_POINT('',(-1.895369053724E-06,0.545478109339));
#369 = CARTESIAN_POINT('',(-1.895369138274E-06,0.568049188781));
#370 = CARTESIAN_POINT('',(-1.895369225299E-06,0.591280890414));
#371 = CARTESIAN_POINT('',(-1.895369306516E-06,0.612962261997));
#372 = CARTESIAN_POINT('',(-1.89536939713E-06,0.637151793086));
#373 = CARTESIAN_POINT('',(-1.895369476872E-06,0.658439381188));
#374 = CARTESIAN_POINT('',(-1.895369565728E-06,0.682159990152));
#375 = CARTESIAN_POINT('',(-1.895369649133E-06,0.70442526701));
#376 = CARTESIAN_POINT('',(-1.895369734714E-06,0.727271566809));
#377 = CARTESIAN_POINT('',(-1.895369819846E-06,0.749997871058));
#378 = ( GEOMETRIC_REPRESENTATION_CONTEXT(2) 
PARAMETRIC_REPRESENTATION_CONTEXT() REPRESENTATION_CONTEXT('2D SPACE',''
  ) );
#379 = PCURVE('',#56,#380);
#380 = DEFINITIONAL_REPRESENTATION('',(#381),#386);
#381 = B_SPLINE_CURVE_WITH_KNOTS('',3,(#382,#383,#384,#385),
  .UNSPECIFIED.,.F.,.F.,(4,4),(0.,1.),.PIECEWISE_BEZIER_KNOTS.);
#382 = CARTESIAN_POINT('',(1.05,1.704508570266E-05));
#383 = CARTESIAN_POINT('',(1.052775021035,0.333339013427));
#384 = CARTESIAN_POINT('',(1.055550136717,0.66667235033));
#385 = CARTESIAN_POINT('',(1.058325157752,0.999994318666));
#386 = ( GEOMETRIC_REPRESENTATION_CONTEXT(2) 
PARAMETRIC_REPRESENTATION_CONTEXT() REPRESENTATION_CONTEXT('2D SPACE',''
  ) );
#387 = ORIENTED_EDGE('',*,*,#388,.T.);
#388 = EDGE_CURVE('',#345,#389,#391,.T.);
#389 = VERTEX_POINT('',#390);
#390 = CARTESIAN_POINT('',(-0.899994865913,-8.858915139554E-06,
    5.926360442011E-03));
#391 = SURFACE_CURVE('',#392,(#397,#421),.PCURVE_S1.);
#392 = B_SPLINE_CURVE_WITH_KNOTS('',3,(#393,#394,#395,#396),
  .UNSPECIFIED.,.F.,.F.,(4,4),(0.,1.),.PIECEWISE_BEZIER_KNOTS.);
#393 = CARTESIAN_POINT('',(-0.450010221022,-0.779405169071,
    6.545454729348E-03));
#394 = CARTESIAN_POINT('',(-0.600003399396,-0.519609352224,
    6.545454729349E-03));
#395 = CARTESIAN_POINT('',(-0.749996578156,-0.259813534687,
    6.545454729349E-03));
#396 = CARTESIAN_POINT('',(-0.899989756512,-1.771783027854E-05,
    6.545454729349E-03));
#397 = PCURVE('',#133,#398);
#398 = DEFINITIONAL_REPRESENTATION('',(#399),#420);
#399 = B_SPLINE_CURVE_WITH_KNOTS('',10,(#400,#401,#402,#403,#404,#405,
    #406,#407,#408,#409,#410,#411,#412,#413,#414,#415,#416,#417,#418,
    #419),.UNSPECIFIED.,.F.,.F.,(11,9,11),(0.,0.5,1.),.UNSPECIFIED.);
#400 = CARTESIAN_POINT('',(-1.895367946869E-06,0.250002128946));
#401 = CARTESIAN_POINT('',(2.499734703168E-02,0.237502661528));
#402 = CARTESIAN_POINT('',(5.00959547031E-02,0.224953512085));
#403 = CARTESIAN_POINT('',(7.476271490908E-02,0.212620283718));
#404 = CARTESIAN_POINT('',(0.100374734909,0.199814431269));
#405 = CARTESIAN_POINT('',(0.124630941654,0.187686477107));
#406 = CARTESIAN_POINT('',(0.150249214708,0.174877498169));
#407 = CARTESIAN_POINT('',(0.174900744579,0.162551884876));
#408 = CARTESIAN_POINT('',(0.200016476132,0.149994173598));
#409 = CARTESIAN_POINT('',(0.225000661079,0.137502234813));
#410 = CARTESIAN_POINT('',(0.274997443558,0.112504151126));
#411 = CARTESIAN_POINT('',(0.299981608759,0.100012222214));
#412 = CARTESIAN_POINT('',(0.325097426462,8.74544678608E-02));
#413 = CARTESIAN_POINT('',(0.349748759675,7.51289528952E-02));
#414 = CARTESIAN_POINT('',(0.375367315946,6.231983235117E-02));
#415 = CARTESIAN_POINT('',(0.399623238548,5.019202025862E-02));
#416 = CARTESIAN_POINT('',(0.42523546072,3.738606672497E-02));
#417 = CARTESIAN_POINT('',(0.449902123416,2.505288711255E-02));
#418 = CARTESIAN_POINT('',(0.475000757623,1.250372440152E-02));
#419 = CARTESIAN_POINT('',(0.500000000005,4.256992352819E-06));
#420 = ( GEOMETRIC_REPRESENTATION_CONTEXT(2) 
PARAMETRIC_REPRESENTATION_CONTEXT() REPRESENTATION_CONTEXT('2D SPACE',''
  ) );
#421 = PCURVE('',#422,#439);
#422 = B_SPLINE_SURFACE_WITH_KNOTS('',3,3,(
    (#423,#424,#425,#426)
    ,(#427,#428,#429,#430)
    ,(#431,#432,#433,#434)
    ,(#435,#436,#437,#438
    )),.UNSPECIFIED.,.F.,.F.,.F.,(4,4),(4,4),(0.,1.),(0.,1.),
  .PIECEWISE_BEZIER_KNOTS.);
#423 = CARTESIAN_POINT('',(-0.899997427614,-4.432864919319E-06,
    -5.307266162281E-03));
#424 = CARTESIAN_POINT('',(-0.749999135729,-0.259809106673,
    -5.307266162281E-03));
#425 = CARTESIAN_POINT('',(-0.600000843416,-0.519613781147,
    -5.307266162281E-03));
#426 = CARTESIAN_POINT('',(-0.450002551461,-0.779418454914,
    -5.30726616228E-03));
#427 = CARTESIAN_POINT('',(-0.899997427291,-4.432864917729E-06,
    -1.769088723565E-03));
#428 = CARTESIAN_POINT('',(-0.74999913546,-0.25980910658,
    -1.769088723565E-03));
#429 = CARTESIAN_POINT('',(-0.600000843201,-0.51961378096,
    -1.769088723565E-03));
#430 = CARTESIAN_POINT('',(-0.4500025513,-0.779418454634,
    -1.769088723565E-03));
#431 = CARTESIAN_POINT('',(-0.899997426968,-4.43286491614E-06,
    1.769088724178E-03));
#432 = CARTESIAN_POINT('',(-0.749999135191,-0.259809106487,
    1.769088724178E-03));
#433 = CARTESIAN_POINT('',(-0.600000842986,-0.519613780774,
    1.769088724178E-03));
#434 = CARTESIAN_POINT('',(-0.450002551138,-0.779418454355,
    1.769088724178E-03));
#435 = CARTESIAN_POINT('',(-0.899997426645,-4.43286491455E-06,
    5.307266162893E-03));
#436 = CARTESIAN_POINT('',(-0.749999134922,-0.259809106393,
    5.307266162893E-03));
#437 = CARTESIAN_POINT('',(-0.600000842771,-0.519613780588,
    5.307266162893E-03));
#438 = CARTESIAN_POINT('',(-0.450002550977,-0.779418454075,
    5.307266162893E-03));
#439 = DEFINITIONAL_REPRESENTATION('',(#440),#443);
#440 = B_SPLINE_CURVE_WITH_KNOTS('',1,(#441,#442),.UNSPECIFIED.,.F.,.F.,
  (2,2),(0.,1.),.PIECEWISE_BEZIER_KNOTS.);
#441 = CARTESIAN_POINT('',(1.05,0.999982955195));
#442 = CARTESIAN_POINT('',(1.05,1.704481593873E-05));
#443 = ( GEOMETRIC_REPRESENTATION_CONTEXT(2) 
PARAMETRIC_REPRESENTATION_CONTEXT() REPRESENTATION_CONTEXT('2D SPACE',''
  ) );
#444 = ORIENTED_EDGE('',*,*,#445,.F.);
#445 = EDGE_CURVE('',#446,#389,#448,.T.);
#446 = VERTEX_POINT('',#447);
#447 = CARTESIAN_POINT('',(-0.450005104341,0.779414023777,
    5.92636044201E-03));
#448 = SURFACE_CURVE('',#449,(#454,#478),.PCURVE_S1.);
#449 = B_SPLINE_CURVE_WITH_KNOTS('',3,(#450,#451,#452,#453),
  .UNSPECIFIED.,.F.,.F.,(4,4),(0.,1.),.PIECEWISE_BEZIER_KNOTS.);
#450 = CARTESIAN_POINT('',(-0.450010221022,0.77940516907,
    6.545454729348E-03));
#451 = CARTESIAN_POINT('',(-0.600003399396,0.519609352224,
    6.545454729349E-03));
#452 = CARTESIAN_POINT('',(-0.749996578156,0.259813534687,
    6.545454729349E-03));
#453 = CARTESIAN_POINT('',(-0.899989756512,1.771783063259E-05,
    6.54545472935E-03));
#454 = PCURVE('',#133,#455);
#455 = DEFINITIONAL_REPRESENTATION('',(#456),#477);
#456 = B_SPLINE_CURVE_WITH_KNOTS('',10,(#457,#458,#459,#460,#461,#462,
    #463,#464,#465,#466,#467,#468,#469,#470,#471,#472,#473,#474,#475,
    #476),.UNSPECIFIED.,.F.,.F.,(11,9,11),(0.,0.5,1.),.UNSPECIFIED.);
#457 = CARTESIAN_POINT('',(1.000001895376,0.250002128948));
#458 = CARTESIAN_POINT('',(0.975002652976,0.23750266153));
#459 = CARTESIAN_POINT('',(0.949904045271,0.22495351207));
#460 = CARTESIAN_POINT('',(0.925237285189,0.212620283765));
#461 = CARTESIAN_POINT('',(0.899625264933,0.199814431188));
#462 = CARTESIAN_POINT('',(0.875369058545,0.187686477204));
#463 = CARTESIAN_POINT('',(0.849750785138,0.17487749809));
#464 = CARTESIAN_POINT('',(0.825099255511,0.162551884918));
#465 = CARTESIAN_POINT('',(0.799983523852,0.149994173587));
#466 = CARTESIAN_POINT('',(0.774999338929,0.137502234814));
#467 = CARTESIAN_POINT('',(0.725002556451,0.112504151127));
#468 = CARTESIAN_POINT('',(0.700018391227,0.100012222203));
#469 = CARTESIAN_POINT('',(0.674902573622,8.745446789892E-02));
#470 = CARTESIAN_POINT('',(0.65025124019,7.512895282408E-02));
#471 = CARTESIAN_POINT('',(0.624632684228,6.231983243415E-02));
#472 = CARTESIAN_POINT('',(0.600376761322,5.019202018989E-02));
#473 = CARTESIAN_POINT('',(0.574764539362,3.738606676193E-02));
#474 = CARTESIAN_POINT('',(0.550097876566,2.505288709932E-02));
#475 = CARTESIAN_POINT('',(0.524999242386,1.250372440162E-02));
#476 = CARTESIAN_POINT('',(0.500000000005,4.256992352777E-06));
#477 = ( GEOMETRIC_REPRESENTATION_CONTEXT(2) 
PARAMETRIC_REPRESENTATION_CONTEXT() REPRESENTATION_CONTEXT('2D SPACE',''
  ) );
#478 = PCURVE('',#479,#496);
#479 = B_SPLINE_SURFACE_WITH_KNOTS('',3,3,(
    (#480,#481,#482,#483)
    ,(#484,#485,#486,#487)
    ,(#488,#489,#490,#491)
    ,(#492,#493,#494,#495
    )),.UNSPECIFIED.,.F.,.F.,.F.,(4,4),(4,4),(0.,1.),(0.,1.),
  .PIECEWISE_BEZIER_KNOTS.);
#480 = CARTESIAN_POINT('',(-0.450002550991,0.77941845411,
    -5.30726616535E-03));
#481 = CARTESIAN_POINT('',(-0.600000842791,0.519613780612,
    -5.307266165349E-03));
#482 = CARTESIAN_POINT('',(-0.749999134948,0.259809106408,
    -5.307266165349E-03));
#483 = CARTESIAN_POINT('',(-0.899997426677,4.432869795759E-06,
    -5.307266165348E-03));
#484 = CARTESIAN_POINT('',(-0.450002550962,0.77941845406,
    -1.769088725643E-03));
#485 = CARTESIAN_POINT('',(-0.600000842752,0.519613780579,
    -1.769088725643E-03));
#486 = CARTESIAN_POINT('',(-0.7499991349,0.259809106391,
    -1.769088725642E-03));
#487 = CARTESIAN_POINT('',(-0.899997426619,4.432869795475E-06,
    -1.769088725642E-03));
#488 = CARTESIAN_POINT('',(-0.450002550934,0.77941845401,
    1.769088723092E-03));
#489 = CARTESIAN_POINT('',(-0.600000842714,0.519613780545,
    1.769088723092E-03));
#490 = CARTESIAN_POINT('',(-0.749999134852,0.259809106375,
    1.769088723092E-03));
#491 = CARTESIAN_POINT('',(-0.899997426561,4.43286979519E-06,
    1.769088723091E-03));
#492 = CARTESIAN_POINT('',(-0.450002550905,0.77941845396,
    5.307266162799E-03));
#493 = CARTESIAN_POINT('',(-0.600000842675,0.519613780512,
    5.307266162798E-03));
#494 = CARTESIAN_POINT('',(-0.749999134804,0.259809106358,
    5.307266162798E-03));
#495 = CARTESIAN_POINT('',(-0.899997426504,4.432869794906E-06,
    5.307266162797E-03));
#496 = DEFINITIONAL_REPRESENTATION('',(#497),#502);
#497 = B_SPLINE_CURVE_WITH_KNOTS('',3,(#498,#499,#500,#501),
  .UNSPECIFIED.,.F.,.F.,(4,4),(0.,1.),.PIECEWISE_BEZIER_KNOTS.);
#498 = CARTESIAN_POINT('',(1.05,1.704476238273E-05));
#499 = CARTESIAN_POINT('',(1.052775021342,0.333339013318));
#500 = CARTESIAN_POINT('',(1.055550137331,0.666672350439));
#501 = CARTESIAN_POINT('',(1.058325158673,0.999994318996));
#502 = ( GEOMETRIC_REPRESENTATION_CONTEXT(2) 
PARAMETRIC_REPRESENTATION_CONTEXT() REPRESENTATION_CONTEXT('2D SPACE',''
  ) );
#503 = ORIENTED_EDGE('',*,*,#504,.F.);
#504 = EDGE_CURVE('',#505,#446,#507,.T.);
#505 = VERTEX_POINT('',#506);
#506 = CARTESIAN_POINT('',(0.449989760911,0.779422878854,
    5.92636044201E-03));
#507 = SURFACE_CURVE('',#508,(#513,#539),.PCURVE_S1.);
#508 = B_SPLINE_CURVE_WITH_KNOTS('',3,(#509,#510,#511,#512),
  .UNSPECIFIED.,.F.,.F.,(4,4),(0.,1.),.PIECEWISE_BEZIER_KNOTS.);
#509 = CARTESIAN_POINT('',(0.44997953417,0.779422879219,
    6.545454729347E-03));
#510 = CARTESIAN_POINT('',(0.149993178322,0.779422879219,
    6.545454729348E-03));
#511 = CARTESIAN_POINT('',(-0.149993178317,0.779422879219,
    6.545454729348E-03));
#512 = CARTESIAN_POINT('',(-0.449979534165,0.779422879219,
    6.545454729349E-03));
#513 = PCURVE('',#133,#514);
#514 = DEFINITIONAL_REPRESENTATION('',(#515),#538);
#515 = B_SPLINE_CURVE_WITH_KNOTS('',11,(#516,#517,#518,#519,#520,#521,
    #522,#523,#524,#525,#526,#527,#528,#529,#530,#531,#532,#533,#534,
    #535,#536,#537),.UNSPECIFIED.,.F.,.F.,(12,10,12),(0.,0.5,1.),
  .UNSPECIFIED.);
#516 = CARTESIAN_POINT('',(1.000001895374,0.74999787106));
#517 = CARTESIAN_POINT('',(1.000001895374,0.727271566811));
#518 = CARTESIAN_POINT('',(1.000001895374,0.70442526702));
#519 = CARTESIAN_POINT('',(1.000001895374,0.682159990135));
#520 = CARTESIAN_POINT('',(1.000001895374,0.658439381224));
#521 = CARTESIAN_POINT('',(1.000001895375,0.637151793055));
#522 = CARTESIAN_POINT('',(1.000001895374,0.612962262017));
#523 = CARTESIAN_POINT('',(1.000001895375,0.591280890419));
#524 = CARTESIAN_POINT('',(1.000001895375,0.568049188776));
#525 = CARTESIAN_POINT('',(1.000001895375,0.545478109346));
#526 = CARTESIAN_POINT('',(1.000001895375,0.522725530428));
#527 = CARTESIAN_POINT('',(1.000001895375,0.47727446958));
#528 = CARTESIAN_POINT('',(1.000001895375,0.454521890666));
#529 = CARTESIAN_POINT('',(1.000001895375,0.431950811227));
#530 = CARTESIAN_POINT('',(1.000001895375,0.408719109587));
#531 = CARTESIAN_POINT('',(1.000001895375,0.387037738019));
#532 = CARTESIAN_POINT('',(1.000001895376,0.362848206908));
#533 = CARTESIAN_POINT('',(1.000001895375,0.341560618829));
#534 = CARTESIAN_POINT('',(1.000001895376,0.317840009849));
#535 = CARTESIAN_POINT('',(1.000001895376,0.295574732998));
#536 = CARTESIAN_POINT('',(1.000001895376,0.272728433197));
#537 = CARTESIAN_POINT('',(1.000001895376,0.250002128948));
#538 = ( GEOMETRIC_REPRESENTATION_CONTEXT(2) 
PARAMETRIC_REPRESENTATION_CONTEXT() REPRESENTATION_CONTEXT('2D SPACE',''
  ) );
#539 = PCURVE('',#540,#557);
#540 = B_SPLINE_SURFACE_WITH_KNOTS('',3,3,(
    (#541,#542,#543,#544)
    ,(#545,#546,#547,#548)
    ,(#549,#550,#551,#552)
    ,(#553,#554,#555,#556
    )),.UNSPECIFIED.,.F.,.F.,.F.,(4,4),(4,4),(0.,1.),(0.,1.),
  .PIECEWISE_BEZIER_KNOTS.);
#541 = CARTESIAN_POINT('',(0.449994874101,0.779422878852,
    -5.307266171111E-03));
#542 = CARTESIAN_POINT('',(0.149998291632,0.779422878852,
    -5.307266171111E-03));
#543 = CARTESIAN_POINT('',(-0.149998291627,0.779422878852,
    -5.307266171111E-03));
#544 = CARTESIAN_POINT('',(-0.449994874096,0.779422878852,
    -5.307266171111E-03));
#545 = CARTESIAN_POINT('',(0.449994874249,0.779422879108,
    -1.769088726509E-03));
#546 = CARTESIAN_POINT('',(0.149998291682,0.779422879108,
    -1.769088726509E-03));
#547 = CARTESIAN_POINT('',(-0.149998291676,0.779422879108,
    -1.769088726509E-03));
#548 = CARTESIAN_POINT('',(-0.449994874244,0.779422879108,
    -1.769088726509E-03));
#549 = CARTESIAN_POINT('',(0.449994874397,0.779422879364,
    1.769088727121E-03));
#550 = CARTESIAN_POINT('',(0.149998291731,0.779422879364,
    1.769088727121E-03));
#551 = CARTESIAN_POINT('',(-0.149998291725,0.779422879364,
    1.769088727121E-03));
#552 = CARTESIAN_POINT('',(-0.449994874391,0.779422879364,
    1.769088727121E-03));
#553 = CARTESIAN_POINT('',(0.449994874545,0.77942287962,
    5.307266171723E-03));
#554 = CARTESIAN_POINT('',(0.14999829178,0.77942287962,
    5.307266171723E-03));
#555 = CARTESIAN_POINT('',(-0.149998291775,0.77942287962,
    5.307266171724E-03));
#556 = CARTESIAN_POINT('',(-0.449994874539,0.77942287962,
    5.307266171724E-03));
#557 = DEFINITIONAL_REPRESENTATION('',(#558),#561);
#558 = B_SPLINE_CURVE_WITH_KNOTS('',1,(#559,#560),.UNSPECIFIED.,.F.,.F.,
  (2,2),(0.,1.),.PIECEWISE_BEZIER_KNOTS.);
#559 = CARTESIAN_POINT('',(1.05,1.704508567363E-05));
#560 = CARTESIAN_POINT('',(1.05,0.999982954927));
#561 = ( GEOMETRIC_REPRESENTATION_CONTEXT(2) 
PARAMETRIC_REPRESENTATION_CONTEXT() REPRESENTATION_CONTEXT('2D SPACE',''
  ) );
#562 = ORIENTED_EDGE('',*,*,#563,.T.);
#563 = EDGE_CURVE('',#505,#116,#564,.T.);
#564 = SURFACE_CURVE('',#565,(#570,#594),.PCURVE_S1.);
#565 = B_SPLINE_CURVE_WITH_KNOTS('',3,(#566,#567,#568,#569),
  .UNSPECIFIED.,.F.,.F.,(4,4),(0.,1.),.PIECEWISE_BEZIER_KNOTS.);
#566 = CARTESIAN_POINT('',(0.450010221023,0.779405169071,
    6.545454729352E-03));
#567 = CARTESIAN_POINT('',(0.600003399396,0.519609352224,
    6.54545472935E-03));
#568 = CARTESIAN_POINT('',(0.749996578155,0.259813534687,
    6.545454729349E-03));
#569 = CARTESIAN_POINT('',(0.899989756511,1.771783051008E-05,
    6.545454729347E-03));
#570 = PCURVE('',#133,#571);
#571 = DEFINITIONAL_REPRESENTATION('',(#572),#593);
#572 = B_SPLINE_CURVE_WITH_KNOTS('',10,(#573,#574,#575,#576,#577,#578,
    #579,#580,#581,#582,#583,#584,#585,#586,#587,#588,#589,#590,#591,
    #592),.UNSPECIFIED.,.F.,.F.,(11,9,11),(0.,0.5,1.),.UNSPECIFIED.);
#573 = CARTESIAN_POINT('',(1.000001895374,0.74999787106));
#574 = CARTESIAN_POINT('',(0.975002652975,0.762497338478));
#575 = CARTESIAN_POINT('',(0.949904045301,0.775046487923));
#576 = CARTESIAN_POINT('',(0.925237285103,0.787379716286));
#577 = CARTESIAN_POINT('',(0.899625265088,0.800185568742));
#578 = CARTESIAN_POINT('',(0.875369058361,0.812313522895));
#579 = CARTESIAN_POINT('',(0.849750785292,0.82512250184));
#580 = CARTESIAN_POINT('',(0.82509925543,0.837448115129));
#581 = CARTESIAN_POINT('',(0.799983523874,0.850005826409));
#582 = CARTESIAN_POINT('',(0.774999338927,0.862497765194));
#583 = CARTESIAN_POINT('',(0.725002556449,0.88749584888));
#584 = CARTESIAN_POINT('',(0.700018391247,0.899987777793));
#585 = CARTESIAN_POINT('',(0.674902573543,0.912545532146));
#586 = CARTESIAN_POINT('',(0.650251240335,0.924871047109));
#587 = CARTESIAN_POINT('',(0.624632684054,0.937680167658));
#588 = CARTESIAN_POINT('',(0.600376761465,0.949807979744));
#589 = CARTESIAN_POINT('',(0.574764539282,0.962613933284));
#590 = CARTESIAN_POINT('',(0.550097876592,0.974947112893));
#591 = CARTESIAN_POINT('',(0.524999242383,0.987496275605));
#592 = CARTESIAN_POINT('',(0.500000000002,0.999995743014));
#593 = ( GEOMETRIC_REPRESENTATION_CONTEXT(2) 
PARAMETRIC_REPRESENTATION_CONTEXT() REPRESENTATION_CONTEXT('2D SPACE',''
  ) );
#594 = PCURVE('',#226,#595);
#595 = DEFINITIONAL_REPRESENTATION('',(#596),#599);
#596 = B_SPLINE_CURVE_WITH_KNOTS('',1,(#597,#598),.UNSPECIFIED.,.F.,.F.,
  (2,2),(0.,1.),.PIECEWISE_BEZIER_KNOTS.);
#597 = CARTESIAN_POINT('',(1.05,0.999982954926));
#598 = CARTESIAN_POINT('',(1.05,1.704508540823E-05));
#599 = ( GEOMETRIC_REPRESENTATION_CONTEXT(2) 
PARAMETRIC_REPRESENTATION_CONTEXT() REPRESENTATION_CONTEXT('2D SPACE',''
  ) );
#600 = ADVANCED_FACE('',(#601),#56,.F.);
#601 = FACE_BOUND('',#602,.F.);
#602 = EDGE_LOOP('',(#603,#625,#626,#627));
#603 = ORIENTED_EDGE('',*,*,#604,.F.);
#604 = EDGE_CURVE('',#345,#605,#607,.T.);
#605 = VERTEX_POINT('',#606);
#606 = CARTESIAN_POINT('',(-0.449997432886,-0.779418451754,
    -5.926360443182E-03));
#607 = SURFACE_CURVE('',#608,(#613,#619),.PCURVE_S1.);
#608 = B_SPLINE_CURVE_WITH_KNOTS('',3,(#609,#610,#611,#612),
  .UNSPECIFIED.,.F.,.F.,(4,4),(0.,1.),.PIECEWISE_BEZIER_KNOTS.);
#609 = CARTESIAN_POINT('',(-0.449999987658,-0.779422878489,
    5.307266154672E-03));
#610 = CARTESIAN_POINT('',(-0.449999987997,-0.779422879077,
    1.76908871967E-03));
#611 = CARTESIAN_POINT('',(-0.449999988337,-0.779422879665,
    -1.769088724361E-03));
#612 = CARTESIAN_POINT('',(-0.449999988676,-0.779422880254,
    -5.307266159363E-03));
#613 = PCURVE('',#56,#614);
#614 = DEFINITIONAL_REPRESENTATION('',(#615),#618);
#615 = B_SPLINE_CURVE_WITH_KNOTS('',1,(#616,#617),.UNSPECIFIED.,.F.,.F.,
  (2,2),(0.,1.),.PIECEWISE_BEZIER_KNOTS.);
#616 = CARTESIAN_POINT('',(0.999999998394,-5.681301186831E-06));
#617 = CARTESIAN_POINT('',(1.106769239978E-09,-5.6829258677E-06));
#618 = ( GEOMETRIC_REPRESENTATION_CONTEXT(2) 
PARAMETRIC_REPRESENTATION_CONTEXT() REPRESENTATION_CONTEXT('2D SPACE',''
  ) );
#619 = PCURVE('',#422,#620);
#620 = DEFINITIONAL_REPRESENTATION('',(#621),#624);
#621 = B_SPLINE_CURVE_WITH_KNOTS('',1,(#622,#623),.UNSPECIFIED.,.F.,.F.,
  (2,2),(0.,1.),.PIECEWISE_BEZIER_KNOTS.);
#622 = CARTESIAN_POINT('',(0.999999999668,1.000005682657));
#623 = CARTESIAN_POINT('',(7.168663964089E-10,1.000005680987));
#624 = ( GEOMETRIC_REPRESENTATION_CONTEXT(2) 
PARAMETRIC_REPRESENTATION_CONTEXT() REPRESENTATION_CONTEXT('2D SPACE',''
  ) );
#625 = ORIENTED_EDGE('',*,*,#344,.T.);
#626 = ORIENTED_EDGE('',*,*,#21,.T.);
#627 = ORIENTED_EDGE('',*,*,#628,.F.);
#628 = EDGE_CURVE('',#605,#24,#629,.T.);
#629 = SURFACE_CURVE('',#630,(#635,#641),.PCURVE_S1.);
#630 = B_SPLINE_CURVE_WITH_KNOTS('',3,(#631,#632,#633,#634),
  .UNSPECIFIED.,.F.,.F.,(4,4),(0.,1.),.PIECEWISE_BEZIER_KNOTS.);
#631 = CARTESIAN_POINT('',(-0.44997953417,-0.779422879219,
    -6.545454729347E-03));
#632 = CARTESIAN_POINT('',(-0.149993178322,-0.779422879219,
    -6.545454729348E-03));
#633 = CARTESIAN_POINT('',(0.149993178317,-0.779422879219,
    -6.545454729348E-03));
#634 = CARTESIAN_POINT('',(0.449979534165,-0.779422879219,
    -6.545454729349E-03));
#635 = PCURVE('',#56,#636);
#636 = DEFINITIONAL_REPRESENTATION('',(#637),#640);
#637 = B_SPLINE_CURVE_WITH_KNOTS('',1,(#638,#639),.UNSPECIFIED.,.F.,.F.,
  (2,2),(0.,1.),.PIECEWISE_BEZIER_KNOTS.);
#638 = CARTESIAN_POINT('',(-5.E-02,1.70445376908E-05));
#639 = CARTESIAN_POINT('',(-5.E-02,0.999982955462));
#640 = ( GEOMETRIC_REPRESENTATION_CONTEXT(2) 
PARAMETRIC_REPRESENTATION_CONTEXT() REPRESENTATION_CONTEXT('2D SPACE',''
  ) );
#641 = PCURVE('',#299,#642);
#642 = DEFINITIONAL_REPRESENTATION('',(#643),#666);
#643 = B_SPLINE_CURVE_WITH_KNOTS('',11,(#644,#645,#646,#647,#648,#649,
    #650,#651,#652,#653,#654,#655,#656,#657,#658,#659,#660,#661,#662,
    #663,#664,#665),.UNSPECIFIED.,.F.,.F.,(12,10,12),(0.,0.5,1.),
  .UNSPECIFIED.);
#644 = CARTESIAN_POINT('',(-1.895369746629E-06,0.250002128948));
#645 = CARTESIAN_POINT('',(-1.895369676757E-06,0.272728433197));
#646 = CARTESIAN_POINT('',(-1.895369606515E-06,0.295574732957));
#647 = CARTESIAN_POINT('',(-1.895369538061E-06,0.317840009957));
#648 = CARTESIAN_POINT('',(-1.895369465131E-06,0.341560618638));
#649 = CARTESIAN_POINT('',(-1.895369399684E-06,0.362848207101));
#650 = CARTESIAN_POINT('',(-1.895369325311E-06,0.387037737899));
#651 = CARTESIAN_POINT('',(-1.895369258653E-06,0.4087191096));
#652 = CARTESIAN_POINT('',(-1.895369187226E-06,0.431950811251));
#653 = CARTESIAN_POINT('',(-1.895369117832E-06,0.45452189065));
#654 = CARTESIAN_POINT('',(-1.895369047879E-06,0.47727446958));
#655 = CARTESIAN_POINT('',(-1.895368908139E-06,0.522725530428));
#656 = CARTESIAN_POINT('',(-1.895368838186E-06,0.545478109329));
#657 = CARTESIAN_POINT('',(-1.895368768792E-06,0.568049188803));
#658 = CARTESIAN_POINT('',(-1.895368697366E-06,0.591280890421));
#659 = CARTESIAN_POINT('',(-1.895368630706E-06,0.612962261916));
#660 = CARTESIAN_POINT('',(-1.895368556335E-06,0.637151793225));
#661 = CARTESIAN_POINT('',(-1.895368490887E-06,0.658439381053));
#662 = CARTESIAN_POINT('',(-1.895368417957E-06,0.682159990233));
#663 = CARTESIAN_POINT('',(-1.895368349503E-06,0.704425266982));
#664 = CARTESIAN_POINT('',(-1.895368279262E-06,0.727271566811));
#665 = CARTESIAN_POINT('',(-1.89536820939E-06,0.74999787106));
#666 = ( GEOMETRIC_REPRESENTATION_CONTEXT(2) 
PARAMETRIC_REPRESENTATION_CONTEXT() REPRESENTATION_CONTEXT('2D SPACE',''
  ) );
#667 = ADVANCED_FACE('',(#668),#226,.F.);
#668 = FACE_BOUND('',#669,.F.);
#669 = EDGE_LOOP('',(#670,#728,#768,#769));
#670 = ORIENTED_EDGE('',*,*,#671,.F.);
#671 = EDGE_CURVE('',#672,#505,#674,.T.);
#672 = VERTEX_POINT('',#673);
#673 = CARTESIAN_POINT('',(0.449997432882,0.779418451757,
    -5.926360443183E-03));
#674 = SURFACE_CURVE('',#675,(#680,#686),.PCURVE_S1.);
#675 = B_SPLINE_CURVE_WITH_KNOTS('',3,(#676,#677,#678,#679),
  .UNSPECIFIED.,.F.,.F.,(4,4),(0.,1.),.PIECEWISE_BEZIER_KNOTS.);
#676 = CARTESIAN_POINT('',(0.449999987658,0.779422878489,
    -5.307266154672E-03));
#677 = CARTESIAN_POINT('',(0.449999987997,0.779422879077,
    -1.76908871967E-03));
#678 = CARTESIAN_POINT('',(0.449999988337,0.779422879665,
    1.769088724361E-03));
#679 = CARTESIAN_POINT('',(0.449999988676,0.779422880254,
    5.307266159363E-03));
#680 = PCURVE('',#226,#681);
#681 = DEFINITIONAL_REPRESENTATION('',(#682),#685);
#682 = B_SPLINE_CURVE_WITH_KNOTS('',1,(#683,#684),.UNSPECIFIED.,.F.,.F.,
  (2,2),(0.,1.),.PIECEWISE_BEZIER_KNOTS.);
#683 = CARTESIAN_POINT('',(1.548674382256E-09,1.0000056818));
#684 = CARTESIAN_POINT('',(0.999999998835,1.000005682439));
#685 = ( GEOMETRIC_REPRESENTATION_CONTEXT(2) 
PARAMETRIC_REPRESENTATION_CONTEXT() REPRESENTATION_CONTEXT('2D SPACE',''
  ) );
#686 = PCURVE('',#540,#687);
#687 = DEFINITIONAL_REPRESENTATION('',(#688),#727);
#688 = B_SPLINE_CURVE_WITH_KNOTS('',10,(#689,#690,#691,#692,#693,#694,
    #695,#696,#697,#698,#699,#700,#701,#702,#703,#704,#705,#706,#707,
    #708,#709,#710,#711,#712,#713,#714,#715,#716,#717,#718,#719,#720,
    #721,#722,#723,#724,#725,#726),.UNSPECIFIED.,.F.,.F.,(11,9,9,9,11),(
    0.,0.125,0.25,0.5,1.),.UNSPECIFIED.);
#689 = CARTESIAN_POINT('',(-5.832515780946E-02,5.680789502813E-06));
#690 = CARTESIAN_POINT('',(-4.582516301874E-02,5.54659060033E-06));
#691 = CARTESIAN_POINT('',(4.995702442584E-03,5.000982023501E-06));
#692 = CARTESIAN_POINT('',(1.294311736201E-02,4.915659239164E-06));
#693 = CARTESIAN_POINT('',(0.257327154552,2.291972579747E-06));
#694 = CARTESIAN_POINT('',(-0.210107189808,7.310308750771E-06));
#695 = CARTESIAN_POINT('',(0.248623814179,2.38541091676E-06));
#696 = CARTESIAN_POINT('',(2.686353033637E-02,4.766210845421E-06));
#697 = CARTESIAN_POINT('',(0.110455249173,3.86877711746E-06));
#698 = CARTESIAN_POINT('',(0.112370482862,3.848215328162E-06));
#699 = CARTESIAN_POINT('',(0.137513693417,3.578279914766E-06));
#700 = CARTESIAN_POINT('',(0.15005736371,3.443612115727E-06));
#701 = CARTESIAN_POINT('',(0.162578090448,3.309190636785E-06));
#702 = CARTESIAN_POINT('',(0.175080865059,3.17496189038E-06));
#703 = CARTESIAN_POINT('',(0.187570678973,3.040872288947E-06));
#704 = CARTESIAN_POINT('',(0.200052523617,2.906868244926E-06));
#705 = CARTESIAN_POINT('',(0.21253139042,2.772896170754E-06));
#706 = CARTESIAN_POINT('',(0.225012270812,2.63890247887E-06));
#707 = CARTESIAN_POINT('',(0.23750015622,2.50483358171E-06));
#708 = CARTESIAN_POINT('',(0.27499980178,2.102240511721E-06));
#709 = CARTESIAN_POINT('',(0.299999667999,1.833844031165E-06));
#710 = CARTESIAN_POINT('',(0.324999617664,1.565446654739E-06));
#711 = CARTESIAN_POINT('',(0.349999631709,1.297048587138E-06));
#712 = CARTESIAN_POINT('',(0.374999691067,1.028650033057E-06));
#713 = CARTESIAN_POINT('',(0.399999776672,7.602511971893E-07));
#714 = CARTESIAN_POINT('',(0.424999869458,4.918522842311E-07));
#715 = CARTESIAN_POINT('',(0.449999950358,2.234534988758E-07));
#716 = CARTESIAN_POINT('',(0.475000000306,-4.494495418159E-08));
#717 = CARTESIAN_POINT('',(0.550000000096,-8.501387023772E-07));
#718 = CARTESIAN_POINT('',(0.600000004529,-1.386934583608E-06));
#719 = CARTESIAN_POINT('',(0.650000011817,-1.923730495488E-06));
#720 = CARTESIAN_POINT('',(0.700000020241,-2.460526419563E-06));
#721 = CARTESIAN_POINT('',(0.750000028082,-2.997322337386E-06));
#722 = CARTESIAN_POINT('',(0.800000033622,-3.534118230496E-06));
#723 = CARTESIAN_POINT('',(0.850000035142,-4.070914080451E-06));
#724 = CARTESIAN_POINT('',(0.900000030923,-4.607709868792E-06));
#725 = CARTESIAN_POINT('',(0.950000019246,-5.14450557707E-06));
#726 = CARTESIAN_POINT('',(0.999999998394,-5.681301186831E-06));
#727 = ( GEOMETRIC_REPRESENTATION_CONTEXT(2) 
PARAMETRIC_REPRESENTATION_CONTEXT() REPRESENTATION_CONTEXT('2D SPACE',''
  ) );
#728 = ORIENTED_EDGE('',*,*,#729,.T.);
#729 = EDGE_CURVE('',#672,#175,#730,.T.);
#730 = SURFACE_CURVE('',#731,(#736,#744),.PCURVE_S1.);
#731 = B_SPLINE_CURVE_WITH_KNOTS('',3,(#732,#733,#734,#735),
  .UNSPECIFIED.,.F.,.F.,(4,4),(0.,1.),.PIECEWISE_BEZIER_KNOTS.);
#732 = CARTESIAN_POINT('',(0.450010221023,0.779405169071,
    -6.545454729352E-03));
#733 = CARTESIAN_POINT('',(0.600003399396,0.519609352224,
    -6.54545472935E-03));
#734 = CARTESIAN_POINT('',(0.749996578155,0.259813534687,
    -6.545454729349E-03));
#735 = CARTESIAN_POINT('',(0.899989756511,1.771783051008E-05,
    -6.545454729347E-03));
#736 = PCURVE('',#226,#737);
#737 = DEFINITIONAL_REPRESENTATION('',(#738),#743);
#738 = B_SPLINE_CURVE_WITH_KNOTS('',3,(#739,#740,#741,#742),
  .UNSPECIFIED.,.F.,.F.,(4,4),(0.,1.),.PIECEWISE_BEZIER_KNOTS.);
#739 = CARTESIAN_POINT('',(-5.E-02,0.999982955462));
#740 = CARTESIAN_POINT('',(-5.277502105403E-02,0.666660986762));
#741 = CARTESIAN_POINT('',(-5.555013675533E-02,0.333327649495));
#742 = CARTESIAN_POINT('',(-5.832515780941E-02,5.680789477602E-06));
#743 = ( GEOMETRIC_REPRESENTATION_CONTEXT(2) 
PARAMETRIC_REPRESENTATION_CONTEXT() REPRESENTATION_CONTEXT('2D SPACE',''
  ) );
#744 = PCURVE('',#299,#745);
#745 = DEFINITIONAL_REPRESENTATION('',(#746),#767);
#746 = B_SPLINE_CURVE_WITH_KNOTS('',10,(#747,#748,#749,#750,#751,#752,
    #753,#754,#755,#756,#757,#758,#759,#760,#761,#762,#763,#764,#765,
    #766),.UNSPECIFIED.,.F.,.F.,(11,9,11),(0.,0.5,1.),.UNSPECIFIED.);
#747 = CARTESIAN_POINT('',(1.000001895376,0.749997871058));
#748 = CARTESIAN_POINT('',(0.975002652976,0.762497338476));
#749 = CARTESIAN_POINT('',(0.949904045272,0.775046487936));
#750 = CARTESIAN_POINT('',(0.925237285188,0.787379716242));
#751 = CARTESIAN_POINT('',(0.899625264936,0.800185568817));
#752 = CARTESIAN_POINT('',(0.875369058543,0.812313522804));
#753 = CARTESIAN_POINT('',(0.84975078514,0.825122501916));
#754 = CARTESIAN_POINT('',(0.825099255511,0.837448115088));
#755 = CARTESIAN_POINT('',(0.799983523853,0.850005826419));
#756 = CARTESIAN_POINT('',(0.774999338929,0.862497765192));
#757 = CARTESIAN_POINT('',(0.725002556451,0.887495848879));
#758 = CARTESIAN_POINT('',(0.700018391226,0.899987777803));
#759 = CARTESIAN_POINT('',(0.674902573624,0.912545532107));
#760 = CARTESIAN_POINT('',(0.650251240186,0.924871047184));
#761 = CARTESIAN_POINT('',(0.624632684234,0.93768016757));
#762 = CARTESIAN_POINT('',(0.600376761317,0.949807979819));
#763 = CARTESIAN_POINT('',(0.574764539366,0.962613933243));
#764 = CARTESIAN_POINT('',(0.550097876565,0.974947112908));
#765 = CARTESIAN_POINT('',(0.524999242386,0.987496275605));
#766 = CARTESIAN_POINT('',(0.500000000005,0.999995743014));
#767 = ( GEOMETRIC_REPRESENTATION_CONTEXT(2) 
PARAMETRIC_REPRESENTATION_CONTEXT() REPRESENTATION_CONTEXT('2D SPACE',''
  ) );
#768 = ORIENTED_EDGE('',*,*,#174,.T.);
#769 = ORIENTED_EDGE('',*,*,#563,.F.);
#770 = ADVANCED_FACE('',(#771),#540,.F.);
#771 = FACE_BOUND('',#772,.F.);
#772 = EDGE_LOOP('',(#773,#795,#837,#838));
#773 = ORIENTED_EDGE('',*,*,#774,.F.);
#774 = EDGE_CURVE('',#775,#446,#777,.T.);
#775 = VERTEX_POINT('',#776);
#776 = CARTESIAN_POINT('',(-0.449997432883,0.779418451756,
    -5.926360443183E-03));
#777 = SURFACE_CURVE('',#778,(#783,#789),.PCURVE_S1.);
#778 = B_SPLINE_CURVE_WITH_KNOTS('',3,(#779,#780,#781,#782),
  .UNSPECIFIED.,.F.,.F.,(4,4),(0.,1.),.PIECEWISE_BEZIER_KNOTS.);
#779 = CARTESIAN_POINT('',(-0.449999987658,0.779422878489,
    -5.307266154672E-03));
#780 = CARTESIAN_POINT('',(-0.449999987997,0.779422879077,
    -1.76908871967E-03));
#781 = CARTESIAN_POINT('',(-0.449999988337,0.779422879665,
    1.769088724361E-03));
#782 = CARTESIAN_POINT('',(-0.449999988676,0.779422880254,
    5.307266159363E-03));
#783 = PCURVE('',#540,#784);
#784 = DEFINITIONAL_REPRESENTATION('',(#785),#788);
#785 = B_SPLINE_CURVE_WITH_KNOTS('',1,(#786,#787),.UNSPECIFIED.,.F.,.F.,
  (2,2),(0.,1.),.PIECEWISE_BEZIER_KNOTS.);
#786 = CARTESIAN_POINT('',(1.548780884005E-09,1.0000056818));
#787 = CARTESIAN_POINT('',(0.999999998835,1.000005682439));
#788 = ( GEOMETRIC_REPRESENTATION_CONTEXT(2) 
PARAMETRIC_REPRESENTATION_CONTEXT() REPRESENTATION_CONTEXT('2D SPACE',''
  ) );
#789 = PCURVE('',#479,#790);
#790 = DEFINITIONAL_REPRESENTATION('',(#791),#794);
#791 = B_SPLINE_CURVE_WITH_KNOTS('',1,(#792,#793),.UNSPECIFIED.,.F.,.F.,
  (2,2),(0.,1.),.PIECEWISE_BEZIER_KNOTS.);
#792 = CARTESIAN_POINT('',(5.640228078052E-10,-5.682631827832E-06));
#793 = CARTESIAN_POINT('',(0.999999999234,-5.681596081419E-06));
#794 = ( GEOMETRIC_REPRESENTATION_CONTEXT(2) 
PARAMETRIC_REPRESENTATION_CONTEXT() REPRESENTATION_CONTEXT('2D SPACE',''
  ) );
#795 = ORIENTED_EDGE('',*,*,#796,.F.);
#796 = EDGE_CURVE('',#672,#775,#797,.T.);
#797 = SURFACE_CURVE('',#798,(#803,#811),.PCURVE_S1.);
#798 = B_SPLINE_CURVE_WITH_KNOTS('',3,(#799,#800,#801,#802),
  .UNSPECIFIED.,.F.,.F.,(4,4),(0.,1.),.PIECEWISE_BEZIER_KNOTS.);
#799 = CARTESIAN_POINT('',(0.44997953417,0.779422879219,
    -6.545454729347E-03));
#800 = CARTESIAN_POINT('',(0.149993178322,0.779422879219,
    -6.545454729348E-03));
#801 = CARTESIAN_POINT('',(-0.149993178317,0.779422879219,
    -6.545454729348E-03));
#802 = CARTESIAN_POINT('',(-0.449979534165,0.779422879219,
    -6.545454729349E-03));
#803 = PCURVE('',#540,#804);
#804 = DEFINITIONAL_REPRESENTATION('',(#805),#810);
#805 = B_SPLINE_CURVE_WITH_KNOTS('',3,(#806,#807,#808,#809),
  .UNSPECIFIED.,.F.,.F.,(4,4),(0.,1.),.PIECEWISE_BEZIER_KNOTS.);
#806 = CARTESIAN_POINT('',(-5.832515780946E-02,5.680789502749E-06));
#807 = CARTESIAN_POINT('',(-5.555013675537E-02,0.333327649495));
#808 = CARTESIAN_POINT('',(-5.277502105405E-02,0.666660986762));
#809 = CARTESIAN_POINT('',(-5.E-02,0.999982955462));
#810 = ( GEOMETRIC_REPRESENTATION_CONTEXT(2) 
PARAMETRIC_REPRESENTATION_CONTEXT() REPRESENTATION_CONTEXT('2D SPACE',''
  ) );
#811 = PCURVE('',#299,#812);
#812 = DEFINITIONAL_REPRESENTATION('',(#813),#836);
#813 = B_SPLINE_CURVE_WITH_KNOTS('',11,(#814,#815,#816,#817,#818,#819,
    #820,#821,#822,#823,#824,#825,#826,#827,#828,#829,#830,#831,#832,
    #833,#834,#835),.UNSPECIFIED.,.F.,.F.,(12,10,12),(0.,0.5,1.),
  .UNSPECIFIED.);
#814 = CARTESIAN_POINT('',(1.000001895376,0.749997871058));
#815 = CARTESIAN_POINT('',(1.000001895376,0.727271566809));
#816 = CARTESIAN_POINT('',(1.000001895376,0.704425267047));
#817 = CARTESIAN_POINT('',(1.000001895375,0.682159990055));
#818 = CARTESIAN_POINT('',(1.000001895376,0.658439381358));
#819 = CARTESIAN_POINT('',(1.000001895375,0.637151792917));
#820 = CARTESIAN_POINT('',(1.000001895376,0.612962262097));
#821 = CARTESIAN_POINT('',(1.000001895375,0.591280890412));
#822 = CARTESIAN_POINT('',(1.000001895375,0.568049188753));
#823 = CARTESIAN_POINT('',(1.000001895375,0.545478109357));
#824 = CARTESIAN_POINT('',(1.000001895375,0.522725530426));
#825 = CARTESIAN_POINT('',(1.000001895375,0.477274469578));
#826 = CARTESIAN_POINT('',(1.000001895375,0.454521890677));
#827 = CARTESIAN_POINT('',(1.000001895375,0.431950811205));
#828 = CARTESIAN_POINT('',(1.000001895375,0.408719109576));
#829 = CARTESIAN_POINT('',(1.000001895374,0.387037738105));
#830 = CARTESIAN_POINT('',(1.000001895374,0.362848206762));
#831 = CARTESIAN_POINT('',(1.000001895374,0.341560618968));
#832 = CARTESIAN_POINT('',(1.000001895374,0.317840009765));
#833 = CARTESIAN_POINT('',(1.000001895374,0.295574733026));
#834 = CARTESIAN_POINT('',(1.000001895374,0.272728433195));
#835 = CARTESIAN_POINT('',(1.000001895374,0.250002128946));
#836 = ( GEOMETRIC_REPRESENTATION_CONTEXT(2) 
PARAMETRIC_REPRESENTATION_CONTEXT() REPRESENTATION_CONTEXT('2D SPACE',''
  ) );
#837 = ORIENTED_EDGE('',*,*,#671,.T.);
#838 = ORIENTED_EDGE('',*,*,#504,.T.);
#839 = ADVANCED_FACE('',(#840),#479,.F.);
#840 = FACE_BOUND('',#841,.F.);
#841 = EDGE_LOOP('',(#842,#843,#844,#938));
#842 = ORIENTED_EDGE('',*,*,#774,.T.);
#843 = ORIENTED_EDGE('',*,*,#445,.T.);
#844 = ORIENTED_EDGE('',*,*,#845,.F.);
#845 = EDGE_CURVE('',#846,#389,#848,.T.);
#846 = VERTEX_POINT('',#847);
#847 = CARTESIAN_POINT('',(-0.899994866423,-4.450430543762E-13,
    -5.926360443184E-03));
#848 = SURFACE_CURVE('',#849,(#854,#896),.PCURVE_S1.);
#849 = B_SPLINE_CURVE_WITH_KNOTS('',3,(#850,#851,#852,#853),
  .UNSPECIFIED.,.F.,.F.,(4,4),(0.,1.),.PIECEWISE_BEZIER_KNOTS.);
#850 = CARTESIAN_POINT('',(-0.899999975315,-5.677276969533E-16,
    -5.307266154672E-03));
#851 = CARTESIAN_POINT('',(-0.899999975994,-5.677276973818E-16,
    -1.76908871967E-03));
#852 = CARTESIAN_POINT('',(-0.899999976674,-5.677276978102E-16,
    1.769088724361E-03));
#853 = CARTESIAN_POINT('',(-0.899999977353,-5.677276982386E-16,
    5.307266159363E-03));
#854 = PCURVE('',#479,#855);
#855 = DEFINITIONAL_REPRESENTATION('',(#856),#895);
#856 = B_SPLINE_CURVE_WITH_KNOTS('',10,(#857,#858,#859,#860,#861,#862,
    #863,#864,#865,#866,#867,#868,#869,#870,#871,#872,#873,#874,#875,
    #876,#877,#878,#879,#880,#881,#882,#883,#884,#885,#886,#887,#888,
    #889,#890,#891,#892,#893,#894),.UNSPECIFIED.,.F.,.F.,(11,9,9,9,11),(
    0.,0.5,0.75,0.875,1.),.UNSPECIFIED.);
#857 = CARTESIAN_POINT('',(1.005863448089E-09,1.000005681506));
#858 = CARTESIAN_POINT('',(4.999998022219E-02,1.00000514469));
#859 = CARTESIAN_POINT('',(9.999996864812E-02,1.000004607875));
#860 = CARTESIAN_POINT('',(0.149999964557,1.000004071059));
#861 = CARTESIAN_POINT('',(0.199999966222,1.000003534243));
#862 = CARTESIAN_POINT('',(0.249999971916,1.000002997428));
#863 = CARTESIAN_POINT('',(0.299999979912,1.000002460612));
#864 = CARTESIAN_POINT('',(0.349999988484,1.000001923797));
#865 = CARTESIAN_POINT('',(0.399999995905,1.000001386981));
#866 = CARTESIAN_POINT('',(0.450000000447,1.000000850165));
#867 = CARTESIAN_POINT('',(0.525000000354,1.000000044941));
#868 = CARTESIAN_POINT('',(0.550000050341,0.999999776533));
#869 = CARTESIAN_POINT('',(0.57500013128,0.999999508124));
#870 = CARTESIAN_POINT('',(0.600000224104,0.999999239715));
#871 = CARTESIAN_POINT('',(0.625000309749,0.999998971307));
#872 = CARTESIAN_POINT('',(0.650000369145,0.999998702898));
#873 = CARTESIAN_POINT('',(0.675000383229,0.999998434491));
#874 = CARTESIAN_POINT('',(0.700000332933,0.999998166083));
#875 = CARTESIAN_POINT('',(0.725000199191,0.999997897677));
#876 = CARTESIAN_POINT('',(0.76249984481,0.999997495069));
#877 = CARTESIAN_POINT('',(0.774987730239,0.999997360995));
#878 = CARTESIAN_POINT('',(0.787468610652,0.999997226996));
#879 = CARTESIAN_POINT('',(0.799947477478,0.999997093019));
#880 = CARTESIAN_POINT('',(0.812429322145,0.99999695901));
#881 = CARTESIAN_POINT('',(0.82491913608,0.999996824916));
#882 = CARTESIAN_POINT('',(0.837421910711,0.999996690682));
#883 = CARTESIAN_POINT('',(0.849942637468,0.999996556256));
#884 = CARTESIAN_POINT('',(0.862486307777,0.999996421583));
#885 = CARTESIAN_POINT('',(0.887629518357,0.999996151637));
#886 = CARTESIAN_POINT('',(0.889544752888,0.999996131075));
#887 = CARTESIAN_POINT('',(0.973136466948,0.999995233608));
#888 = CARTESIAN_POINT('',(0.751376194775,0.999997614496));
#889 = CARTESIAN_POINT('',(1.210107186325,0.999992689416));
#890 = CARTESIAN_POINT('',(0.74267284215,0.999997707937));
#891 = CARTESIAN_POINT('',(0.987056891186,0.999995084154));
#892 = CARTESIAN_POINT('',(0.995004298466,0.999994998828));
#893 = CARTESIAN_POINT('',(1.045825163865,0.999994453199));
#894 = CARTESIAN_POINT('',(1.058325158673,0.999994318996));
#895 = ( GEOMETRIC_REPRESENTATION_CONTEXT(2) 
PARAMETRIC_REPRESENTATION_CONTEXT() REPRESENTATION_CONTEXT('2D SPACE',''
  ) );
#896 = PCURVE('',#422,#897);
#897 = DEFINITIONAL_REPRESENTATION('',(#898),#937);
#898 = B_SPLINE_CURVE_WITH_KNOTS('',10,(#899,#900,#901,#902,#903,#904,
    #905,#906,#907,#908,#909,#910,#911,#912,#913,#914,#915,#916,#917,
    #918,#919,#920,#921,#922,#923,#924,#925,#926,#927,#928,#929,#930,
    #931,#932,#933,#934,#935,#936),.UNSPECIFIED.,.F.,.F.,(11,9,9,9,11),(
    0.,0.125,0.25,0.5,1.),.UNSPECIFIED.);
#899 = CARTESIAN_POINT('',(-5.832515873844E-02,5.681662764725E-06));
#900 = CARTESIAN_POINT('',(-4.582516392692E-02,5.547450982189E-06));
#901 = CARTESIAN_POINT('',(4.995701618941E-03,5.001790039302E-06));
#902 = CARTESIAN_POINT('',(1.294311655072E-02,4.91645906592E-06));
#903 = CARTESIAN_POINT('',(0.257327154149,2.292520592031E-06));
#904 = CARTESIAN_POINT('',(-0.210107190989,7.311338409595E-06));
#905 = CARTESIAN_POINT('',(0.24862381376,2.385967897022E-06));
#906 = CARTESIAN_POINT('',(2.686352954956E-02,4.766996328505E-06));
#907 = CARTESIAN_POINT('',(0.110455248525,3.869476467251E-06));
#908 = CARTESIAN_POINT('',(0.112370482217,3.848912704486E-06));
#909 = CARTESIAN_POINT('',(0.137513692814,3.578951383408E-06));
#910 = CARTESIAN_POINT('',(0.150057363128,3.444270659312E-06));
#911 = CARTESIAN_POINT('',(0.162578089887,3.309836278956E-06));
#912 = CARTESIAN_POINT('',(0.175080864519,3.175594649631E-06));
#913 = CARTESIAN_POINT('',(0.187570678453,3.041492178637E-06));
#914 = CARTESIAN_POINT('',(0.200052523118,2.907475273263E-06));
#915 = CARTESIAN_POINT('',(0.212531389942,2.773490340809E-06));
#916 = CARTESIAN_POINT('',(0.225012270354,2.639483788567E-06));
#917 = CARTESIAN_POINT('',(0.237500155783,2.505402023831E-06));
#918 = CARTESIAN_POINT('',(0.274999801405,2.102770314032E-06));
#919 = CARTESIAN_POINT('',(0.299999667666,1.834348073496E-06));
#920 = CARTESIAN_POINT('',(0.324999617373,1.565924937004E-06));
#921 = CARTESIAN_POINT('',(0.349999631459,1.297501109271E-06));
#922 = CARTESIAN_POINT('',(0.374999690859,1.029076795012E-06));
#923 = CARTESIAN_POINT('',(0.399999776505,7.60652198939E-07));
#924 = CARTESIAN_POINT('',(0.424999869333,4.922275257676E-07));
#925 = CARTESIAN_POINT('',(0.449999950274,2.238029802117E-07));
#926 = CARTESIAN_POINT('',(0.475000000264,-4.462123301453E-08));
#927 = CARTESIAN_POINT('',(0.550000000179,-8.498922615619E-07));
#928 = CARTESIAN_POINT('',(0.600000004695,-1.386739663032E-06));
#929 = CARTESIAN_POINT('',(0.650000012066,-1.923587095155E-06));
#930 = CARTESIAN_POINT('',(0.700000020573,-2.460434539473E-06));
#931 = CARTESIAN_POINT('',(0.750000028498,-2.99728197754E-06));
#932 = CARTESIAN_POINT('',(0.800000034121,-3.53412939089E-06));
#933 = CARTESIAN_POINT('',(0.850000035724,-4.070976761083E-06));
#934 = CARTESIAN_POINT('',(0.900000031589,-4.607824069653E-06));
#935 = CARTESIAN_POINT('',(0.950000019995,-5.144671298154E-06));
#936 = CARTESIAN_POINT('',(0.999999999226,-5.681518428129E-06));
#937 = ( GEOMETRIC_REPRESENTATION_CONTEXT(2) 
PARAMETRIC_REPRESENTATION_CONTEXT() REPRESENTATION_CONTEXT('2D SPACE',''
  ) );
#938 = ORIENTED_EDGE('',*,*,#939,.F.);
#939 = EDGE_CURVE('',#775,#846,#940,.T.);
#940 = SURFACE_CURVE('',#941,(#946,#952),.PCURVE_S1.);
#941 = B_SPLINE_CURVE_WITH_KNOTS('',3,(#942,#943,#944,#945),
  .UNSPECIFIED.,.F.,.F.,(4,4),(0.,1.),.PIECEWISE_BEZIER_KNOTS.);
#942 = CARTESIAN_POINT('',(-0.450010221022,0.77940516907,
    -6.545454729348E-03));
#943 = CARTESIAN_POINT('',(-0.600003399396,0.519609352224,
    -6.545454729349E-03));
#944 = CARTESIAN_POINT('',(-0.749996578156,0.259813534687,
    -6.545454729349E-03));
#945 = CARTESIAN_POINT('',(-0.899989756512,1.771783063259E-05,
    -6.54545472935E-03));
#946 = PCURVE('',#479,#947);
#947 = DEFINITIONAL_REPRESENTATION('',(#948),#951);
#948 = B_SPLINE_CURVE_WITH_KNOTS('',1,(#949,#950),.UNSPECIFIED.,.F.,.F.,
  (2,2),(0.,1.),.PIECEWISE_BEZIER_KNOTS.);
#949 = CARTESIAN_POINT('',(-5.E-02,1.704486185206E-05));
#950 = CARTESIAN_POINT('',(-5.E-02,0.999982955139));
#951 = ( GEOMETRIC_REPRESENTATION_CONTEXT(2) 
PARAMETRIC_REPRESENTATION_CONTEXT() REPRESENTATION_CONTEXT('2D SPACE',''
  ) );
#952 = PCURVE('',#299,#953);
#953 = DEFINITIONAL_REPRESENTATION('',(#954),#975);
#954 = B_SPLINE_CURVE_WITH_KNOTS('',10,(#955,#956,#957,#958,#959,#960,
    #961,#962,#963,#964,#965,#966,#967,#968,#969,#970,#971,#972,#973,
    #974),.UNSPECIFIED.,.F.,.F.,(11,9,11),(0.,0.5,1.),.UNSPECIFIED.);
#955 = CARTESIAN_POINT('',(1.000001895374,0.250002128946));
#956 = CARTESIAN_POINT('',(0.975002652974,0.237502661528));
#957 = CARTESIAN_POINT('',(0.9499040453,0.224953512083));
#958 = CARTESIAN_POINT('',(0.925237285104,0.212620283721));
#959 = CARTESIAN_POINT('',(0.899625265085,0.199814431263));
#960 = CARTESIAN_POINT('',(0.875369058364,0.187686477113));
#961 = CARTESIAN_POINT('',(0.849750785288,0.174877498164));
#962 = CARTESIAN_POINT('',(0.825099255432,0.162551884878));
#963 = CARTESIAN_POINT('',(0.799983523873,0.149994173597));
#964 = CARTESIAN_POINT('',(0.774999338927,0.137502234813));
#965 = CARTESIAN_POINT('',(0.725002556449,0.112504151126));
#966 = CARTESIAN_POINT('',(0.700018391247,0.100012222213));
#967 = CARTESIAN_POINT('',(0.674902573545,8.745446786105E-02));
#968 = CARTESIAN_POINT('',(0.650251240331,7.512895289525E-02));
#969 = CARTESIAN_POINT('',(0.624632684059,6.231983235036E-02));
#970 = CARTESIAN_POINT('',(0.60037676146,5.019202025991E-02));
#971 = CARTESIAN_POINT('',(0.574764539284,3.738606672395E-02));
#972 = CARTESIAN_POINT('',(0.550097876591,2.505288711303E-02));
#973 = CARTESIAN_POINT('',(0.524999242383,1.250372440152E-02));
#974 = CARTESIAN_POINT('',(0.500000000002,4.256992365531E-06));
#975 = ( GEOMETRIC_REPRESENTATION_CONTEXT(2) 
PARAMETRIC_REPRESENTATION_CONTEXT() REPRESENTATION_CONTEXT('2D SPACE',''
  ) );
#976 = ADVANCED_FACE('',(#977),#422,.F.);
#977 = FACE_BOUND('',#978,.F.);
#978 = EDGE_LOOP('',(#979,#980,#1020,#1021));
#979 = ORIENTED_EDGE('',*,*,#604,.T.);
#980 = ORIENTED_EDGE('',*,*,#981,.T.);
#981 = EDGE_CURVE('',#605,#846,#982,.T.);
#982 = SURFACE_CURVE('',#983,(#988,#996),.PCURVE_S1.);
#983 = B_SPLINE_CURVE_WITH_KNOTS('',3,(#984,#985,#986,#987),
  .UNSPECIFIED.,.F.,.F.,(4,4),(0.,1.),.PIECEWISE_BEZIER_KNOTS.);
#984 = CARTESIAN_POINT('',(-0.450010221022,-0.779405169071,
    -6.545454729348E-03));
#985 = CARTESIAN_POINT('',(-0.600003399396,-0.519609352224,
    -6.545454729349E-03));
#986 = CARTESIAN_POINT('',(-0.749996578156,-0.259813534687,
    -6.545454729349E-03));
#987 = CARTESIAN_POINT('',(-0.899989756512,-1.771783027854E-05,
    -6.545454729349E-03));
#988 = PCURVE('',#422,#989);
#989 = DEFINITIONAL_REPRESENTATION('',(#990),#995);
#990 = B_SPLINE_CURVE_WITH_KNOTS('',3,(#991,#992,#993,#994),
  .UNSPECIFIED.,.F.,.F.,(4,4),(0.,1.),.PIECEWISE_BEZIER_KNOTS.);
#991 = CARTESIAN_POINT('',(-5.E-02,0.999982954597));
#992 = CARTESIAN_POINT('',(-5.277502136376E-02,0.66666098647));
#993 = CARTESIAN_POINT('',(-5.555013737473E-02,0.333327649783));
#994 = CARTESIAN_POINT('',(-5.832515873844E-02,5.681662764712E-06));
#995 = ( GEOMETRIC_REPRESENTATION_CONTEXT(2) 
PARAMETRIC_REPRESENTATION_CONTEXT() REPRESENTATION_CONTEXT('2D SPACE',''
  ) );
#996 = PCURVE('',#299,#997);
#997 = DEFINITIONAL_REPRESENTATION('',(#998),#1019);
#998 = B_SPLINE_CURVE_WITH_KNOTS('',10,(#999,#1000,#1001,#1002,#1003,
    #1004,#1005,#1006,#1007,#1008,#1009,#1010,#1011,#1012,#1013,#1014,
    #1015,#1016,#1017,#1018),.UNSPECIFIED.,.F.,.F.,(11,9,11),(0.,0.5,1.)
  ,.UNSPECIFIED.);
#999 = CARTESIAN_POINT('',(-1.895369746624E-06,0.250002128948));
#1000 = CARTESIAN_POINT('',(2.499734702981E-02,0.23750266153));
#1001 = CARTESIAN_POINT('',(5.009595473366E-02,0.22495351207));
#1002 = CARTESIAN_POINT('',(7.476271482055E-02,0.212620283763));
#1003 = CARTESIAN_POINT('',(0.100374735066,0.199814431191));
#1004 = CARTESIAN_POINT('',(0.124630941467,0.187686477201));
#1005 = CARTESIAN_POINT('',(0.150249214863,0.174877498092));
#1006 = CARTESIAN_POINT('',(0.174900744497,0.162551884918));
#1007 = CARTESIAN_POINT('',(0.200016476153,0.149994173587));
#1008 = CARTESIAN_POINT('',(0.225000661077,0.137502234814));
#1009 = CARTESIAN_POINT('',(0.274997443555,0.112504151127));
#1010 = CARTESIAN_POINT('',(0.29998160878,0.100012222203));
#1011 = CARTESIAN_POINT('',(0.325097426384,8.745446789937E-02));
#1012 = CARTESIAN_POINT('',(0.349748759819,7.512895282284E-02));
#1013 = CARTESIAN_POINT('',(0.375367315774,6.23198324362E-02));
#1014 = CARTESIAN_POINT('',(0.399623238688,5.019202018773E-02));
#1015 = CARTESIAN_POINT('',(0.425235460641,3.738606676336E-02));
#1016 = CARTESIAN_POINT('',(0.449902123441,2.505288709874E-02));
#1017 = CARTESIAN_POINT('',(0.475000757621,1.250372440164E-02));
#1018 = CARTESIAN_POINT('',(0.500000000002,4.256992365503E-06));
#1019 = ( GEOMETRIC_REPRESENTATION_CONTEXT(2) 
PARAMETRIC_REPRESENTATION_CONTEXT() REPRESENTATION_CONTEXT('2D SPACE',''
  ) );
#1020 = ORIENTED_EDGE('',*,*,#845,.T.);
#1021 = ORIENTED_EDGE('',*,*,#388,.F.);
#1022 = ADVANCED_FACE('',(#1023),#299,.T.);
#1023 = FACE_BOUND('',#1024,.T.);
#1024 = EDGE_LOOP('',(#1025,#1026,#1027,#1028,#1029,#1030));
#1025 = ORIENTED_EDGE('',*,*,#939,.F.);
#1026 = ORIENTED_EDGE('',*,*,#796,.F.);
#1027 = ORIENTED_EDGE('',*,*,#729,.T.);
#1028 = ORIENTED_EDGE('',*,*,#285,.T.);
#1029 = ORIENTED_EDGE('',*,*,#628,.F.);
#1030 = ORIENTED_EDGE('',*,*,#981,.T.);
#1031 = ( GEOMETRIC_REPRESENTATION_CONTEXT(3) 
GLOBAL_UNCERTAINTY_ASSIGNED_CONTEXT((#1035)) 
GLOBAL_UNIT_ASSIGNED_CONTEXT((#1032,#1033,#1034)) REPRESENTATION_CONTEXT
('Context #1','3D Context with UNIT and UNCERTAINTY') );
#1032 = ( LENGTH_UNIT() NAMED_UNIT(*) SI_UNIT(.MILLI.,.METRE.) );
#1033 = ( NAMED_UNIT(*) PLANE_ANGLE_UNIT() SI_UNIT($,.RADIAN.) );
#1034 = ( NAMED_UNIT(*) SI_UNIT($,.STERADIAN.) SOLID_ANGLE_UNIT() );
#1035 = UNCERTAINTY_MEASURE_WITH_UNIT(LENGTH_MEASURE(5.E-04),#1032,
  'distance_accuracy_value','confusion accuracy');
#1036 = PRODUCT_RELATED_PRODUCT_CATEGORY('detail',$,(#7));
#1037 = PRODUCT_CATEGORY_RELATIONSHIP('','',#1038,#1036);
#1038 = PRODUCT_CATEGORY('part',$);
#1039 = CC_DESIGN_PERSON_AND_ORGANIZATION_ASSIGNMENT(#1040,#1043,(#6,#5)
  );
#1040 = PERSON_AND_ORGANIZATION(#1041,#1042);
#1041 = PERSON('IP172.17.0,root','','root',$,$,$);
#1042 = ORGANIZATION('IP172.17.0','Unspecified','');
#1043 = PERSON_AND_ORGANIZATION_ROLE('creator');
#1044 = CC_DESIGN_PERSON_AND_ORGANIZATION_ASSIGNMENT(#1040,#1045,(#7));
#1045 = PERSON_AND_ORGANIZATION_ROLE('design_owner');
#1046 = CC_DESIGN_PERSON_AND_ORGANIZATION_ASSIGNMENT(#1040,#1047,(#6));
#1047 = PERSON_AND_ORGANIZATION_ROLE('design_supplier');
#1048 = CC_DESIGN_PERSON_AND_ORGANIZATION_ASSIGNMENT(#1040,#1049,(#1050)
  );
#1049 = PERSON_AND_ORGANIZATION_ROLE('classification_officer');
#1050 = SECURITY_CLASSIFICATION('','',#1051);
#1051 = SECURITY_CLASSIFICATION_LEVEL('unclassified');
#1052 = CC_DESIGN_SECURITY_CLASSIFICATION(#1050,(#6));
#1053 = CC_DESIGN_DATE_AND_TIME_ASSIGNMENT(#1054,#1058,(#5));
#1054 = DATE_AND_TIME(#1055,#1056);
#1055 = CALENDAR_DATE(2024,1,10);
#1056 = LOCAL_TIME(20,10,$,#1057);
#1057 = COORDINATED_UNIVERSAL_TIME_OFFSET(8,$,.AHEAD.);
#1058 = DATE_TIME_ROLE('creation_date');
#1059 = CC_DESIGN_DATE_AND_TIME_ASSIGNMENT(#1054,#1060,(#1050));
#1060 = DATE_TIME_ROLE('classification_date');
#1061 = CC_DESIGN_APPROVAL(#1062,(#6,#5,#1050));
#1062 = APPROVAL(#1063,'');
#1063 = APPROVAL_STATUS('not_yet_approved');
#1064 = APPROVAL_PERSON_ORGANIZATION(#1040,#1062,#1065);
#1065 = APPROVAL_ROLE('approver');
#1066 = APPROVAL_DATE_TIME(#1054,#1062);
ENDSEC;
END-ISO-10303-21;
